<svg xmlns="http://www.w3.org/2000/svg" width="80" height="80" viewBox="0 0 80 80">
  <g id="Group_450" data-name="Group 450" transform="translate(-94 -800)">
    <g id="Group_443" data-name="Group 443" transform="translate(94 800)">
      <path id="Path_767" data-name="Path 767" d="M40,0A40,40,0,1,1,0,40,40,40,0,0,1,40,0Z" fill="#f50707"/>
    </g>
    <path id="Icon_material-call-end" data-name="Icon material-call-end" d="M24,7.2a20.828,20.828,0,0,0-9.2,2.172v9.353a3.422,3.422,0,0,1-1.12,2.715,25.713,25.713,0,0,0-5.32,5.581,1.7,1.7,0,0,1-1.4.845,1.737,1.737,0,0,1-1.42-.875L.58,19.51A3.736,3.736,0,0,1,0,17.4a3.914,3.914,0,0,1,.58-2.142C6.68,6.537,14.92,1.167,24,1.167s17.32,5.37,23.42,14.089A3.914,3.914,0,0,1,48,17.4a3.914,3.914,0,0,1-.58,2.142l-4.96,7.482a1.737,1.737,0,0,1-1.42.875,1.771,1.771,0,0,1-1.4-.845,25.118,25.118,0,0,0-5.34-5.581,3.378,3.378,0,0,1-1.12-2.715V9.4A20.312,20.312,0,0,0,24,7.2Z" transform="translate(110 825.833)" fill="#fff"/>
  </g>
</svg>
