<svg xmlns="http://www.w3.org/2000/svg" width="140.876" height="140.876" viewBox="0 0 140.876 140.876">
  <g id="Group_434" data-name="Group 434" transform="translate(-196 -300)">
    <g id="Group_411" data-name="Group 411" transform="translate(196 300)" opacity="0.4" style="mix-blend-mode: multiply;isolation: isolate">
      <circle id="Ellipse_93" data-name="Ellipse 93" cx="49.807" cy="49.807" r="49.807" transform="translate(0 70.438) rotate(-45)" fill="#5dc90a"/>
    </g>
    <g id="Group_412" data-name="Group 412" transform="translate(196 300)">
      <path id="Path_817" data-name="Path 817" d="M49.807,0A49.807,49.807,0,1,1,0,49.807,49.807,49.807,0,0,1,49.807,0Z" transform="translate(0 70.438) rotate(-45)" fill="#16558c"/>
      <path id="Path_811" data-name="Path 811" d="M572.645,653.179A50.856,50.856,0,1,1,623.5,602.323,50.914,50.914,0,0,1,572.645,653.179Zm0-99.615A48.759,48.759,0,1,0,621.4,602.323,48.815,48.815,0,0,0,572.645,553.565Z" transform="translate(-502.206 -531.886)" fill="#fff"/>
    </g>
    <g id="Group_418" data-name="Group 418" transform="translate(242.077 352.22)">
      <g id="Group_417" data-name="Group 417" transform="translate(0 0)">
        <path id="Path_818" data-name="Path 818" d="M98.476,86.282,83.136,70.942l5.519-5.519,9.821,9.821,24.805-24.805,5.519,5.519Z" transform="translate(-81.828 -49.13)" fill="#fff"/>
        <path id="Path_819" data-name="Path 819" d="M98.057,87.172,81.41,70.524,88.237,63.7l9.82,9.821,24.805-24.805,6.827,6.827ZM84.026,70.524,98.057,84.555l29.016-29.016-4.211-4.21L98.057,76.135l-9.82-9.821Z" transform="translate(-81.41 -48.712)" fill="#fff"/>
      </g>
    </g>
  </g>
</svg>
