<svg xmlns="http://www.w3.org/2000/svg" width="80" height="80" viewBox="0 0 80 80">
  <g id="Group_449" data-name="Group 449" transform="translate(-281 -802)">
    <path id="Path_770" data-name="Path 770" d="M40,0A40,40,0,1,1,0,40,40,40,0,0,1,40,0Z" transform="translate(281 802)" fill="#fff"/>
    <path id="Icon_awesome-volume-mute" data-name="Icon awesome-volume-mute" d="M16.814,2.3,9.857,9.257H1.877A1.876,1.876,0,0,0,0,11.133v11.26A1.877,1.877,0,0,0,1.877,24.27H9.857l6.957,6.955a1.878,1.878,0,0,0,3.2-1.327V3.628A1.878,1.878,0,0,0,16.814,2.3ZM36.1,16.763l3.569-3.569a1.262,1.262,0,0,0,0-1.784L37.883,9.626a1.262,1.262,0,0,0-1.784,0l-3.569,3.569L28.96,9.626a1.262,1.262,0,0,0-1.784,0L25.392,11.41a1.262,1.262,0,0,0,0,1.784l3.569,3.569-3.568,3.568a1.262,1.262,0,0,0,0,1.784L27.177,23.9a1.262,1.262,0,0,0,1.784,0l3.568-3.568L36.1,23.9a1.262,1.262,0,0,0,1.784,0l1.784-1.784a1.262,1.262,0,0,0,0-1.784Z" transform="translate(301 825.25)"/>
  </g>
</svg>
