<svg xmlns="http://www.w3.org/2000/svg" width="80" height="80" viewBox="0 0 80 80">
  <g id="Group_336" data-name="Group 336" transform="translate(-44 -823)">
    <path id="Path_767" data-name="Path 767" d="M40,0A40,40,0,1,1,0,40,40,40,0,0,1,40,0Z" transform="translate(44 823)" fill="#fff"/>
    <path id="Path_768" data-name="Path 768" d="M20.242,17.333v1.311a2.621,2.621,0,0,1-2.621,2.621H3.2A2.621,2.621,0,0,1,.583,18.644V5.538A2.621,2.621,0,0,1,3.2,2.917H5.826m7.418,0h4.377a2.621,2.621,0,0,1,2.621,2.621V9.915l1.311,1.311,7.864-5.688V18.644" transform="translate(68.917 850.583)" fill="none" stroke="#000" stroke-linecap="round" stroke-linejoin="round" stroke-width="3"/>
    <path id="Path_769" data-name="Path 769" d="M.583.583,29.417,29.417" transform="translate(68.917 847.917)" fill="none" stroke="#000" stroke-linecap="round" stroke-linejoin="round" stroke-width="3"/>
  </g>
</svg>
