<svg xmlns="http://www.w3.org/2000/svg" width="144.987" height="200.363" viewBox="0 0 144.987 200.363">
  <g id="Group_204" data-name="Group 204" transform="translate(-117.079)">
    <path id="Path_422" data-name="Path 422" d="M537.3,362.863h-123a11.008,11.008,0,0,1-11-11V173.5a11.008,11.008,0,0,1,11-11h123a11.008,11.008,0,0,1,11,11V351.867A11.008,11.008,0,0,1,537.3,362.863Z" transform="translate(-286.234 -162.5)" fill="#cbcbcb"/>
    <path id="Path_423" data-name="Path 423" d="M549.275,367.007H425.846a3.393,3.393,0,0,1-3.39-3.39V184.064a3.393,3.393,0,0,1,3.39-3.39H549.275a3.393,3.393,0,0,1,3.39,3.39V363.617A3.393,3.393,0,0,1,549.275,367.007Z" transform="translate(-297.988 -173.659)" fill="#fff"/>
    <circle id="Ellipse_21" data-name="Ellipse 21" cx="0.935" cy="0.935" r="0.935" transform="translate(188.169 2.432)" fill="#fff"/>
    <path id="Path_424" data-name="Path 424" d="M587.177,525.09h-.071a.58.58,0,0,1-.579-.579v-5.79a.58.58,0,0,1,.579-.579h.071a.58.58,0,0,1,.579.579v5.79A.58.58,0,0,1,587.177,525.09Z" transform="translate(-398.728 -380.864)" fill="#3f3d56"/>
    <path id="Path_425" data-name="Path 425" d="M593.177,525.09h-.071a.58.58,0,0,1-.579-.579v-5.79a.58.58,0,0,1,.579-.579h.071a.58.58,0,0,1,.579.579v5.79A.58.58,0,0,1,593.177,525.09Z" transform="translate(-402.412 -380.864)" fill="#3f3d56"/>
    <path id="Path_426" data-name="Path 426" d="M462.27,524.948H462.2a.58.58,0,0,1-.579-.579v-5.79A.58.58,0,0,1,462.2,518h.071a.58.58,0,0,1,.579.579v5.79A.58.58,0,0,1,462.27,524.948Z" transform="translate(-322.035 -380.777)" fill="#3f3d56"/>
    <path id="Path_427" data-name="Path 427" d="M468.262,525.017a.346.346,0,0,1-.283-.148l-2.1-2.981a.581.581,0,0,1,0-.661l2.1-3.053a.347.347,0,0,1,.634.2v6.3a.346.346,0,0,1-.243.331A.354.354,0,0,1,468.262,525.017Z" transform="translate(-324.585 -380.791)" fill="#3f3d56"/>
    <path id="Path_428" data-name="Path 428" d="M717.435,524.369v-5.79a.58.58,0,0,1,.579-.579h.071a.58.58,0,0,1,.579.579v5.79a.58.58,0,0,1-.579.579h-.071A.58.58,0,0,1,717.435,524.369Z" transform="translate(-479.105 -380.777)" fill="#3f3d56"/>
    <path id="Path_429" data-name="Path 429" d="M709.362,525a.346.346,0,0,1-.243-.331v-6.3a.347.347,0,0,1,.634-.2l2.1,3.053a.58.58,0,0,1,0,.661l-2.1,2.981a.346.346,0,0,1-.283.148.353.353,0,0,1-.105-.016Z" transform="translate(-473.999 -380.791)" fill="#3f3d56"/>
    <rect id="Rectangle_11" data-name="Rectangle 11" width="99.742" height="0.772" transform="translate(139.778 125.836)" fill="#cbcbcb"/>
    <rect id="Rectangle_12" data-name="Rectangle 12" width="67.55" height="0.772" transform="translate(139.778 125.836)" fill="#699ebf"/>
    <circle id="Ellipse_22" data-name="Ellipse 22" cx="2.702" cy="2.702" r="2.702" transform="translate(204.626 123.52)" fill="#699ebf"/>
    <path id="Path_430" data-name="Path 430" d="M580.375,305.178a6.763,6.763,0,0,1-6.755-6.755V283.755a6.755,6.755,0,0,1,13.51,0v14.668A6.763,6.763,0,0,1,580.375,305.178Z" transform="translate(-390.803 -232.803)" fill="#699ebf"/>
    <path id="Path_431" data-name="Path 431" d="M568.4,339.94a14.3,14.3,0,0,1-14.282-14.282,1.158,1.158,0,0,1,2.316,0,11.966,11.966,0,1,0,23.932,0,1.158,1.158,0,1,1,2.316,0A14.3,14.3,0,0,1,568.4,339.94Z" transform="translate(-378.83 -261.968)" fill="#699ebf"/>
    <path id="Path_432" data-name="Path 432" d="M589.278,374.554a1.158,1.158,0,0,1-1.158-1.158V360.658a1.158,1.158,0,0,1,2.316,0V373.4a1.158,1.158,0,0,1-1.158,1.158Z" transform="translate(-399.706 -283.458)" fill="#699ebf"/>
    <circle id="Ellipse_23" data-name="Ellipse 23" cx="0.772" cy="0.772" r="0.772" transform="translate(186.098 47.864)" fill="#fff"/>
    <circle id="Ellipse_24" data-name="Ellipse 24" cx="0.772" cy="0.772" r="0.772" transform="translate(186.098 55.198)" fill="#fff"/>
    <circle id="Ellipse_25" data-name="Ellipse 25" cx="0.772" cy="0.772" r="0.772" transform="translate(191.502 50.566)" fill="#fff"/>
    <path id="Path_433" data-name="Path 433" d="M583.86,395.353H565.514a1.158,1.158,0,0,1,0-2.316H583.86a1.158,1.158,0,1,1,0,2.316Z" transform="translate(-385.115 -304.05)" fill="#699ebf"/>
  </g>
</svg>
