<svg xmlns="http://www.w3.org/2000/svg" width="310" height="310" viewBox="0 0 310 310">
  <g id="Group_435" data-name="Group 435" transform="translate(-60.746 -134)">
    <g id="Group_416" data-name="Group 416" transform="translate(-49.85 84.463)">
      <g id="Group_380" data-name="Group 380" transform="translate(110.596 49.537)">
        <path id="Path_814" data-name="Path 814" d="M109.124,0A110.76,110.76,0,0,1,219.2,110.079,108.456,108.456,0,0,1,110.079,219.2,110.76,110.76,0,0,1,0,109.124,108.456,108.456,0,0,1,109.124,0Z" transform="translate(0 155) rotate(-45)" fill="#11212c"/>
      </g>
      <g id="Group_381" data-name="Group 381" transform="translate(110.596 49.537)">
        <path id="Path_815" data-name="Path 815" d="M109.124,0A110.76,110.76,0,0,1,219.2,110.079,108.456,108.456,0,0,1,110.079,219.2,110.76,110.76,0,0,1,0,109.124,108.456,108.456,0,0,1,109.124,0Z" transform="translate(0 155) rotate(-45)" fill="#16558c"/>
      </g>
      <g id="Group_384" data-name="Group 384" transform="translate(201.291 152.258)">
        <g id="Group_382" data-name="Group 382">
          <path id="Path_796" data-name="Path 796" d="M394.78,360.137a8.974,8.974,0,0,1-5.494-2.384,14.881,14.881,0,0,1-3.639-5.388c-.508-1.183-.934-2.394-1.359-3.6a.622.622,0,0,0-1.157,0,32.445,32.445,0,0,1-2.395,5.016,12.179,12.179,0,0,1-2.943,3.658c-.054.041-.109.081-.164.12a8.742,8.742,0,0,1-4.734,1.124c-.665-.031-.831.975-.16,1.087a12.652,12.652,0,0,1,9.8,8.109,10.051,10.051,0,0,1,.554,3.541c-.017.657.954.707,1.179.147,1.477-3.69,3.188-7.8,7.274-9.639a7.629,7.629,0,0,1,3.241-.679A.554.554,0,1,0,394.78,360.137Z" transform="translate(-372.307 -348.367)" fill="#e0dbc0"/>
        </g>
        <g id="Group_383" data-name="Group 383" transform="translate(121.298 22.431)">
          <path id="Path_797" data-name="Path 797" d="M743.156,422.159a6.143,6.143,0,0,1-3.762-1.633,10.192,10.192,0,0,1-2.492-3.689c-.347-.81-.64-1.639-.93-2.468a.426.426,0,0,0-.792,0,22.178,22.178,0,0,1-1.64,3.434,8.341,8.341,0,0,1-2.015,2.5q-.055.042-.112.082a5.988,5.988,0,0,1-3.242.77c-.455-.022-.569.668-.109.744a8.663,8.663,0,0,1,6.708,5.552,6.877,6.877,0,0,1,.379,2.425c-.012.449.654.484.807.1,1.012-2.526,2.183-5.341,4.981-6.6a5.224,5.224,0,0,1,2.219-.465A.379.379,0,1,0,743.156,422.159Z" transform="translate(-727.767 -414.099)" fill="#e0dbc0"/>
        </g>
      </g>
      <g id="Group_391" data-name="Group 391" transform="translate(246.601 269.679)">
        <g id="Group_385" data-name="Group 385">
          <path id="Path_798" data-name="Path 798" d="M532.1,720.75V693.83a2.828,2.828,0,0,0-2.82-2.82h-8.929a2.828,2.828,0,0,0-2.82,2.82V707.4h-9.8v7.157h9.8v6.2a19.5,19.5,0,1,0,14.568,0Z" transform="translate(-505.317 -691.01)" fill="#ebcb42"/>
        </g>
        <g id="Group_390" data-name="Group 390" transform="translate(5.462 33.083)">
          <g id="Group_386" data-name="Group 386" transform="translate(0.605)">
            <circle id="Ellipse_89" data-name="Ellipse 89" cx="12.375" cy="12.375" r="12.375" transform="translate(0 24.431) rotate(-80.783)" fill="#699ebf"/>
          </g>
          <g id="Group_389" data-name="Group 389" transform="translate(0 0.663)">
            <g id="Group_387" data-name="Group 387">
              <circle id="Ellipse_90" data-name="Ellipse 90" cx="12.375" cy="12.375" r="12.375" transform="matrix(0.099, -0.995, 0.995, 0.099, 0, 24.63)" fill="#e0dbc0"/>
            </g>
            <g id="Group_388" data-name="Group 388" transform="translate(1.032 1.032)">
              <path id="Path_799" data-name="Path 799" d="M536.851,817.932a12.5,12.5,0,1,1,12.5-12.5A12.517,12.517,0,0,1,536.851,817.932Zm0-24.751A12.248,12.248,0,1,0,549.1,805.429,12.262,12.262,0,0,0,536.851,793.181Z" transform="translate(-524.349 -792.927)" fill="#bebebe"/>
            </g>
          </g>
        </g>
      </g>
      <g id="Group_401" data-name="Group 401" transform="translate(231.199 298.445)">
        <g id="Group_392" data-name="Group 392" transform="translate(47.379 39.734)">
          <path id="Path_800" data-name="Path 800" d="M608.145,899.451a34.633,34.633,0,0,1-6.859-7.185c-.866-1.225-2.9-.052-2.029,1.186a36.64,36.64,0,0,0,7.226,7.661C607.658,902.039,609.331,900.387,608.145,899.451Z" transform="translate(-599.043 -891.748)" fill="#e4c542"/>
        </g>
        <g id="Group_393" data-name="Group 393" transform="translate(55.225 31.873)">
          <path id="Path_801" data-name="Path 801" d="M632.018,872.515a69.037,69.037,0,0,1-8.208-3.658c-1.338-.7-2.527,1.325-1.186,2.029a73.741,73.741,0,0,0,8.769,3.895C632.814,875.306,633.427,873.035,632.018,872.515Z" transform="translate(-622.036 -868.712)" fill="#e4c542"/>
        </g>
        <g id="Group_394" data-name="Group 394" transform="translate(58.074 16.734)">
          <path id="Path_802" data-name="Path 802" d="M639.972,824.35l-8.456.409c-1.505.073-1.514,2.423,0,2.35l8.456-.409C641.478,826.627,641.487,824.276,639.972,824.35Z" transform="translate(-630.384 -824.348)" fill="#e4c542"/>
        </g>
        <g id="Group_395" data-name="Group 395" transform="translate(5.26 35.329)">
          <path id="Path_803" data-name="Path 803" d="M486.577,878.905a35.567,35.567,0,0,0-10.468,5.49c-1.186.9-.017,2.947,1.186,2.029a33.718,33.718,0,0,1,9.907-5.253C488.631,880.7,488.019,878.43,486.577,878.905Z" transform="translate(-475.615 -878.84)" fill="#e4c542"/>
        </g>
        <g id="Group_396" data-name="Group 396" transform="translate(0 21.726)">
          <path id="Path_804" data-name="Path 804" d="M470.024,839.628a61.953,61.953,0,0,0-8.9-.65.961.961,0,0,0,0,1.921,58.47,58.47,0,0,1,8.386.582C470.723,841.655,471.245,839.8,470.024,839.628Z" transform="translate(-460.2 -838.978)" fill="#e4c542"/>
        </g>
        <g id="Group_397" data-name="Group 397" transform="translate(3.05 3.012)">
          <path id="Path_805" data-name="Path 805" d="M479.187,789.33a20.866,20.866,0,0,0-3.851-2.461l-4.442-2.566a1.176,1.176,0,0,0-1.186,2.029l4.056,2.343a20.617,20.617,0,0,1,3.762,2.317C478.635,792.016,480.3,790.359,479.187,789.33Z" transform="translate(-469.137 -784.137)" fill="#e4c542"/>
        </g>
        <g id="Group_398" data-name="Group 398" transform="translate(52.044)">
          <path id="Path_806" data-name="Path 806" d="M622.68,775.4a62.273,62.273,0,0,0-9.415,4.793c-1.28.8-.1,2.832,1.186,2.029a58.8,58.8,0,0,1,8.854-4.556C624.686,777.1,624.081,774.828,622.68,775.4Z" transform="translate(-612.713 -775.309)" fill="#e4c542"/>
        </g>
        <g id="Group_399" data-name="Group 399" transform="translate(38.954 44.156)">
          <path id="Path_807" data-name="Path 807" d="M578.118,915.055q-.658-4.717-1.316-9.434c-.224-1.6-2.654-.919-2.432.671l1.316,9.433C575.908,917.326,578.339,916.645,578.118,915.055Z" transform="translate(-574.355 -904.707)" fill="#e4c542"/>
        </g>
        <g id="Group_400" data-name="Group 400" transform="translate(25.542 42.656)">
          <path id="Path_808" data-name="Path 808" d="M536.92,901.219q-.919,4.356-1.838,8.713c-.334,1.584,2.1,2.261,2.432.671q.919-4.356,1.838-8.713C539.687,900.306,537.255,899.629,536.92,901.219Z" transform="translate(-535.051 -900.312)" fill="#e4c542"/>
        </g>
      </g>
      <g id="Group_410" data-name="Group 410" transform="translate(214.417 138.546)">
        <g id="Group_404" data-name="Group 404" transform="translate(14.156 4.282)">
          <g id="Group_402" data-name="Group 402" transform="translate(3.174 2.492)">
            <path id="Path_809" data-name="Path 809" d="M532.56,374.578s4.224-55.151-36.571-59.15S455.967,350.8,455.967,350.8l7.189-.364s-2.908-28.388,25.24-30.369c28.652-2.017,37.069,21.635,36.535,54.51Z" transform="translate(-455.966 -315.143)" fill="#e0dbc0"/>
          </g>
          <g id="Group_403" data-name="Group 403">
            <path id="Path_810" data-name="Path 810" d="M525.8,372.361h-7.629a2.543,2.543,0,0,1-2.543-2.584c.175-10.776-.659-19.968-2.479-27.322-1.957-7.905-5.119-13.969-9.4-18.023-5.376-5.093-12.552-7.25-21.937-6.588-7.534.53-13.321,3.139-17.2,7.753-6.8,8.086-5.7,19.7-5.687,19.82a2.543,2.543,0,0,1-2.4,2.8l-7.189.364a2.543,2.543,0,0,1-2.671-2.49c-.015-.742-.219-18.3,11.857-29.469,7.472-6.91,17.888-9.764,30.954-8.485,17.81,1.746,30.183,13.127,35.783,32.913a92.311,92.311,0,0,1,3.076,28.962A2.543,2.543,0,0,1,525.8,372.361Zm-5.063-5.086h2.621a88.719,88.719,0,0,0-3.026-24.958c-3.223-11.308-8.663-19.387-16.245-24.167a28.069,28.069,0,0,1,3.163,2.59C516.363,329.37,520.783,344.609,520.74,367.275Zm-47.084-53.161a26.887,26.887,0,0,0-11.65,6.216c-7.849,7.238-9.692,18.078-10.123,23.029l1.884-.1c.018-4.486.878-13.712,6.957-20.94A25.9,25.9,0,0,1,473.656,314.114Z" transform="translate(-446.666 -307.839)" fill="#e0dbc0"/>
          </g>
        </g>
        <g id="Group_405" data-name="Group 405" transform="translate(0 53.614)">
          <path id="Rectangle_56" data-name="Rectangle 56" d="M15.594,0H86.8a15.593,15.593,0,0,1,15.593,15.593V71.75A15.594,15.594,0,0,1,86.8,87.344H15.593A15.593,15.593,0,0,1,0,71.75V15.594A15.594,15.594,0,0,1,15.594,0Z" fill="#699ebf"/>
        </g>
        <g id="Group_406" data-name="Group 406" transform="translate(5.539 53.614)">
          <path id="Rectangle_57" data-name="Rectangle 57" d="M15.594,0h67.67A15.594,15.594,0,0,1,98.857,15.594V71.75A15.594,15.594,0,0,1,83.263,87.344H15.593A15.593,15.593,0,0,1,0,71.75V15.594A15.594,15.594,0,0,1,15.594,0Z" fill="#c4eef2"/>
        </g>
        <g id="Group_409" data-name="Group 409" transform="translate(29.669 75.803)">
          <g id="Group_407" data-name="Group 407" transform="translate(1.74)">
            <circle id="Ellipse_91" data-name="Ellipse 91" cx="24.522" cy="24.522" r="24.522" fill="#699ebf"/>
          </g>
          <g id="Group_408" data-name="Group 408">
            <circle id="Ellipse_92" data-name="Ellipse 92" cx="24.522" cy="24.522" r="24.522" fill="#16558c"/>
          </g>
        </g>
      </g>
    </g>
    <g id="Group_433" data-name="Group 433">
      <g id="Group_415" data-name="Group 415" transform="translate(196 300)">
        <g id="Group_411" data-name="Group 411" transform="translate(0)" opacity="0.4" style="mix-blend-mode: multiply;isolation: isolate">
          <circle id="Ellipse_93" data-name="Ellipse 93" cx="16.215" cy="16.215" r="16.215" transform="translate(0 22.931) rotate(-45)" fill="#5dc90a"/>
        </g>
        <g id="Group_412" data-name="Group 412" transform="translate(0)">
          <path id="Path_817" data-name="Path 817" d="M16.215,0A16.215,16.215,0,1,1,0,16.215,16.215,16.215,0,0,1,16.215,0Z" transform="translate(0 22.931) rotate(-45)" fill="#5dc90a"/>
          <path id="Path_811" data-name="Path 811" d="M538.345,584.58A16.556,16.556,0,1,1,554.9,568.024,16.575,16.575,0,0,1,538.345,584.58Zm0-32.429a15.873,15.873,0,1,0,15.873,15.873A15.891,15.891,0,0,0,538.345,552.151Z" transform="translate(-515.414 -545.093)" fill="#fff"/>
        </g>
      </g>
      <g id="Group_418" data-name="Group 418" transform="translate(129.59 268.288)">
        <g id="Group_417" data-name="Group 417" transform="translate(81.41 48.712)">
          <path id="Path_818" data-name="Path 818" d="M88.13,62.107l-4.994-4.994,1.8-1.8,3.2,3.2,8.075-8.075,1.8,1.8Z" transform="translate(-82.71 -50.013)" fill="#fff"/>
          <path id="Path_819" data-name="Path 819" d="M86.829,61.232l-5.419-5.42,2.223-2.223,3.2,3.2L94.9,48.712l2.223,2.223Zm-4.568-5.42,4.568,4.568,9.446-9.446L94.9,49.564l-8.075,8.075-3.2-3.2Z" transform="translate(-81.41 -48.712)" fill="#fff"/>
        </g>
      </g>
    </g>
  </g>
</svg>
