<svg xmlns="http://www.w3.org/2000/svg" width="310.15" height="310.15" viewBox="0 0 310.15 310.15">
  <g id="Group_437" data-name="Group 437" transform="translate(-58.925 -134)">
    <g id="Group_379" data-name="Group 379" transform="translate(-51 83.788)">
      <g id="Group_346" data-name="Group 346" transform="translate(109.925 50.212)">
        <circle id="Ellipse_80" data-name="Ellipse 80" cx="109.654" cy="109.654" r="109.654" transform="translate(0 155.075) rotate(-45)" fill="#11212c"/>
      </g>
      <g id="Group_347" data-name="Group 347" transform="translate(109.925 50.212)">
        <circle id="Ellipse_81" data-name="Ellipse 81" cx="109.654" cy="109.654" r="109.654" transform="translate(0 155.075) rotate(-45)" fill="#16558c"/>
      </g>
      <g id="Group_350" data-name="Group 350" transform="translate(200.129 152.714)">
        <g id="Group_348" data-name="Group 348" transform="translate(0)">
          <path id="Path_778" data-name="Path 778" d="M394.948,360.225a9.041,9.041,0,0,1-5.535-2.4,14.992,14.992,0,0,1-3.666-5.428c-.512-1.192-.941-2.412-1.369-3.631a.627.627,0,0,0-1.166,0,32.688,32.688,0,0,1-2.413,5.053,12.27,12.27,0,0,1-2.965,3.685c-.054.042-.109.081-.165.121a8.808,8.808,0,0,1-4.77,1.132c-.67-.031-.837.983-.161,1.095a12.746,12.746,0,0,1,9.87,8.169,10.126,10.126,0,0,1,.558,3.567c-.017.661.962.712,1.187.148,1.488-3.717,3.212-7.859,7.329-9.711a7.685,7.685,0,0,1,3.266-.684A.558.558,0,1,0,394.948,360.225Z" transform="translate(-372.306 -348.367)" fill="#e0dbc0"/>
        </g>
        <g id="Group_349" data-name="Group 349" transform="translate(122.204 22.598)">
          <path id="Path_779" data-name="Path 779" d="M743.271,422.219a6.188,6.188,0,0,1-3.79-1.645,10.268,10.268,0,0,1-2.51-3.716c-.35-.816-.644-1.652-.937-2.487a.429.429,0,0,0-.8,0,22.357,22.357,0,0,1-1.652,3.46,8.4,8.4,0,0,1-2.03,2.523c-.037.029-.075.056-.113.083a6.032,6.032,0,0,1-3.266.776c-.459-.022-.573.673-.11.749a8.728,8.728,0,0,1,6.758,5.594A6.93,6.93,0,0,1,735.2,430c-.012.453.658.488.813.1,1.019-2.545,2.2-5.381,5.018-6.65a5.264,5.264,0,0,1,2.236-.469A.382.382,0,1,0,743.271,422.219Z" transform="translate(-727.768 -414.099)" fill="#e0dbc0"/>
        </g>
      </g>
      <g id="Group_357" data-name="Group 357" transform="translate(245.857 270.511)">
        <g id="Group_351" data-name="Group 351">
          <path id="Path_780" data-name="Path 780" d="M532.3,720.973V693.851a2.849,2.849,0,0,0-2.841-2.841h-9a2.849,2.849,0,0,0-2.841,2.841v13.667h-9.876v7.211h9.876v6.244a19.648,19.648,0,1,0,14.677,0Z" transform="translate(-505.317 -691.01)" fill="#ebcb42"/>
        </g>
        <g id="Group_356" data-name="Group 356" transform="translate(5.503 33.33)">
          <g id="Group_352" data-name="Group 352" transform="translate(0.609 0)">
            <circle id="Ellipse_82" data-name="Ellipse 82" cx="12.468" cy="12.468" r="12.468" transform="translate(0 24.613) rotate(-80.783)" fill="#699ebf"/>
          </g>
          <g id="Group_355" data-name="Group 355" transform="translate(0 0.668)">
            <g id="Group_353" data-name="Group 353" transform="translate(0 0)">
              <circle id="Ellipse_83" data-name="Ellipse 83" cx="12.468" cy="12.468" r="12.468" transform="matrix(0.099, -0.995, 0.995, 0.099, 0, 24.814)" fill="#e0dbc0"/>
            </g>
            <g id="Group_354" data-name="Group 354" transform="translate(1.04 1.04)">
              <path id="Path_781" data-name="Path 781" d="M536.945,818.119a12.6,12.6,0,1,1,12.6-12.6A12.61,12.61,0,0,1,536.945,818.119Zm0-24.936a12.34,12.34,0,1,0,12.34,12.34A12.354,12.354,0,0,0,536.945,793.183Z" transform="translate(-524.349 -792.927)" fill="#bebebe"/>
            </g>
          </g>
        </g>
      </g>
      <g id="Group_367" data-name="Group 367" transform="translate(230.346 299.493)">
        <g id="Group_358" data-name="Group 358" transform="translate(47.733 40.03)">
          <path id="Path_782" data-name="Path 782" d="M608.213,899.509a34.893,34.893,0,0,1-6.91-7.239c-.872-1.234-2.926-.053-2.044,1.195a36.912,36.912,0,0,0,7.28,7.718C607.722,902.116,609.408,900.452,608.213,899.509Z" transform="translate(-599.043 -891.748)" fill="#e4c542"/>
        </g>
        <g id="Group_359" data-name="Group 359" transform="translate(55.637 32.111)">
          <path id="Path_783" data-name="Path 783" d="M632.092,872.544a69.537,69.537,0,0,1-8.269-3.685c-1.348-.708-2.546,1.335-1.2,2.044a74.288,74.288,0,0,0,8.835,3.924C632.894,875.355,633.512,873.068,632.092,872.544Z" transform="translate(-622.036 -868.712)" fill="#e4c542"/>
        </g>
        <g id="Group_360" data-name="Group 360" transform="translate(58.508 16.859)">
          <path id="Path_784" data-name="Path 784" d="M640.044,824.35l-8.519.412c-1.516.073-1.525,2.441,0,2.367l8.519-.412C641.561,826.644,641.57,824.276,640.044,824.35Z" transform="translate(-630.384 -824.348)" fill="#e4c542"/>
        </g>
        <g id="Group_361" data-name="Group 361" transform="translate(5.299 35.593)">
          <path id="Path_785" data-name="Path 785" d="M486.659,878.906a35.834,35.834,0,0,0-10.546,5.531c-1.2.912-.017,2.969,1.195,2.044a33.97,33.97,0,0,1,9.981-5.293C488.729,880.713,488.112,878.426,486.659,878.906Z" transform="translate(-475.615 -878.84)" fill="#e4c542"/>
        </g>
        <g id="Group_362" data-name="Group 362" transform="translate(0 21.889)">
          <path id="Path_786" data-name="Path 786" d="M470.1,839.633a62.435,62.435,0,0,0-8.963-.655.968.968,0,0,0,0,1.936,58.908,58.908,0,0,1,8.448.586C470.8,841.675,471.328,839.811,470.1,839.633Z" transform="translate(-460.2 -838.978)" fill="#e4c542"/>
        </g>
        <g id="Group_363" data-name="Group 363" transform="translate(3.073 3.035)">
          <path id="Path_787" data-name="Path 787" d="M479.262,789.369a21.031,21.031,0,0,0-3.88-2.48l-4.475-2.585a1.184,1.184,0,0,0-1.195,2.044l4.086,2.36a20.769,20.769,0,0,1,3.79,2.334C478.706,792.075,480.384,790.405,479.262,789.369Z" transform="translate(-469.137 -784.137)" fill="#e4c542"/>
        </g>
        <g id="Group_364" data-name="Group 364" transform="translate(52.432)">
          <path id="Path_788" data-name="Path 788" d="M622.755,775.4a62.733,62.733,0,0,0-9.486,4.828c-1.29.8-.1,2.853,1.2,2.044a59.226,59.226,0,0,1,8.92-4.59C624.775,777.115,624.166,774.824,622.755,775.4Z" transform="translate(-612.713 -775.309)" fill="#e4c542"/>
        </g>
        <g id="Group_365" data-name="Group 365" transform="translate(39.245 44.486)">
          <path id="Path_789" data-name="Path 789" d="M578.146,915.132q-.663-4.753-1.326-9.5c-.225-1.613-2.674-.926-2.451.676l1.326,9.5C575.92,917.42,578.369,916.734,578.146,915.132Z" transform="translate(-574.355 -904.707)" fill="#e4c542"/>
        </g>
        <g id="Group_366" data-name="Group 366" transform="translate(25.733 42.975)">
          <path id="Path_790" data-name="Path 790" d="M536.934,901.226q-.926,4.389-1.852,8.778c-.336,1.6,2.113,2.278,2.45.675q.926-4.389,1.852-8.778C539.721,900.306,537.272,899.624,536.934,901.226Z" transform="translate(-535.051 -900.312)" fill="#e4c542"/>
        </g>
      </g>
      <g id="Group_376" data-name="Group 376" transform="translate(213.421 153.142)">
        <g id="Group_370" data-name="Group 370" transform="translate(12.272)">
          <g id="Group_368" data-name="Group 368" transform="translate(3.197 2.511)">
            <path id="Path_791" data-name="Path 791" d="M533.132,416.793s4.256-55.563-36.845-59.592-40.32,35.637-40.32,35.637l7.243-.367s-2.929-28.6,25.428-30.6c28.866-2.032,37.346,21.8,36.808,54.918Z" transform="translate(-455.966 -356.914)" fill="#e0dbc0"/>
          </g>
          <g id="Group_369" data-name="Group 369">
            <path id="Path_792" data-name="Path 792" d="M526.394,414.614h-7.686a2.563,2.563,0,0,1-2.562-2.6c.177-10.856-.663-20.117-2.5-27.526-1.971-7.964-5.157-14.073-9.468-18.158-5.416-5.131-12.646-7.3-22.1-6.637-7.59.534-13.421,3.162-17.33,7.811-6.851,8.147-5.741,19.851-5.729,19.968a2.562,2.562,0,0,1-2.419,2.82l-7.243.367a2.562,2.562,0,0,1-2.691-2.508c-.015-.747-.22-18.437,11.946-29.689,7.528-6.962,18.021-9.837,31.185-8.548,17.943,1.759,30.408,13.225,36.05,33.159a93,93,0,0,1,3.1,29.179A2.562,2.562,0,0,1,526.394,414.614Zm-5.1-5.124h2.64a89.378,89.378,0,0,0-3.049-25.145c-3.247-11.393-8.727-19.532-16.366-24.347a28.273,28.273,0,0,1,3.186,2.609C516.883,371.3,521.337,386.654,521.294,409.49Zm-47.436-53.558a27.087,27.087,0,0,0-11.737,6.262c-7.908,7.292-9.765,18.213-10.2,23.2l1.9-.1c.018-4.519.885-13.814,7.008-21.1A26.093,26.093,0,0,1,473.858,355.932Z" transform="translate(-446.666 -349.61)" fill="#e0dbc0"/>
          </g>
        </g>
        <g id="Group_371" data-name="Group 371" transform="translate(0 39.654)">
          <path id="Rectangle_54" data-name="Rectangle 54" d="M15.594,0H87.564a15.593,15.593,0,0,1,15.593,15.593V72.4A15.594,15.594,0,0,1,87.564,88H15.593A15.593,15.593,0,0,1,0,72.4V15.594A15.594,15.594,0,0,1,15.594,0Z" fill="#699ebf"/>
        </g>
        <g id="Group_372" data-name="Group 372" transform="translate(5.58 39.654)">
          <path id="Rectangle_55" data-name="Rectangle 55" d="M15.594,0H84A15.594,15.594,0,0,1,99.6,15.594V72.4A15.594,15.594,0,0,1,84,88H15.593A15.593,15.593,0,0,1,0,72.4V15.594A15.594,15.594,0,0,1,15.594,0Z" fill="#c4eef2"/>
        </g>
        <g id="Group_375" data-name="Group 375" transform="translate(29.891 62.009)">
          <g id="Group_373" data-name="Group 373" transform="translate(1.753)">
            <circle id="Ellipse_84" data-name="Ellipse 84" cx="24.705" cy="24.705" r="24.705" fill="#699ebf"/>
          </g>
          <g id="Group_374" data-name="Group 374">
            <circle id="Ellipse_85" data-name="Ellipse 85" cx="24.705" cy="24.705" r="24.705" fill="#16558c"/>
          </g>
        </g>
      </g>
      <g id="Group_377" data-name="Group 377" transform="translate(245.505 217.403)">
        <circle id="Ellipse_86" data-name="Ellipse 86" cx="16.336" cy="16.336" r="16.336" transform="translate(0 23.102) rotate(-45)" fill="#ff270e"/>
        <path id="Path_793" data-name="Path 793" d="M539.656,588.572a16.679,16.679,0,1,1,16.68-16.68A16.7,16.7,0,0,1,539.656,588.572Zm0-32.671a15.992,15.992,0,1,0,15.992,15.992A16.01,16.01,0,0,0,539.656,555.9Z" transform="translate(-516.554 -548.79)" fill="#699ebf"/>
      </g>
      <g id="Group_378" data-name="Group 378" transform="translate(260.068 231.966)">
        <path id="Path_794" data-name="Path 794" d="M564.273,583.12l-2.5-2.5-5.442,5.442-5.442-5.442-2.5,2.5,5.442,5.442L548.381,594l2.5,2.5,5.442-5.442,5.442,5.442,2.5-2.5-5.442-5.442Z" transform="translate(-547.787 -580.023)" fill="#fff"/>
        <path id="Path_795" data-name="Path 795" d="M560.636,595.969l-5.442-5.442-5.442,5.442-3.1-3.1,5.442-5.442-5.442-5.442,3.1-3.1,5.442,5.442,5.442-5.442,3.1,3.1-5.442,5.442,5.442,5.442Zm-5.442-6.629,5.442,5.442,1.91-1.91-5.442-5.442,5.442-5.442-1.91-1.91-5.442,5.442-5.442-5.442-1.91,1.91,5.442,5.442-5.442,5.442,1.91,1.91Z" transform="translate(-546.654 -578.89)" fill="#fff"/>
      </g>
    </g>
  </g>
</svg>
