<svg xmlns="http://www.w3.org/2000/svg" xmlns:xlink="http://www.w3.org/1999/xlink" width="378.778" height="265.186" viewBox="0 0 378.778 265.186">
  <defs>
    <linearGradient id="linear-gradient" x1="0.357" y1="-0.142" x2="0.659" y2="1.223" gradientUnits="objectBoundingBox">
      <stop offset="0" stop-color="#dae3fe"/>
      <stop offset="1" stop-color="#e9effd"/>
    </linearGradient>
  </defs>
  <g id="Group_452" data-name="Group 452" transform="translate(-28.222 -287.482)">
    <path id="Path_421" data-name="Path 421" d="M499.232,152.6c-9.55-19.007-30.522-33.3-50.937-28.912-12.222,2.626-24.369,11.433-36.087,7.013-8.445-3.188-13.207-12.225-20.313-17.887-10.928-8.73-26.44-8.628-39.757-4.716s-25.509,11.1-38.667,15.547a99.7,99.7,0,0,1-69.353-2.279c-9.616-3.967-18.616-9.44-28.406-12.931s-20.9-4.848-30.34-.481-16.226,15.776-12.946,25.858c.654,2.006,1.672,3.99,1.545,6.1-.214,3.39-3.409,5.873-6.64,6.627s-6.6.257-9.915.348c-14.863.386-28.148,14.286-28.218,29.532-.058,12.641,7.546,23.75,14.042,34.491s12.347,23.631,8.472,35.633c-2.3,7.116-7.69,12.683-11.214,19.248-9.153,17.02-4.26,39.551,8.526,53.906s31.916,21.38,50.8,23.053,37.829-1.468,56.552-4.57,37.674-6.185,56.552-4.412l-1.015-.565a300.666,300.666,0,0,0,113.138,6.577c7.887-1.048,16.943-3.3,20.276-10.7,2.815-6.251.288-13.576.866-20.433.836-9.883,8.069-17.978,15.958-23.723S479,274.9,486.1,268.17c13.9-13.17,18.621-33.555,20.694-52.843C509.076,194.071,508.782,171.6,499.232,152.6Z" transform="translate(-100.976 209.451)" fill="url(#linear-gradient)"/>
    <g id="Group_203" data-name="Group 203" transform="translate(-383.597 -39.829)">
      <g id="Group_61" data-name="Group 61" transform="translate(577.176 435.95)">
        <path id="Path_297" data-name="Path 297" d="M1059.754,950.655l2.789,111.405H1011.9c-1.319-5.271-1-18.331.086-34.006,2.521-36.32,9.175-86.675,9.175-86.675-14.819-23.75-11.023-31.392-6.451-34.642,2.458-1.748,4.053-1.309,5-.531a9.912,9.912,0,0,0,5.233,2.212c7.887.845,20.806.883,27.162.842a10.573,10.573,0,0,0,4.742-1.256c1.647-.847,4.318,1.214,4.318,1.214C1069.166,922.523,1059.754,950.655,1059.754,950.655Z" transform="translate(-1010.632 -905.524)" fill="#699ebf"/>
      </g>
      <g id="Group_62" data-name="Group 62" transform="translate(620.296 437.314)">
        <path id="Path_298" data-name="Path 298" d="M1324.441,1012.322c-.631-7.5-.948-32.374-1.394-39.888-.612-10.322-3.639-20.01-9.285-27.7a16.845,16.845,0,0,1-2.711-4.619c-.542-1.537-.925-4.094-5.833-3.927,0,0-.06-4.451-4-4.413a31.96,31.96,0,0,1-9.888-1.454c-11.269-3.091-12.953-3.637-23.053-7.9-3.183-1.344-7.764-3.388-10.217-5.822-6.771-6.715-12.315-2.531-12.315-2.531a17.149,17.149,0,0,1,1.015,15.052,87.5,87.5,0,0,0-4.537,17.777c-.272,1.79-.583,3.544-.89,5.131a66.177,66.177,0,0,0-1.134,15.4c1.989,45.6,8.728,100.52,8.728,100.52h89.213C1327.948,1043.889,1326.566,1037.588,1324.441,1012.322Z" transform="translate(-1240.133 -912.784)" fill="#052159"/>
      </g>
      <g id="Group_63" data-name="Group 63" transform="translate(476.893 434.101)">
        <path id="Path_299" data-name="Path 299" d="M582.653,897.937s-4.654-5.592-11.234.851c-4.788,4.688-11.8,7.728-27.864,10.6a12.355,12.355,0,0,0-6.893,3.824,13.645,13.645,0,0,1-9.536,4.342c-4.116.113-8.736,1.718-8.778,8.341,0,0-7.292,5.6-9.769,13.305-.968,3.011-2.53,8.454-6.045,11.112s-17.564,15.226-17.564,15.226-15.754,13.72-3.254,34.711c0,0,4.971,16.221,24.959,14.613,0,0,16.5,3.723,22.98-15.428,1.71-5.052,4.079-6.762,4.079-6.762A128.429,128.429,0,0,1,527.02,1027c-5.492,16.194-5.792,27.067-5.792,27.067h57.219s1.362-20.953,6.693-39.609c10.756-37.638,8.18-77.7,7.37-87.1a4.116,4.116,0,0,0-1.765-3.033,25.161,25.161,0,0,1-10.593-16.7C579.718,904.846,578.88,901.256,582.653,897.937Z" transform="translate(-476.893 -895.685)" fill="#052159"/>
      </g>
      <g id="Group_116" data-name="Group 116" transform="translate(565.756 327.312)">
        <g id="Group_64" data-name="Group 64" transform="translate(89.312 57.533)">
          <path id="Path_300" data-name="Path 300" d="M1433.193,633.872s.126,10.155-2.863,14.621-5.131,2.218-5.131,2.218,7.748-8,7.328-17.185Z" transform="translate(-1425.2 -633.525)" fill="#1b1b2f"/>
        </g>
        <g id="Group_65" data-name="Group 65" transform="translate(6.338 46.033)">
          <path id="Path_301" data-name="Path 301" d="M1001.031,593.67l-15.256-21.353s-4.87,10.3-.085,19.454a9.356,9.356,0,0,1-.5,10.009s5.8.717,5.409-5.188l.007.018c.135.359,1.728,2.462.631,7.942a3.231,3.231,0,0,0,3.091-1.189,3.116,3.116,0,0,0,.364-2.293c1.229,1.381,3.131,2.4,4.662,1.934l-1.643-3.272a9.946,9.946,0,0,0,4.678,4.13c4.17,1.879,7.049.421,7.049.421Z" transform="translate(-983.584 -572.317)" fill="#1b1b2f"/>
        </g>
        <g id="Group_82" data-name="Group 82" transform="translate(16.176 15.593)">
          <g id="Group_69" data-name="Group 69">
            <g id="Group_66" data-name="Group 66" transform="translate(0 58.143)">
              <path id="Path_302" data-name="Path 302" d="M1085.456,727.136l-5.739,33.655a1.69,1.69,0,0,0,1.286,1.93h0a9.249,9.249,0,0,1-3.514,5.175h0c-11.654,7.8-29.9,2.466-39.133-5.914a6.676,6.676,0,0,1-2.325-6.033l6.172-36.19Z" transform="translate(-1035.947 -719.76)" fill="#ffc89f"/>
            </g>
            <g id="Group_67" data-name="Group 67" transform="translate(5.147)">
              <path id="Path_303" data-name="Path 303" d="M1087.656,503.527h0a29.223,29.223,0,0,1-23.894-33.719l6-35.191a29.223,29.223,0,0,1,33.719-23.894h0a29.223,29.223,0,0,1,23.894,33.719l-6,35.191A29.223,29.223,0,0,1,1087.656,503.527Z" transform="translate(-1063.341 -410.302)" fill="#ffc89f"/>
            </g>
            <g id="Group_68" data-name="Group 68" transform="translate(29.888 89.829)">
              <path id="Path_304" data-name="Path 304" d="M1210.19,890.212l-.994,5.829c-3-.489-9.754-2.164-14.174-7.636A33.6,33.6,0,0,0,1210.19,890.212Z" transform="translate(-1195.022 -888.405)" fill="#ff9a6c"/>
            </g>
          </g>
          <g id="Group_81" data-name="Group 81" transform="translate(23.826 25.721)">
            <g id="Group_72" data-name="Group 72" transform="translate(27.214 13.236)">
              <g id="Group_70" data-name="Group 70" transform="translate(1.263 2.063)">
                <path id="Path_305" data-name="Path 305" d="M1319.548,631.7a2.631,2.631,0,1,1-2.151-3.035A2.631,2.631,0,0,1,1319.548,631.7Z" transform="translate(-1314.324 -628.622)" fill="#1b1b2f"/>
              </g>
              <g id="Group_71" data-name="Group 71">
                <path id="Path_306" data-name="Path 306" d="M1318.3,620.925a10.857,10.857,0,0,0-2.381-1.635,8.662,8.662,0,0,0-2.675-.86,5.1,5.1,0,0,0-.7-.078l-.351-.029c-.117-.007-.235.008-.352.006l-.708.013c-.234.035-.47.063-.707.089l-.356.041-.35.08-.708.15c-.469.119-.927.283-1.414.4a14.391,14.391,0,0,1,1.3-.724l.7-.269.355-.129.368-.086c.246-.058.493-.113.742-.162.252-.027.506-.044.76-.066.127-.009.254-.022.381-.019l.382.022a5.537,5.537,0,0,1,.763.07,7.207,7.207,0,0,1,2.839,1.08A6.606,6.606,0,0,1,1318.3,620.925Z" transform="translate(-1307.601 -617.644)" fill="#1b1b2f"/>
              </g>
            </g>
            <g id="Group_75" data-name="Group 75" transform="translate(0 8.595)">
              <g id="Group_73" data-name="Group 73" transform="translate(1.241 2.041)">
                <circle id="Ellipse_13" data-name="Ellipse 13" cx="2.631" cy="2.631" r="2.631" transform="translate(0 5.261) rotate(-89.509)" fill="#1b1b2f"/>
              </g>
              <g id="Group_74" data-name="Group 74">
                <path id="Path_307" data-name="Path 307" d="M1173.458,596.225a10.842,10.842,0,0,0-2.381-1.635,8.656,8.656,0,0,0-2.675-.86,5.076,5.076,0,0,0-.7-.078l-.351-.029c-.117-.007-.235.008-.352.006l-.708.013c-.234.034-.469.063-.707.088l-.356.041-.35.08-.708.15c-.469.119-.928.283-1.415.4a14.4,14.4,0,0,1,1.3-.724l.7-.269.355-.129.368-.086c.245-.058.493-.113.742-.162.251-.028.506-.044.759-.067.127-.009.254-.023.381-.019l.382.022a5.49,5.49,0,0,1,.763.07,7.208,7.208,0,0,1,2.839,1.08A6.6,6.6,0,0,1,1173.458,596.225Z" transform="translate(-1162.758 -592.943)" fill="#1b1b2f"/>
              </g>
            </g>
            <g id="Group_76" data-name="Group 76" transform="translate(16.272 24.659)">
              <path id="Path_308" data-name="Path 308" d="M1253.29,678.441c.113,1.141.156,2.28.174,3.419s.005,2.276-.021,3.414a7.385,7.385,0,0,1-.193,1.763,4.707,4.707,0,0,1-.779,1.631,3.011,3.011,0,0,1-1.447,1.091c-.551.159-1.1.315-1.658.444.5-.274,1.022-.518,1.533-.765a2.863,2.863,0,0,0,1.121-1.081,4.7,4.7,0,0,0,.584-1.476,7.219,7.219,0,0,0,.138-1.626c.04-1.137.088-2.274.177-3.409S1253.112,679.574,1253.29,678.441Z" transform="translate(-1249.366 -678.441)" fill="#1b1b2f"/>
            </g>
            <g id="Group_77" data-name="Group 77" transform="translate(8.01 37.259)">
              <path id="Path_309" data-name="Path 309" d="M1215.112,750.3a4.96,4.96,0,0,1-2.909,2.113,5.265,5.265,0,0,1-3.894-.429,5.525,5.525,0,0,1-2.553-2.9,5.653,5.653,0,0,1-.363-1.78,4.285,4.285,0,0,1,.311-1.8c.4.346.759.671,1.093.97.454.409.862.778,1.265,1.107a11.359,11.359,0,0,0,1.892,1.3,7.91,7.91,0,0,0,.947.422c.17.072.354.117.538.188.193.04.385.123.6.163.211.057.431.106.665.153C1213.4,749.954,1214.19,750.081,1215.112,750.3Z" transform="translate(-1205.392 -745.501)" fill="#e43f5a"/>
            </g>
            <g id="Group_78" data-name="Group 78" transform="translate(9.415 38.229)">
              <path id="Path_310" data-name="Path 310" d="M1218.775,754a3.994,3.994,0,0,1-.725.347,3.883,3.883,0,0,1-3.07-.263,3.88,3.88,0,0,1-2.112-3.418c.454.409.862.778,1.265,1.107a11.372,11.372,0,0,0,1.891,1.3,7.913,7.913,0,0,0,.948.422c.17.072.354.117.538.188.193.04.385.123.6.163C1218.32,753.906,1218.54,753.954,1218.775,754Z" transform="translate(-1212.867 -750.666)" fill="#fff"/>
            </g>
            <g id="Group_79" data-name="Group 79" transform="translate(28.447 4.641)">
              <path id="Path_311" data-name="Path 311" d="M1324.861,576.547c-1.182-.274-2.075-.5-2.931-.676s-1.585-.331-2.342-.43a1.279,1.279,0,0,0-.283-.042l-.286-.035c-.1-.017-.191-.031-.287-.051s-.2-.013-.294-.027c-.2-.017-.4-.052-.6-.085-.207-.01-.417-.028-.635-.059-.109-.012-.221-.036-.334-.053s-.224-.008-.341-.022c-.231-.019-.472-.051-.724-.089a11.189,11.189,0,0,1-1.641-.254,4.7,4.7,0,0,1,.488-.739,4.8,4.8,0,0,1,.586-.638c.218-.178.447-.35.685-.508.118-.084.24-.156.363-.232s.258-.126.39-.18c.264-.114.536-.216.813-.31.282-.069.573-.121.864-.165.146-.022.292-.045.44-.053h.446a5.1,5.1,0,0,1,.892.07,5.977,5.977,0,0,1,3.172,1.51,3.088,3.088,0,0,1,.307.314c.1.108.2.214.286.328a5.94,5.94,0,0,1,.478.728A3.844,3.844,0,0,1,1324.861,576.547Z" transform="translate(-1314.161 -571.898)" fill="#1b1b2f"/>
            </g>
            <g id="Group_80" data-name="Group 80" transform="translate(1.233)">
              <path id="Path_312" data-name="Path 312" d="M1180.018,551.846c-1.182-.274-2.075-.5-2.931-.676s-1.585-.331-2.342-.43a1.3,1.3,0,0,0-.283-.042l-.285-.035c-.1-.016-.191-.03-.287-.051s-.2-.013-.294-.027c-.2-.017-.4-.052-.6-.085-.206-.011-.417-.029-.635-.059-.109-.012-.221-.036-.334-.053s-.224-.008-.341-.022c-.231-.019-.473-.052-.724-.089a11.188,11.188,0,0,1-1.641-.254,4.674,4.674,0,0,1,.488-.739,4.793,4.793,0,0,1,.586-.638c.218-.178.447-.35.685-.508.118-.084.24-.156.363-.232s.258-.125.39-.18c.264-.114.537-.216.813-.31.282-.069.572-.121.864-.165.146-.022.292-.045.44-.053h.446a5.124,5.124,0,0,1,.892.07,5.975,5.975,0,0,1,3.172,1.51,3.119,3.119,0,0,1,.307.313c.1.108.2.214.286.328a5.953,5.953,0,0,1,.478.728A3.841,3.841,0,0,1,1180.018,551.846Z" transform="translate(-1169.318 -547.197)" fill="#1b1b2f"/>
            </g>
          </g>
        </g>
        <g id="Group_88" data-name="Group 88" transform="translate(0)">
          <g id="Group_83" data-name="Group 83">
            <path id="Path_313" data-name="Path 313" d="M994.246,353.394a8.6,8.6,0,0,1,11.072-2.989c2.932,1.5,6.23,4.727,9.1,11.3a41.526,41.526,0,0,1,2.341,7.235c1.032,4.455,4.573,15.444,15.146,20.985l-1.8,17.06.449-.115a34.137,34.137,0,0,0,15.946-18.71q.332-.929.649-1.906a4.514,4.514,0,0,0,.855,3.993,5.174,5.174,0,0,0,3.97,1.493s-3.629-6.686.333-16.853c3.579-9.184.526-16-7.3-22.17,0,0,6.156,1.882,8.26-3.767,0,0-14.848,3.731-22.4-9.074-9.27-15.723-24.537-16.134-30.012-4.334,0,0-1.97-7.6-8.038-4.367s-12.565,9.08-21.925,11.314-6.934,26.712-21.048,29.672c0,0,6.565,4.349,10.266-3.111,0,0-10.334,16.128,11.864,31.948l1.091-17.09s10.344-.235,14.181-11.879C990.2,363.075,991.448,357.648,994.246,353.394Z" transform="translate(-949.85 -327.312)" fill="#031740"/>
          </g>
          <g id="Group_84" data-name="Group 84" transform="translate(11.538 0.784)">
            <path id="Path_314" data-name="Path 314" d="M1050.644,338.942a14.393,14.393,0,0,0-1.578-3.319,5.911,5.911,0,0,0-2.482-2.24,4.48,4.48,0,0,0-1.552-.347,6.238,6.238,0,0,0-1.644.179,15.193,15.193,0,0,0-3.31,1.248,21.192,21.192,0,0,0-5.95,4.44c-.872.892-1.636,1.9-2.61,2.8a10.714,10.714,0,0,1-3.384,2.058,23.479,23.479,0,0,1-3.74,1.054l-.943.193-.944.159c-.63.11-1.259.2-1.891.281-.654.088-1.212.139-1.769.264a7.186,7.186,0,0,0-1.562.53,4.824,4.824,0,0,0-1.282.906,5.248,5.248,0,0,0-.933,1.3,11.8,11.8,0,0,0-.993,3.362c-.208,1.206-.336,2.454-.511,3.708a30.794,30.794,0,0,1-.7,3.763,13.251,13.251,0,0,1-1.453,3.545l-.157-.078a22.8,22.8,0,0,0,1.135-7.332c.043-1.252.081-2.516.2-3.8a12.51,12.51,0,0,1,.924-3.907,6.57,6.57,0,0,1,1.183-1.8,6.243,6.243,0,0,1,1.743-1.318,8.254,8.254,0,0,1,1.991-.712,16.741,16.741,0,0,1,1.963-.287,43.989,43.989,0,0,0,7.275-1.183c.293-.076.572-.176.861-.263s.559-.2.838-.311a9.172,9.172,0,0,0,1.567-.852,23.558,23.558,0,0,0,2.794-2.464c.91-.878,1.837-1.737,2.761-2.611a31.589,31.589,0,0,1,2.944-2.487,10.571,10.571,0,0,1,3.589-1.736,6.65,6.65,0,0,1,2.1-.17,5.224,5.224,0,0,1,2.078.588,5.59,5.59,0,0,1,1.654,1.325,7.312,7.312,0,0,1,1.086,1.716,9.4,9.4,0,0,1,.629,1.863,9.088,9.088,0,0,1,.242,1.92Z" transform="translate(-1011.258 -331.482)" fill="#031740"/>
          </g>
          <g id="Group_85" data-name="Group 85" transform="translate(47.295 22.322)">
            <path id="Path_315" data-name="Path 315" d="M1201.569,446.891a4.854,4.854,0,0,1,2.207-.741,7.357,7.357,0,0,1,2.354.163,10.771,10.771,0,0,1,1.136.324c.365.146.732.287,1.081.465a10.568,10.568,0,0,1,1.982,1.237,23.72,23.72,0,0,1,3.214,3.3q1.48,1.738,2.864,3.557a30.693,30.693,0,0,1,2.483,3.848,40.4,40.4,0,0,1,1.985,4.124,43.4,43.4,0,0,1,2.531,8.76l-.1.029c-1.17-2.806-2.26-5.608-3.467-8.354l-.44-1.034-.458-1.026c-.291-.691-.624-1.361-.937-2.042-.337-.668-.662-1.344-1.015-2l-.519-1-.545-.986a19.423,19.423,0,0,0-2.637-3.646,18.5,18.5,0,0,0-3.47-2.81,15.518,15.518,0,0,0-3.9-1.95,7.114,7.114,0,0,0-4.307-.118Z" transform="translate(-1201.569 -446.117)" fill="#031740"/>
          </g>
          <g id="Group_86" data-name="Group 86" transform="translate(22.572 23.095)">
            <path id="Path_316" data-name="Path 316" d="M1070.006,483.573a24.5,24.5,0,0,0,5.849-.2,16.617,16.617,0,0,0,2.787-.718,15.649,15.649,0,0,0,2.588-1.214,13.562,13.562,0,0,0,2.314-1.708,11.566,11.566,0,0,0,1.868-2.235,15.108,15.108,0,0,0,2.038-5.476,37.8,37.8,0,0,0,.5-5.839,32.639,32.639,0,0,1,.529-5.991,19.775,19.775,0,0,1,2.012-5.712,13.2,13.2,0,0,1,.816-1.289,10.321,10.321,0,0,1,.964-1.181,8.675,8.675,0,0,1,1.129-1.018,5.316,5.316,0,0,1,1.31-.76l.041.1a8,8,0,0,0-2.062,2.032,14.351,14.351,0,0,0-1.45,2.5,23.606,23.606,0,0,0-1.652,5.544,43.064,43.064,0,0,0-.656,5.813,26.715,26.715,0,0,1-.948,5.93,23.955,23.955,0,0,1-2.277,5.534,13.34,13.34,0,0,1-4.007,4.51,11.08,11.08,0,0,1-2.756,1.346,13.788,13.788,0,0,1-2.982.644,16.183,16.183,0,0,1-5.977-.5Z" transform="translate(-1069.988 -450.233)" fill="#031740"/>
          </g>
          <g id="Group_87" data-name="Group 87" transform="translate(95.138 25.321)">
            <path id="Path_317" data-name="Path 317" d="M1462.718,485.594a14.885,14.885,0,0,1,.3-1.754c.12-.571.233-1.139.38-1.693s.248-1.116.4-1.664a15.252,15.252,0,0,1,.444-1.643,16.32,16.32,0,0,0,.852-3.335,8.257,8.257,0,0,0-.026-1.719,9.126,9.126,0,0,0-.4-1.666,15.628,15.628,0,0,0-.622-1.565c-.129-.247-.222-.505-.347-.749l-.38-.725a15.4,15.4,0,0,0-1.921-2.6,19.74,19.74,0,0,0-2.37-2.27,25.738,25.738,0,0,0-2.824-1.959l.044-.17a9.131,9.131,0,0,1,3.515.956,10.776,10.776,0,0,1,3.014,2.169,10.241,10.241,0,0,1,2.034,3.144q.173.435.331.874c.1.3.175.6.246.9a7.452,7.452,0,0,1,.15.912,8.2,8.2,0,0,1,.076.914c.062,1.216.038,2.4.047,3.581a33.168,33.168,0,0,1,.018,3.605,11.321,11.321,0,0,1-.371,1.76c-.187.568-.372,1.139-.612,1.685s-.5,1.085-.8,1.6a14.287,14.287,0,0,1-1.02,1.486Z" transform="translate(-1456.209 -462.081)" fill="#031740"/>
          </g>
        </g>
        <g id="Group_93" data-name="Group 93" transform="translate(13.767 52.278)">
          <g id="Group_89" data-name="Group 89" transform="translate(0 0)">
            <rect id="Rectangle_9" data-name="Rectangle 9" width="12.393" height="20.578" rx="6.196" transform="translate(3.459 0) rotate(9.678)" fill="#ffc89f"/>
          </g>
          <g id="Group_92" data-name="Group 92" transform="translate(4.585 5.768)">
            <g id="Group_90" data-name="Group 90" transform="translate(0 0.899)">
              <path id="Path_318" data-name="Path 318" d="M1051.619,641.1a2.853,2.853,0,0,0-1.627.75,4.071,4.071,0,0,0-.97,1.435,6.087,6.087,0,0,0-.356,3.408,4,4,0,0,0,.634,1.528,2.5,2.5,0,0,0,.529.568.6.6,0,0,0,.2.1.177.177,0,0,0,.158-.05,1.787,1.787,0,0,0,.415-.64,7.058,7.058,0,0,0,.3-.86c.173-.6.3-1.218.43-1.846a9.333,9.333,0,0,1,.056,1.933,6.078,6.078,0,0,1-.154.984,2.2,2.2,0,0,1-.5,1.007,1.029,1.029,0,0,1-.689.326,1.255,1.255,0,0,1-.691-.181,3.092,3.092,0,0,1-.834-.743,4.419,4.419,0,0,1-.888-1.917,5.8,5.8,0,0,1,.641-3.993,4.9,4.9,0,0,1,.6-.833,4.028,4.028,0,0,1,.8-.653A2.605,2.605,0,0,1,1051.619,641.1Z" transform="translate(-1047.524 -641.035)" fill="#ff9a6c"/>
            </g>
            <g id="Group_91" data-name="Group 91" transform="translate(3.964)">
              <path id="Path_319" data-name="Path 319" d="M1069.633,639.969a8.12,8.12,0,0,1-.064-1.165c0-.358.01-.7-.009-1a1.754,1.754,0,0,0-.164-.741,1.9,1.9,0,0,0-.774-.629,1.238,1.238,0,0,1,1.33.015,1.4,1.4,0,0,1,.5.6,2,2,0,0,1,.163.693,2.712,2.712,0,0,1-.238,1.24A2.517,2.517,0,0,1,1069.633,639.969Z" transform="translate(-1068.622 -636.252)" fill="#ff9a6c"/>
            </g>
          </g>
        </g>
        <g id="Group_94" data-name="Group 94" transform="translate(4.287 41.372)">
          <path id="Path_320" data-name="Path 320" d="M978.721,547.617c-.372,1.036-.793,2-1.224,2.948-.213.476-.431.946-.652,1.414s-.445.931-.705,1.382a17.055,17.055,0,0,0-1.5,2.775,8.759,8.759,0,0,0-.481,3.1l.021.783c.023.26.037.518.047.774s.042.511.051.765.03.507.06.758c.038.5.138,1,.207,1.495.111.489.177.983.3,1.467a34.705,34.705,0,0,0,1.849,5.895l-.141.1c-.212-.175-.418-.358-.62-.548a5.488,5.488,0,0,1-.573-.6c-.18-.21-.358-.424-.528-.645s-.317-.457-.465-.693a11.289,11.289,0,0,1-.8-1.481,11.568,11.568,0,0,1-.551-1.6,10.686,10.686,0,0,1-.3-1.661,15.54,15.54,0,0,1-.042-1.68c0-.279.01-.557.041-.834a8.158,8.158,0,0,1,.1-.827c.05-.273.105-.545.168-.814l.22-.8c.32-1.054.646-2.074.89-3.122s.368-2.154.7-3.2a8.267,8.267,0,0,1,.653-1.5,13.735,13.735,0,0,1,.861-1.391,9.921,9.921,0,0,1,2.272-2.375Z" transform="translate(-972.669 -547.508)" fill="#1b1b2f"/>
        </g>
        <g id="Group_95" data-name="Group 95" transform="translate(67.699 0.772)">
          <path id="Path_321" data-name="Path 321" d="M1310.2,331.426a7.762,7.762,0,0,1,2.024.193,11.977,11.977,0,0,1,1.943.582,13.868,13.868,0,0,1,1.828.88l.441.251c.141.094.283.186.419.286a9.907,9.907,0,0,1,.8.618,14.635,14.635,0,0,1,1.414,1.455c.216.26.45.5.66.757s.424.514.646.76c.112.122.221.245.338.363l.323.375c.217.249.44.492.67.732.452.484.883.989,1.349,1.474.23.245.427.515.643.773s.422.525.626.794c.4.52.758,1.028,1.124,1.548.192.249.4.483.6.726s.38.5.6.711c.435.436.829.911,1.285,1.3l.325.317c.108.107.231.188.344.286l.347.284.172.146.182.123a8.426,8.426,0,0,0,1.533.874,6,6,0,0,0,3.587.432l.085.154a5.048,5.048,0,0,1-4.071.739,8.326,8.326,0,0,1-3.761-1.961,10.725,10.725,0,0,1-1.432-1.515c-.424-.542-.794-1.117-1.168-1.684-.331-.586-.67-1.183-.967-1.768-.3-.561-.543-1.162-.844-1.733-.161-.278-.316-.563-.486-.837a6.755,6.755,0,0,0-.531-.811c-.2-.255-.4-.508-.609-.753-.1-.124-.209-.247-.319-.364s-.235-.223-.353-.333q-.357-.327-.735-.631c-.258-.195-.531-.372-.8-.548-.531-.366-1.106-.661-1.639-1-.27-.166-.548-.318-.811-.491-.135-.082-.262-.175-.394-.26s-.267-.166-.4-.248c-.529-.343-1.073-.66-1.616-.987-1.1-.639-2.22-1.241-3.405-1.836Z" transform="translate(-1310.166 -331.419)" fill="#1b1b2f"/>
        </g>
        <g id="Group_96" data-name="Group 96" transform="translate(79.798 14.998)">
          <path id="Path_322" data-name="Path 322" d="M1393.381,417.765a15.14,15.14,0,0,1-5.8.08,16.475,16.475,0,0,1-7.913-3.678c-.383-.308-.726-.659-1.084-.992-.334-.358-.685-.7-.988-1.084a19.591,19.591,0,0,1-3.032-4.951,28.225,28.225,0,0,0,3.441,4.586c.158.178.326.345.5.508l.507.5c.359.31.7.638,1.08.922a16.72,16.72,0,0,0,2.334,1.6,18.488,18.488,0,0,0,5.263,2.056,20.05,20.05,0,0,0,2.82.433A16.8,16.8,0,0,0,1393.381,417.765Z" transform="translate(-1374.564 -407.139)" fill="#1f4168"/>
        </g>
        <g id="Group_97" data-name="Group 97" transform="translate(96.59 48.84)">
          <path id="Path_323" data-name="Path 323" d="M1465.591,601.46a4.264,4.264,0,0,1-1.068-1.573,7.366,7.366,0,0,1-.5-1.862,11.3,11.3,0,0,1,.167-3.829,8.16,8.16,0,0,1,.222-.93l.255-.92c.23-.592.423-1.2.685-1.774s.532-1.148.836-1.7c.321-.544.64-1.088.985-1.613-.207.6-.441,1.178-.672,1.758s-.415,1.176-.638,1.754c-.2.588-.371,1.181-.559,1.769l-.225.9a7.95,7.95,0,0,0-.2.9l-.173.9-.1.91a12.372,12.372,0,0,0-.039,1.824,8.762,8.762,0,0,0,.276,1.8A5.162,5.162,0,0,0,1465.591,601.46Z" transform="translate(-1463.935 -587.258)" fill="#1f4168"/>
        </g>
        <g id="Group_98" data-name="Group 98" transform="translate(74.761 56.981)">
          <path id="Path_324" data-name="Path 324" d="M1347.753,630.585a36.015,36.015,0,0,0,3.163,2.887,26.719,26.719,0,0,0,3.485,2.411,18.123,18.123,0,0,0,1.878.963,16.753,16.753,0,0,0,6.157,1.493,11.33,11.33,0,0,1-4.332-.211,15.067,15.067,0,0,1-4.054-1.637,18.92,18.92,0,0,1-3.493-2.606A17.432,17.432,0,0,1,1347.753,630.585Z" transform="translate(-1347.753 -630.585)" fill="#1f4168"/>
        </g>
        <g id="Group_99" data-name="Group 99" transform="translate(62.927 19.92)">
          <path id="Path_325" data-name="Path 325" d="M1284.771,433.335a13,13,0,0,1,3.215,2.787,17.087,17.087,0,0,1,2.271,3.634,36.383,36.383,0,0,1,2.5,8.159c.566,2.781.99,5.576,1.571,8.329a35.552,35.552,0,0,0,1.088,4.068,15.967,15.967,0,0,0,1.813,3.8,14.522,14.522,0,0,1-2.135-3.677,29.937,29.937,0,0,1-1.3-4.065c-.7-2.758-1.151-5.555-1.725-8.313-.276-1.381-.587-2.753-.957-4.105a30.4,30.4,0,0,0-1.353-3.97A15.829,15.829,0,0,0,1284.771,433.335Z" transform="translate(-1284.771 -433.335)" fill="#1f4168"/>
        </g>
        <g id="Group_100" data-name="Group 100" transform="translate(47.876 16.661)">
          <path id="Path_326" data-name="Path 326" d="M1219.716,419.248c-.628-.294-1.235-.61-1.838-.924l-.942-.392c-.317-.12-.613-.289-.939-.381s-.644-.2-.963-.306a4.948,4.948,0,0,0-.481-.146l-.491-.1c-.329-.058-.65-.161-.981-.2l-.993-.1a10.6,10.6,0,0,0-3.922.5,10.159,10.159,0,0,0-3.5,1.99,7.846,7.846,0,0,1,3.307-2.5l.49-.2.51-.146.513-.143c.174-.035.349-.058.524-.088a6.04,6.04,0,0,1,1.057-.108l.532-.013a3.254,3.254,0,0,1,.531.01l1.055.12c.35.047.689.15,1.032.229l.511.131c.171.041.33.119.495.177.328.123.654.253.978.383.637.284,1.235.649,1.842.978C1218.609,418.426,1219.174,418.825,1219.716,419.248Z" transform="translate(-1204.665 -415.989)" fill="#1f4168"/>
        </g>
        <g id="Group_101" data-name="Group 101" transform="translate(6.831 36.693)">
          <path id="Path_327" data-name="Path 327" d="M986.206,537.418a15.685,15.685,0,0,1,.646-4.105l.158-.5c.057-.166.131-.326.2-.49s.131-.327.206-.486l.235-.473a17.35,17.35,0,0,1,1.092-1.79c.8-1.132,1.61-2.216,2.326-3.373s1.345-2.367,1.981-3.6a19.146,19.146,0,0,1-1.505,3.868c-.316.62-.683,1.214-1.058,1.8s-.783,1.139-1.166,1.7a16.291,16.291,0,0,0-1.95,3.524A31.582,31.582,0,0,0,986.206,537.418Z" transform="translate(-986.206 -522.603)" fill="#1f4168"/>
        </g>
        <g id="Group_102" data-name="Group 102" transform="translate(18.627 35.079)">
          <path id="Path_328" data-name="Path 328" d="M1048.988,531.453a20.706,20.706,0,0,0,2.953-1.185,27.266,27.266,0,0,0,2.766-1.538,26.268,26.268,0,0,0,4.877-3.972c.373-.369.715-.768,1.067-1.158.333-.406.673-.806.984-1.23a27.038,27.038,0,0,0,1.769-2.612,35.819,35.819,0,0,0,2.715-5.741,24.5,24.5,0,0,1-2.238,6.011,23.086,23.086,0,0,1-3.793,5.219,22.65,22.65,0,0,1-5.1,3.952A19.043,19.043,0,0,1,1048.988,531.453Z" transform="translate(-1048.988 -514.016)" fill="#1f4168"/>
        </g>
        <g id="Group_103" data-name="Group 103" transform="translate(42.092 5.457)">
          <path id="Path_329" data-name="Path 329" d="M1181.055,362.381a12.576,12.576,0,0,0,.037-3.066,3.7,3.7,0,0,0-.443-1.349,1.72,1.72,0,0,0-1-.8,5.076,5.076,0,0,0-2.853.215c-.976.288-1.934.684-2.915,1.06a12.234,12.234,0,0,1,2.735-1.578,7.494,7.494,0,0,1,1.554-.458,3.865,3.865,0,0,1,1.7.095,2.367,2.367,0,0,1,1.354,1.133,3.833,3.833,0,0,1,.412,1.628A7.53,7.53,0,0,1,1181.055,362.381Z" transform="translate(-1173.881 -356.357)" fill="#1f4168"/>
        </g>
        <g id="Group_104" data-name="Group 104" transform="translate(49.982 8.422)">
          <path id="Path_330" data-name="Path 330" d="M1215.87,377.979a11.221,11.221,0,0,1,5.054-4.495,14.19,14.19,0,0,1,3.286-1.062,17.668,17.668,0,0,1,3.439-.282,16.848,16.848,0,0,1,6.687,1.5,15.359,15.359,0,0,1,5.439,4.062,16.006,16.006,0,0,0-2.673-2.048,19.1,19.1,0,0,0-2.979-1.516,18.141,18.141,0,0,0-6.486-1.3,16.14,16.14,0,0,0-6.489,1.149,13.305,13.305,0,0,0-2.891,1.636A11.014,11.014,0,0,0,1215.87,377.979Z" transform="translate(-1215.87 -372.139)" fill="#1f4168"/>
        </g>
        <g id="Group_108" data-name="Group 108" transform="translate(85.366 30.694)">
          <g id="Group_105" data-name="Group 105" transform="translate(7.123 9.769)">
            <path id="Path_331" data-name="Path 331" d="M1442.112,553.69a5.609,5.609,0,0,0,1.918-2.231,7.329,7.329,0,0,0,.674-2.824,11.454,11.454,0,0,0,.012-1.478c-.037-.495-.095-.991-.15-1.489-.1-.492-.154-1-.255-1.492s-.217-.993-.3-1.505c.228.46.428.935.63,1.411.181.483.316.984.462,1.483a7.58,7.58,0,0,1,.151.766c.04.258.1.513.123.774l.04.788a4.871,4.871,0,0,1-.014.791,8.382,8.382,0,0,1-.256,1.571l-.27.756c-.116.242-.24.48-.37.712A4.464,4.464,0,0,1,1442.112,553.69Z" transform="translate(-1442.112 -542.67)" fill="#1f4168"/>
          </g>
          <g id="Group_106" data-name="Group 106" transform="translate(3.55 18.157)">
            <path id="Path_332" data-name="Path 332" d="M1423.093,589.814a4.059,4.059,0,0,0,1.323-.006,2.881,2.881,0,0,0,1.128-.467,3.745,3.745,0,0,0,.827-.891c.118-.17.208-.365.32-.544.083-.2.178-.391.269-.588l.6.172c-.117.417-.25.83-.4,1.241a12.132,12.132,0,0,1-.5,1.218,12.1,12.1,0,0,1,.093-1.311c.05-.433.112-.863.191-1.289l.6.172c-.08.224-.154.453-.242.676a7.228,7.228,0,0,1-.352.641,3.373,3.373,0,0,1-1.071,1.038,2.677,2.677,0,0,1-1.441.355A2.622,2.622,0,0,1,1423.093,589.814Z" transform="translate(-1423.093 -587.318)" fill="#1f4168"/>
          </g>
          <g id="Group_107" data-name="Group 107">
            <path id="Path_333" data-name="Path 333" d="M1404.2,490.678a20.11,20.11,0,0,1,3.426,4.476,20.748,20.748,0,0,1,1.245,2.555,19.412,19.412,0,0,1,.852,2.723,15.36,15.36,0,0,1,.374,2.837,12.9,12.9,0,0,1-.194,2.854,14.257,14.257,0,0,1-.315,1.393c-.158.449-.281.909-.48,1.34a13.221,13.221,0,0,1-1.358,2.475,18.519,18.519,0,0,0,1.034-2.592c.157-.435.241-.892.358-1.336.074-.455.182-.9.218-1.36.065-.454.074-.913.105-1.37,0-.458.009-.915-.033-1.372a15.465,15.465,0,0,0-.394-2.714,22.562,22.562,0,0,0-1.893-5.175A30.771,30.771,0,0,0,1404.2,490.678Z" transform="translate(-1404.2 -490.678)" fill="#1f4168"/>
          </g>
        </g>
        <g id="Group_109" data-name="Group 109" transform="translate(69.732 29.923)">
          <path id="Path_334" data-name="Path 334" d="M1320.988,486.574c.446,1.3.907,2.586,1.421,3.854s1.03,2.532,1.584,3.779,1.139,2.479,1.772,3.685,1.277,2.406,2,3.555a31.626,31.626,0,0,0,5.006,6.377,16.717,16.717,0,0,0,3.237,2.423,12.3,12.3,0,0,0,3.8,1.429,11.427,11.427,0,0,1-3.964-1.124,15.57,15.57,0,0,1-3.445-2.322,25.057,25.057,0,0,1-2.858-3.016,36.255,36.255,0,0,1-2.377-3.4,49.358,49.358,0,0,1-3.679-7.4A53.433,53.433,0,0,1,1320.988,486.574Z" transform="translate(-1320.988 -486.574)" fill="#1f4168"/>
        </g>
        <g id="Group_110" data-name="Group 110" transform="translate(11.436 65.195)">
          <path id="Path_335" data-name="Path 335" d="M1010.719,674.3a13.706,13.706,0,0,1,1.277,1.879,8.425,8.425,0,0,1,.853,2.144,5.656,5.656,0,0,1,.068,2.341,4.521,4.521,0,0,1-.982,2.08,8.244,8.244,0,0,0,.437-2.147,7.473,7.473,0,0,0-.208-2.114,15.113,15.113,0,0,0-.664-2.072C1011.238,675.726,1010.935,675.036,1010.719,674.3Z" transform="translate(-1010.719 -674.303)" fill="#1f4168"/>
        </g>
        <g id="Group_111" data-name="Group 111" transform="translate(9.786 29.152)">
          <path id="Path_336" data-name="Path 336" d="M1009.689,482.468c-.01,1.559-.14,3.115-.3,4.666-.077.777-.179,1.55-.282,2.324-.125.77-.23,1.544-.378,2.311a63.06,63.06,0,0,1-2.315,9.082c-.267.736-.514,1.479-.8,2.208l-.887,2.171a42.6,42.6,0,0,0-1.594,4.341,14.586,14.586,0,0,0-.711,4.5,9.266,9.266,0,0,0,.348,2.257,18.832,18.832,0,0,0,.812,2.179,10.219,10.219,0,0,1-1.609-4.408,13.469,13.469,0,0,1,.528-4.71c.2-.764.454-1.509.719-2.248s.558-1.467.872-2.185.593-1.431.892-2.147.542-1.449.817-2.173a76.553,76.553,0,0,0,3.887-18.171Z" transform="translate(-1001.932 -482.468)" fill="#1f4168"/>
        </g>
        <g id="Group_112" data-name="Group 112" transform="translate(4.01 42.042)">
          <path id="Path_337" data-name="Path 337" d="M971.19,555.139a9.508,9.508,0,0,0,3.8-1.386,13.422,13.422,0,0,0,1.608-1.225,4.91,4.91,0,0,0,.377-.349l.378-.356c.247-.245.479-.5.749-.746a9.638,9.638,0,0,1-.478.959,8.3,8.3,0,0,1-.632.873,7.2,7.2,0,0,1-1.629,1.439,6.407,6.407,0,0,1-2.024.819A4.428,4.428,0,0,1,971.19,555.139Z" transform="translate(-971.19 -551.077)" fill="#1f4168"/>
        </g>
        <g id="Group_113" data-name="Group 113" transform="translate(23.997 22.24)">
          <path id="Path_338" data-name="Path 338" d="M1089.363,445.68c-1.331,1.11-2.665,2.2-3.937,3.354a33.1,33.1,0,0,0-3.547,3.687,20.56,20.56,0,0,0-2.713,4.293,23.117,23.117,0,0,0-1.6,4.879,15.786,15.786,0,0,1,1.092-5.095,17.292,17.292,0,0,1,2.671-4.52,24.766,24.766,0,0,1,3.738-3.66A34.83,34.83,0,0,1,1089.363,445.68Z" transform="translate(-1077.571 -445.68)" fill="#1f4168"/>
        </g>
        <g id="Group_114" data-name="Group 114" transform="translate(35.789 9.879)">
          <path id="Path_339" data-name="Path 339" d="M1152.788,385.756a17.993,17.993,0,0,0-.208-2.858,7.39,7.39,0,0,0-.35-1.369,2.251,2.251,0,0,0-.741-1.086,1.158,1.158,0,0,0-1.182,0,6.2,6.2,0,0,0-1.133.777,7.226,7.226,0,0,0-1.633,2.2c-.441.826-.8,1.72-1.256,2.58a15.255,15.255,0,0,1-1.554,2.481,14.829,14.829,0,0,1-4.4,3.765,21.22,21.22,0,0,0,3.908-4.126c.271-.384.524-.78.755-1.189s.462-.82.673-1.244c.419-.848.813-1.722,1.28-2.586a7.147,7.147,0,0,1,1.892-2.3,6.34,6.34,0,0,1,1.3-.752,1.984,1.984,0,0,1,.778-.169,1.318,1.318,0,0,1,.78.257,2.5,2.5,0,0,1,.8,1.29,7.606,7.606,0,0,1,.279,1.434A15,15,0,0,1,1152.788,385.756Z" transform="translate(-1140.332 -379.889)" fill="#1f4168"/>
        </g>
        <g id="Group_115" data-name="Group 115" transform="translate(19.849 8.84)">
          <path id="Path_340" data-name="Path 340" d="M1069.424,374.362a5.358,5.358,0,0,1-1.09,1.655c-.223.248-.471.472-.716.7-.259.208-.512.431-.788.617a14.339,14.339,0,0,1-1.712,1.034l-.909.414c-.3.14-.62.238-.93.359-.621.24-1.267.391-1.9.573q-.968.217-1.945.38c-.655.079-1.31.157-1.965.206-.659.021-1.315.043-1.971.033.644-.146,1.286-.26,1.927-.376l1.907-.4c.626-.169,1.258-.306,1.877-.485.614-.2,1.242-.348,1.837-.59a18.192,18.192,0,0,0,3.485-1.6c.282-.154.532-.352.806-.522.257-.189.519-.377.761-.587A6.846,6.846,0,0,0,1069.424,374.362Z" transform="translate(-1055.495 -374.362)" fill="#1f4168"/>
        </g>
      </g>
      <g id="Group_117" data-name="Group 117" transform="translate(635.89 538.958)" opacity="0.4" style="mix-blend-mode: multiply;isolation: isolate">
        <path id="Path_341" data-name="Path 341" d="M1349.334,1507.3c-10.234-18.464-20.679-27.39-26.2-53.529,0,0,4.675,18.891,15.358,33,9.413,12.431,13.125,20.531,13.125,20.531Z" transform="translate(-1323.132 -1453.768)" fill="#a65b3c"/>
      </g>
      <g id="Group_118" data-name="Group 118" transform="translate(667.893 565.098)" opacity="0.4" style="mix-blend-mode: multiply;isolation: isolate">
        <path id="Path_342" data-name="Path 342" d="M1502.061,1620.284c-2.819-2.229-8.6-15.269-8.6-27.39,0,0,1.481,18.705,10.79,27.39Z" transform="translate(-1493.464 -1592.894)" fill="#a65b3c"/>
      </g>
      <g id="Group_119" data-name="Group 119" transform="translate(681.225 497.886)" opacity="0.4" style="mix-blend-mode: multiply;isolation: isolate">
        <path id="Path_343" data-name="Path 343" d="M1564.655,1329.77c-1.258-27.82,3.129-51.534,0-94.6a586.927,586.927,0,0,1,2.657,60.907c-.522,29.942,1.9,33.695,1.9,33.695Z" transform="translate(-1564.422 -1235.168)" fill="#a65b3c"/>
      </g>
      <g id="Group_120" data-name="Group 120" transform="translate(688.736 549.745)" opacity="0.4" style="mix-blend-mode: multiply;isolation: isolate">
        <path id="Path_344" data-name="Path 344" d="M1604.4,1543.941c8.418-8.439,17.525-16.378,13.518-32.756,0,0,1.93,9.406-2.659,18.054A59.316,59.316,0,0,1,1604.4,1543.941Z" transform="translate(-1604.397 -1511.185)" fill="#a65b3c"/>
      </g>
      <g id="Group_121" data-name="Group 121" transform="translate(686.014 584.582)" opacity="0.4" style="mix-blend-mode: multiply;isolation: isolate">
        <path id="Path_345" data-name="Path 345" d="M1618.332,1700.728c-13.747-5.11-32.22,2.938-27.742-4.13,0,0-.345,2.9,3.731,2.292C1610.474,1696.492,1618.332,1700.728,1618.332,1700.728Z" transform="translate(-1589.906 -1696.598)" fill="#a65b3c"/>
      </g>
      <g id="Group_122" data-name="Group 122" transform="translate(641.225 513.372)" opacity="0.4" style="mix-blend-mode: multiply;isolation: isolate">
        <path id="Path_346" data-name="Path 346" d="M1351.526,1324.392l17.975,5.172a2.364,2.364,0,0,0,2.048-.364l15.875-11.607-14.63,12.4a3.868,3.868,0,0,1-3.812.688Z" transform="translate(-1351.526 -1317.593)" fill="#a65b3c"/>
      </g>
      <g id="Group_123" data-name="Group 123" transform="translate(620.904 462.166)" opacity="0.4" style="mix-blend-mode: multiply;isolation: isolate">
        <path id="Path_347" data-name="Path 347" d="M1269.752,1056.423s-8.329,3.828-12.22-4.512c-1.947-4.173-4.35-5.956-5.856-6.7a1.5,1.5,0,0,0-2.029.729,90.464,90.464,0,0,0-6.276,20.268s2-10,7.7-17.084c2.379-2.96,4.64,1.136,5.708,4.8C1259.15,1062.076,1269.752,1056.423,1269.752,1056.423Z" transform="translate(-1243.37 -1045.053)" fill="#a65b3c"/>
      </g>
      <g id="Group_124" data-name="Group 124" transform="translate(568.57 455.15)" opacity="0.4" style="mix-blend-mode: multiply;isolation: isolate">
        <path id="Path_348" data-name="Path 348" d="M986.936,1015.52c-3.727-2.076-5.4-4.023-8.126-6.263a6.813,6.813,0,0,0-10.237,1.9l-3.741,6.562s5.1-10.089,13.362-6.227S986.936,1015.52,986.936,1015.52Z" transform="translate(-964.832 -1007.714)" fill="#a65b3c"/>
      </g>
      <g id="Group_125" data-name="Group 125" transform="translate(508.033 507.967)" opacity="0.4" style="mix-blend-mode: multiply;isolation: isolate">
        <path id="Path_349" data-name="Path 349" d="M642.629,1325.3c14.087-.437,20.494-9.566,23.6-18a181.033,181.033,0,0,1,8.582-18.475s-6.252,11.725-9.009,22.6C663.219,1321.616,655.091,1325.731,642.629,1325.3Z" transform="translate(-642.629 -1288.827)" fill="#a65b3c"/>
      </g>
      <g id="Group_126" data-name="Group 126" transform="translate(558.568 538.958)" opacity="0.4" style="mix-blend-mode: multiply;isolation: isolate">
        <path id="Path_350" data-name="Path 350" d="M914.631,1507.3c3.267-20.682,10.484-32,18.163-53.529,0,0-4.261,12.328-16.3,31.889a34.428,34.428,0,0,0-4.662,21.652Z" transform="translate(-911.595 -1453.768)" fill="#a65b3c"/>
      </g>
      <g id="Group_127" data-name="Group 127" transform="translate(543.454 563.304)" opacity="0.4" style="mix-blend-mode: multiply;isolation: isolate">
        <path id="Path_351" data-name="Path 351" d="M834.326,1612.541c-1.5-9.033,2.06-20.2,1.265-29.194a75.916,75.916,0,0,1-2.666,15.963c-2.353,8.151-1.68,13.232-1.68,13.232Z" transform="translate(-831.155 -1583.346)" fill="#a65b3c"/>
      </g>
      <g id="Group_128" data-name="Group 128" transform="translate(542.967 508.207)" opacity="0.4" style="mix-blend-mode: multiply;isolation: isolate">
        <path id="Path_352" data-name="Path 352" d="M829.409,1290.1l5.32,5.584a1.412,1.412,0,0,0,1.153.436l20.4-1.847-18.384,3.563a4.836,4.836,0,0,1-4.747-1.792l-4.587-5.943Z" transform="translate(-828.56 -1290.104)" fill="#a65b3c"/>
      </g>
      <g id="Group_129" data-name="Group 129" transform="translate(507.668 487.077)" opacity="0.4" style="mix-blend-mode: multiply;isolation: isolate">
        <path id="Path_353" data-name="Path 353" d="M658.06,1186.258c-3.329,2.448-8.274,2.874-10.534,2.935a1.854,1.854,0,0,1-1.714-1.043l-5.125-10.51a65.063,65.063,0,0,1,3.686,10.582c1.361,5.059,10.893.441,13.687-1.964" transform="translate(-640.688 -1177.64)" fill="#a65b3c"/>
      </g>
      <g id="Group_130" data-name="Group 130" transform="translate(525.041 495.695)" opacity="0.4" style="mix-blend-mode: multiply;isolation: isolate">
        <path id="Path_354" data-name="Path 354" d="M733.151,1223.51a18.233,18.233,0,0,0,15.175,12.272C738.783,1232.989,733.151,1223.51,733.151,1223.51Z" transform="translate(-733.151 -1223.51)" fill="#a65b3c"/>
      </g>
      <g id="Group_131" data-name="Group 131" transform="translate(620.585 496.793)" opacity="0.4" style="mix-blend-mode: multiply;isolation: isolate">
        <path id="Path_355" data-name="Path 355" d="M1241.671,1229.351s2.617,46.773,8.5,95.693h-2.2Z" transform="translate(-1241.671 -1229.351)" fill="#1f4168"/>
      </g>
      <g id="Group_134" data-name="Group 134" transform="translate(578.447 494.737)">
        <g id="Group_132" data-name="Group 132" transform="translate(42.907 39.081)" opacity="0.4" style="mix-blend-mode: multiply;isolation: isolate">
          <path id="Path_356" data-name="Path 356" d="M1245.763,1428.7c.171-1.453.224-2.282.224-2.282Q1245.881,1427.562,1245.763,1428.7Z" transform="translate(-1245.763 -1426.413)" fill="#1f4168"/>
        </g>
        <g id="Group_133" data-name="Group 133" transform="translate(0 0)" opacity="0.4" style="mix-blend-mode: multiply;isolation: isolate">
          <path id="Path_357" data-name="Path 357" d="M1060.3,1259.773c-1.017,8.663-6.206,39.571-29.118,50.135-4.271,1.969-9.618,3.284-8.988-5.929a115.948,115.948,0,0,1,2.247-17.572c8.5-38.546,7.791-68,7.791-68l0,.005c-.4,16.567-2.306,37.707-8.144,58.135-5.331,18.657-6.693,39.609-6.693,39.609h5.369l0-.021a2.2,2.2,0,0,1,1.808-2.451C1049.556,1309.245,1057.435,1287.58,1060.3,1259.773Z" transform="translate(-1017.397 -1218.409)" fill="#1f4168"/>
        </g>
      </g>
      <g id="Group_135" data-name="Group 135" transform="translate(596.207 489.673)" opacity="0.4" style="mix-blend-mode: multiply;isolation: isolate">
        <path id="Path_358" data-name="Path 358" d="M1111.925,1191.457s19.452,30.358,13.693,66.29C1125.618,1257.747,1125.737,1213.054,1111.925,1191.457Z" transform="translate(-1111.925 -1191.457)" fill="#1f4168"/>
      </g>
      <g id="Group_136" data-name="Group 136" transform="translate(581.237 446.177)" opacity="0.4" style="mix-blend-mode: multiply;isolation: isolate">
        <path id="Path_359" data-name="Path 359" d="M1076.067,968.373c-21,11.475-39.676-2-43.82-8.415C1032.247,959.958,1049.605,986.523,1076.067,968.373Z" transform="translate(-1032.247 -959.958)" fill="#a65b3c"/>
      </g>
      <g id="Group_137" data-name="Group 137" transform="translate(536.891 512.38)" opacity="0.4" style="mix-blend-mode: multiply;isolation: isolate">
        <path id="Path_360" data-name="Path 360" d="M830.017,1312.313l-6.709,31.318a2.792,2.792,0,0,1-2.118,2.139l-13.967,3.138a2.792,2.792,0,0,1-2.8-.992l-8.2-10.368a95.219,95.219,0,0,0,9.035,11.775c1.495,1.579,8.932-.156,14.127-1.622a8.4,8.4,0,0,0,6.017-6.747Z" transform="translate(-796.223 -1312.313)" fill="#a65b3c"/>
      </g>
      <g id="Group_138" data-name="Group 138" transform="translate(651.487 513.114)" opacity="0.4" style="mix-blend-mode: multiply;isolation: isolate">
        <path id="Path_361" data-name="Path 361" d="M1432.13,1316.22l1.567,32.027a6.209,6.209,0,0,1-2.374,5.193l-7.912,6.194a6.211,6.211,0,0,1-4.795,1.245l-12.475-1.967s7.991,1.855,13.607,2.559a6.481,6.481,0,0,0,4.824-1.346l7.329-5.789a6.483,6.483,0,0,0,2.45-5.528Z" transform="translate(-1406.141 -1316.22)" fill="#a65b3c"/>
      </g>
      <g id="Group_139" data-name="Group 139" transform="translate(533.135 508.06)" opacity="0.4" style="mix-blend-mode: multiply;isolation: isolate">
        <path id="Path_362" data-name="Path 362" d="M776.832,1312.348c5.139-4.885,3.56-15.058,7.119-23.029,0,0-2.747,12.5-2.7,20.831s-5.014,9.415-5.014,9.415Z" transform="translate(-776.234 -1289.319)" fill="#a65b3c"/>
      </g>
      <g id="Group_140" data-name="Group 140" transform="translate(681.082 497.884)">
        <path id="Path_363" data-name="Path 363" d="M1564.015,1329.764c-.483-7.877-.422-15.781-.134-23.664.151-3.942.383-7.88.547-11.821.092-1.97.16-3.941.231-5.911s.109-3.942.162-5.913l.106-5.914.053-5.914-.01-5.913-.069-5.913-.021-1.478-.042-1.478-.077-2.955c-.027-.985-.037-1.971-.078-2.956l-.119-2.954c-.123-3.941-.368-7.877-.55-11.817l.04,0c.67,7.86,1.1,15.744,1.257,23.634.175,7.89.029,15.785-.272,23.667l-.24,5.912c-.084,1.97-.167,3.941-.233,5.911s-.143,3.942-.2,5.913l-.16,5.913-.085,2.956-.064,2.956c-.021.985-.058,1.971-.065,2.956l-.031,2.956-.018,1.478,0,1.478.008,2.957c.014,1.971.075,3.942.1,5.914Z" transform="translate(-1563.658 -1235.16)" fill="#699ebf"/>
      </g>
      <g id="Group_141" data-name="Group 141" transform="translate(638.279 441.17)">
        <path id="Path_364" data-name="Path 364" d="M1344.835,965.682c-.166-.318-.312-.644-.455-.972s-.278-.659-.405-.993c-.255-.668-.5-1.343-.706-2.026a30.807,30.807,0,0,1-1.011-4.169c-.24-1.411-.413-2.829-.595-4.245-.165-1.418-.323-2.841-.375-4.271-.031-.717-.044-1.42-.1-2.129s-.128-1.411-.225-2.112a27.379,27.379,0,0,0-.931-4.134,20.312,20.312,0,0,0-1.653-3.9,16.018,16.018,0,0,0-1.14-1.79,11.1,11.1,0,0,0-1.4-1.6l.025-.031a12.7,12.7,0,0,1,2.759,3.28,18.158,18.158,0,0,1,1,1.908,18.343,18.343,0,0,1,.787,2.009,20.163,20.163,0,0,1,.573,2.08c.163.7.277,1.411.375,2.123a31.431,31.431,0,0,1,.238,4.291,38.981,38.981,0,0,0,.187,4.263c.067.709.17,1.414.293,2.116s.279,1.4.44,2.089a73.232,73.232,0,0,0,2.344,8.2Z" transform="translate(-1335.847 -933.309)" fill="#699ebf"/>
      </g>
      <g id="Group_142" data-name="Group 142" transform="translate(565.412 437.036)">
        <path id="Path_365" data-name="Path 365" d="M951.161,939.437a20.587,20.587,0,0,1-1.6-3.434,23.817,23.817,0,0,1-1.027-3.655,35.72,35.72,0,0,1-.464-7.557,19.955,19.955,0,0,1,1.806-7.357,19.82,19.82,0,0,1,1.943-3.273c.356-.526.78-1,1.185-1.485.2-.249.427-.467.646-.695l.665-.674.029.028a26.569,26.569,0,0,0-4.082,6.276l-.374.857c-.124.286-.218.584-.333.874l-.165.438-.139.447c-.089.3-.192.594-.269.9a26.056,26.056,0,0,0-.695,3.685,19.158,19.158,0,0,0-.057,3.761,25.638,25.638,0,0,0,.628,3.709,38.16,38.16,0,0,0,2.343,7.138Z" transform="translate(-948.02 -911.307)" fill="#699ebf"/>
      </g>
      <g id="Group_143" data-name="Group 143" transform="translate(568.553 455.013)">
        <path id="Path_366" data-name="Path 366" d="M986.851,1014.946a22.914,22.914,0,0,1-6.045-4.3c-.45-.426-.9-.852-1.353-1.269a10.66,10.66,0,0,0-1.44-1.152,6.369,6.369,0,0,0-3.481-.962,6.909,6.909,0,0,0-3.446.962,6.493,6.493,0,0,0-1.4,1.119,7.051,7.051,0,0,0-1.069,1.445c-1.243,2.14-2.51,4.265-3.84,6.355l-.035-.02c1.121-2.209,2.3-4.382,3.512-6.541a6.862,6.862,0,0,1,6.284-3.587,7.079,7.079,0,0,1,1.851.329,7.544,7.544,0,0,1,1.692.8,16.586,16.586,0,0,1,1.478,1.135c.485.386.963.781,1.439,1.176.959.783,1.878,1.6,2.851,2.355s1.985,1.455,3.025,2.128Z" transform="translate(-964.74 -1006.986)" fill="#699ebf"/>
      </g>
      <g id="Group_144" data-name="Group 144" transform="translate(508.032 507.958)">
        <path id="Path_367" data-name="Path 367" d="M674.827,1288.8c-1.913,3.9-3.8,7.813-5.628,11.753-.235.49-.461.983-.688,1.476s-.451.987-.671,1.484-.44.992-.649,1.494l-.311.753-.3.758c-.2.505-.4,1.011-.584,1.522s-.4,1.011-.618,1.511c-.434,1-.9,1.986-1.415,2.945a26.2,26.2,0,0,1-3.744,5.362,24.245,24.245,0,0,1-2.37,2.273,21,21,0,0,1-2.689,1.89,22.051,22.051,0,0,1-6.057,2.484,27.257,27.257,0,0,1-6.48.78v-.04c1.084-.077,2.165-.175,3.233-.354.537-.072,1.066-.191,1.6-.292.264-.057.526-.126.789-.188l.394-.095.39-.11a22.81,22.81,0,0,0,3.052-1.069c.246-.11.5-.212.738-.329l.727-.352c.475-.252.953-.5,1.41-.786a23.392,23.392,0,0,0,4.994-4.067,28.739,28.739,0,0,0,3.824-5.216,31.7,31.7,0,0,0,1.481-2.893c.221-.5.429-1,.631-1.5s.385-1.015.576-1.524l.286-.764.3-.758.293-.761.3-.757c.2-.5.406-1.009.619-1.51s.419-1,.638-1.5c.444-.993.89-1.985,1.362-2.965s.954-1.955,1.442-2.926c.985-1.939,2-3.861,3.088-5.746Z" transform="translate(-642.626 -1288.777)" fill="#699ebf"/>
      </g>
      <g id="Group_145" data-name="Group 145" transform="translate(540.213 482.604)">
        <path id="Path_368" data-name="Path 368" d="M825.52,1153.836a5.415,5.415,0,0,1,.64.8c.09.145.191.286.273.436s.166.3.244.454l.213.47c.073.156.122.322.185.483a8.809,8.809,0,0,1,.3.991,10.327,10.327,0,0,1,.094,4.113l-.231,1.006c-.086.332-.208.654-.31.981-.057.161-.1.328-.169.484l-.2.472c-.136.313-.254.635-.4.942q-.844,1.858-1.7,3.711t-1.8,3.663c-.632,1.206-1.279,2.4-1.963,3.582-.346.586-.69,1.174-1.051,1.752l-.135.217c-.047.073-.1.153-.155.225a2.521,2.521,0,0,1-.379.4,2.44,2.44,0,0,1-1.5.571c-.173.006-.345.006-.517,0-.344-.006-.686-.028-1.027-.059a18.761,18.761,0,0,1-2.022-.312l.006-.039c.676.072,1.353.128,2.029.15.338.011.675.013,1.011,0,.168-.006.336-.017.5-.032a2.423,2.423,0,0,0,.47-.086,2.11,2.11,0,0,0,.819-.458,2.143,2.143,0,0,0,.313-.35c.047-.064.085-.129.128-.2l.127-.221,1.012-1.767c.672-1.179,1.346-2.358,2-3.547s1.3-2.383,1.94-3.583,1.237-2.42,1.778-3.667a15.678,15.678,0,0,0,1.1-3.884,11.988,11.988,0,0,0-.068-4,9.105,9.105,0,0,0-1.579-3.676Z" transform="translate(-813.901 -1153.836)" fill="#699ebf"/>
      </g>
      <g id="Group_146" data-name="Group 146" transform="translate(533.734 508.06)">
        <path id="Path_369" data-name="Path 369" d="M786.537,1289.319a32.878,32.878,0,0,0-1.645,5.853c-.389,1.991-.672,4-.99,6.014a39.422,39.422,0,0,1-1.325,5.978,14.706,14.706,0,0,1-1.24,2.81,9.769,9.769,0,0,1-1.921,2.375,10.451,10.451,0,0,0,1.75-2.47,15.926,15.926,0,0,0,1.114-2.809c.285-.969.516-1.954.707-2.949s.363-1.995.521-3c.325-2.006.626-4.024,1.08-6.014A26.074,26.074,0,0,1,786.537,1289.319Z" transform="translate(-779.418 -1289.319)" fill="#699ebf"/>
      </g>
      <g id="Group_147" data-name="Group 147" transform="translate(525.041 495.695)">
        <path id="Path_370" data-name="Path 370" d="M733.151,1223.51c.474.682.969,1.347,1.494,1.987s1.057,1.273,1.612,1.885,1.128,1.207,1.723,1.779,1.2,1.133,1.835,1.659,1.277,1.043,1.95,1.519c.33.247.677.47,1.018.7s.694.445,1.052.65a25.129,25.129,0,0,0,4.49,2.091,19.308,19.308,0,0,1-4.643-1.821,24.6,24.6,0,0,1-4.123-2.836,29.815,29.815,0,0,1-3.534-3.539A26.448,26.448,0,0,1,733.151,1223.51Z" transform="translate(-733.151 -1223.51)" fill="#699ebf"/>
      </g>
      <g id="Group_148" data-name="Group 148" transform="translate(507.65 487.068)">
        <path id="Path_371" data-name="Path 371" d="M640.628,1177.593c.519.9,1.01,1.816,1.485,2.739s.941,1.85,1.374,2.793.832,1.9,1.274,2.842q.333.7.685,1.4.175.348.357.692a1.784,1.784,0,0,0,.464.569,1.726,1.726,0,0,0,.646.323,1.628,1.628,0,0,0,.355.052c.06.006.119,0,.179,0l.193-.011c.515-.029,1.029-.074,1.542-.126a30.4,30.4,0,0,0,3.049-.481,17.005,17.005,0,0,0,5.742-2.18l.023.032a11.019,11.019,0,0,1-2.683,1.611,16.682,16.682,0,0,1-2.993.952,22.671,22.671,0,0,1-3.1.439c-.521.043-1.043.064-1.565.069l-.2,0c-.07,0-.141,0-.21-.011a1.863,1.863,0,0,1-.409-.089,1.99,1.99,0,0,1-1.186-1.076q-.159-.356-.325-.707-.33-.705-.679-1.4c-.468-.926-.975-1.833-1.455-2.754s-.919-1.861-1.354-2.8-.853-1.893-1.244-2.857Z" transform="translate(-640.592 -1177.593)" fill="#699ebf"/>
      </g>
      <g id="Group_149" data-name="Group 149" transform="translate(507.419 466.112)">
        <path id="Path_372" data-name="Path 372" d="M659.9,1066.2a1.511,1.511,0,0,0-.9.038,3.331,3.331,0,0,0-.8.425,6.2,6.2,0,0,0-1.274,1.319l-.141.183-.13.192-.26.384c-.164.265-.316.528-.487.8l-.263.4-.134.2c-.046.065-.1.125-.145.188-.2.248-.392.5-.6.736-.833.948-1.741,1.816-2.625,2.7-.446.441-.885.887-1.326,1.333s-.878.9-1.325,1.335q-1.321,1.339-2.693,2.627c-.913.86-1.833,1.711-2.771,2.544s-1.9,1.642-2.856,2.447c-.238.2-.483.4-.726.6a2.839,2.839,0,0,0-.649.628,1.832,1.832,0,0,0-.3.836,1.885,1.885,0,0,0,.138.9l-.036.017a1.889,1.889,0,0,1,.028-1.859,1.849,1.849,0,0,1,.3-.393c.118-.119.231-.216.347-.325l.692-.636,2.778-2.529,5.6-5.012c.93-.839,1.839-1.7,2.71-2.6.428-.456.857-.912,1.261-1.39.2-.238.413-.469.611-.711l.591-.725c.2-.241.375-.495.569-.737.047-.062.1-.122.141-.185l.126-.192.256-.381c.171-.259.337-.535.507-.8l.279-.386.14-.193.152-.184a6.038,6.038,0,0,1,1.4-1.3,3.021,3.021,0,0,1,.885-.382,1.492,1.492,0,0,1,.95.057Z" transform="translate(-639.363 -1066.057)" fill="#699ebf"/>
      </g>
      <g id="Group_150" data-name="Group 150" transform="translate(525.041 481.383)">
        <path id="Path_373" data-name="Path 373" d="M745.236,1147.335a18.3,18.3,0,0,1-1.953,4.35,28.148,28.148,0,0,1-2.812,3.871l-.812.88c-.137.145-.268.3-.411.435l-.43.417c-.29.274-.573.556-.868.823l-.91.776-.456.386-.477.36-.958.714c-.158.121-.326.228-.494.336l-.5.324q-.5.327-1,.641c.621-.5,1.269-.954,1.881-1.457l.911-.761.457-.378.437-.4.876-.8c.286-.272.559-.557.839-.835l.42-.417c.14-.139.268-.29.4-.434l.8-.875a35,35,0,0,0,2.849-3.773l.321-.5.3-.508c.209-.336.4-.683.584-1.031A18.569,18.569,0,0,0,745.236,1147.335Z" transform="translate(-733.151 -1147.335)" fill="#699ebf"/>
      </g>
      <g id="Group_151" data-name="Group 151" transform="translate(553.081 492.463)">
        <path id="Path_374" data-name="Path 374" d="M904.285,1214.943a1.445,1.445,0,0,0-.031-.727,1.346,1.346,0,0,0-.662-.794,1.777,1.777,0,0,0-.331-.124l-.727-.216c-.968-.294-1.933-.6-2.887-.933s-1.9-.711-2.852-1.04-1.926-.62-2.9-.9-1.943-.566-2.908-.87-1.932-.6-2.892-.92c-1.917-.645-3.824-1.322-5.708-2.071l.012-.037c1.962.51,3.9,1.092,5.828,1.7.963.31,1.919.64,2.876.968s1.91.667,2.86,1.018,1.9.686,2.87.986,1.945.56,2.915.848,1.926.62,2.88.955l.715.256a1.993,1.993,0,0,1,.368.166,1.6,1.6,0,0,1,.315.261,1.452,1.452,0,0,1,.3,1.482Z" transform="translate(-882.389 -1206.309)" fill="#699ebf"/>
      </g>
      <g id="Group_152" data-name="Group 152" transform="translate(550.287 501.098)">
        <path id="Path_375" data-name="Path 375" d="M867.521,1265.372q4.076-.57,8.175-.887c1.367-.1,2.737-.161,4.1-.27s2.729-.257,4.09-.415,2.733-.312,4.077-.45a1.215,1.215,0,0,0,.754-.43,1.168,1.168,0,0,0,.213-.383c.047-.146.1-.324.142-.485.19-.658.39-1.314.586-1.97.807-2.619,1.639-5.231,2.548-7.82l.038.011c-.667,2.661-1.411,5.3-2.18,7.93-.2.656-.391,1.313-.6,1.967-.053.167-.1.319-.157.5a1.57,1.57,0,0,1-.293.5,1.6,1.6,0,0,1-1,.547c-1.385.12-2.738.209-4.111.3s-2.734.191-4.1.326-2.723.32-4.085.472q-4.089.42-8.2.6Z" transform="translate(-867.521 -1252.263)" fill="#699ebf"/>
      </g>
      <g id="Group_153" data-name="Group 153" transform="translate(543.816 508.207)">
        <path id="Path_376" data-name="Path 376" d="M833.077,1290.1c.576.485,1.125,1,1.662,1.52s1.062,1.057,1.582,1.6,1.024,1.093,1.517,1.658c.123.142.249.281.369.425s.244.3.362.417a1.439,1.439,0,0,0,.981.4,1.394,1.394,0,0,1-1.1-.259c-.3-.258-.557-.512-.83-.774-.54-.52-1.063-1.056-1.583-1.6s-1.025-1.093-1.518-1.657S833.534,1290.7,833.077,1290.1Z" transform="translate(-833.077 -1290.104)" fill="#699ebf"/>
      </g>
      <g id="Group_154" data-name="Group 154" transform="translate(561.854 512.376)">
        <path id="Path_377" data-name="Path 377" d="M929.087,1345.733a2.9,2.9,0,0,0,.964-.481,2.843,2.843,0,0,0,.7-.793,2.813,2.813,0,0,0,.353-.993l.208-1.081c.286-1.439.581-2.876.911-4.306s.7-2.851,1.021-4.282.6-2.871.878-4.312.549-2.883.845-4.32.585-2.875.9-4.309c.634-2.865,1.294-5.724,2.032-8.566l.039.009c-.491,2.9-1.061,5.774-1.655,8.647-.3,1.435-.626,2.866-.946,4.3s-.654,2.86-1,4.287-.669,2.857-.965,4.294-.544,2.884-.823,4.324-.6,2.871-.933,4.3l-.253,1.071a3.619,3.619,0,0,1-.166.544,3.072,3.072,0,0,1-.267.5,2.8,2.8,0,0,1-1.835,1.2Z" transform="translate(-929.087 -1312.291)" fill="#699ebf"/>
      </g>
      <g id="Group_155" data-name="Group 155" transform="translate(536.875 537.604)">
        <path id="Path_378" data-name="Path 378" d="M796.17,1446.561q2.535,2.882,4.87,5.923c.77,1.02,1.517,2.058,2.3,3.07.391.5.79,1.011,1.2,1.492a2.647,2.647,0,0,0,2.535.766l.928-.229,1.864-.449c1.244-.293,2.487-.59,3.735-.865,2.5-.541,5-1.056,7.522-1.493l.009.039c-2.466.683-4.949,1.289-7.438,1.869-1.245.286-2.5.549-3.745.816l-1.876.392c-.314.065-.623.13-.943.187a2.923,2.923,0,0,1-1.927-.326,3.185,3.185,0,0,1-.766-.612l-1.193-1.506c-.8-.993-1.642-1.959-2.457-2.944q-2.416-2.976-4.642-6.1Z" transform="translate(-796.139 -1446.561)" fill="#699ebf"/>
      </g>
      <g id="Group_156" data-name="Group 156" transform="translate(561.584 538.951)">
        <path id="Path_379" data-name="Path 379" d="M945.85,1453.746q-.556,1.682-1.137,3.356c-.191.559-.4,1.113-.6,1.668s-.4,1.11-.612,1.662c-.833,2.21-1.689,4.412-2.6,6.591s-1.877,4.334-2.781,6.515c-.919,2.175-1.788,4.37-2.625,6.577-.427,1.1-.812,2.216-1.229,3.319-.21.551-.4,1.11-.594,1.666l-.591,1.667c-.379,1.116-.742,2.238-1.112,3.357-.335,1.13-.7,2.25-1.033,3.381-.313,1.136-.637,2.269-.94,3.408l-.433,1.714-.217.857c-.074.285-.144.572-.2.86-.247,1.152-.526,2.3-.766,3.454l-.688,3.473-.039-.006a95.477,95.477,0,0,1,2.892-13.874c.158-.57.341-1.133.51-1.7l.522-1.7c.383-1.118.761-2.239,1.153-3.354.411-1.108.811-2.22,1.242-3.321l.654-1.647c.218-.549.439-1.1.668-1.641.9-2.185,1.819-4.359,2.7-6.55l.664-1.641.648-1.648,1.292-3.3,1.312-3.288c.438-1.1.889-2.186,1.311-3.288l2.594-6.589Z" transform="translate(-927.649 -1453.733)" fill="#699ebf"/>
      </g>
      <g id="Group_157" data-name="Group 157" transform="translate(680.673 480.25)">
        <path id="Path_380" data-name="Path 380" d="M1563.754,1141.305a14.3,14.3,0,0,0-.685,1.853l-.143.472-.126.476c-.09.316-.156.638-.231.957a31.8,31.8,0,0,0-.59,3.889l-.075.982c-.032.327-.024.656-.041.984s-.037.656-.027.985l0,.986c-.008.329.014.658.026.987l.037.988c.033.659.1,1.315.13,1.978-.06-.325-.117-.651-.169-.978s-.114-.653-.156-.982l-.1-.989c-.035-.33-.067-.66-.077-.992-.034-.663-.061-1.327-.043-1.991.009-.332,0-.665.029-1l.067-1a24.027,24.027,0,0,1,.686-3.927A14.486,14.486,0,0,1,1563.754,1141.305Z" transform="translate(-1561.481 -1141.305)" fill="#699ebf"/>
      </g>
      <g id="Group_158" data-name="Group 158" transform="translate(675.053 460.713)">
        <path id="Path_381" data-name="Path 381" d="M1541.9,1037.328c-.959.129-1.906.3-2.84.52a22.231,22.231,0,0,0-2.746.819,14.248,14.248,0,0,0-2.564,1.243,11.526,11.526,0,0,0-1.154.841,10.506,10.506,0,0,0-1.024,1.013,7.043,7.043,0,0,1,.89-1.156,8.954,8.954,0,0,1,1.114-.956,11.031,11.031,0,0,1,1.255-.765,14.188,14.188,0,0,1,1.343-.593,15.708,15.708,0,0,1,2.824-.75A14.426,14.426,0,0,1,1541.9,1037.328Z" transform="translate(-1531.57 -1037.321)" fill="#699ebf"/>
      </g>
      <g id="Group_159" data-name="Group 159" transform="translate(688.722 549.741)">
        <path id="Path_382" data-name="Path 382" d="M1604.322,1543.906c2.121-2.315,4.344-4.526,6.446-6.842a41.639,41.639,0,0,0,3.023-3.588,24.97,24.97,0,0,0,2.4-4.023,26.2,26.2,0,0,0,1.605-4.383,24.944,24.944,0,0,0,.753-4.595,28.165,28.165,0,0,0-.038-4.666,44.827,44.827,0,0,0-.678-4.641l.039-.009a27.745,27.745,0,0,1,1.1,9.346,22.443,22.443,0,0,1-2.586,9.046,36.459,36.459,0,0,1-2.492,4c-.9,1.285-1.857,2.538-2.88,3.732s-2.125,2.317-3.243,3.418-2.263,2.174-3.422,3.232Z" transform="translate(-1604.322 -1511.16)" fill="#699ebf"/>
      </g>
      <g id="Group_160" data-name="Group 160" transform="translate(635.871 538.953)">
        <path id="Path_383" data-name="Path 383" d="M1349.233,1507.289q-.979-1.6-1.935-3.213l-1.978-3.185-2.017-3.16c-.688-1.044-1.35-2.1-2.03-3.153-1.345-2.108-2.666-4.234-4-6.351-.658-1.064-1.335-2.116-1.979-3.188q-.487-.8-.983-1.6l-.947-1.621c-.312-.542-.642-1.075-.94-1.626l-.89-1.654c-.61-1.095-1.139-2.231-1.684-3.359-.565-1.119-1.029-2.285-1.533-3.433-.521-1.142-.918-2.332-1.363-3.5a94.111,94.111,0,0,1-3.926-14.488l.039-.008.926,3.635.226.909c.077.3.173.6.258.9l.524,1.8.518,1.8.594,1.776.586,1.778c.049.148.1.3.147.444l.165.438.329.876c.443,1.166.859,2.343,1.361,3.486s.938,2.313,1.489,3.434c.534,1.128,1.038,2.271,1.625,3.373l.849,1.67c.281.558.6,1.1.891,1.648l.9,1.642q.472.81.955,1.613c.324.535.635,1.077.968,1.605s.672,1.054,1.007,1.582c.664,1.059,1.368,2.093,2.064,3.132l2.1,3.113a140.761,140.761,0,0,1,7.719,12.872Z" transform="translate(-1323.029 -1453.746)" fill="#699ebf"/>
      </g>
      <g id="Group_161" data-name="Group 161" transform="translate(667.877 565.098)">
        <path id="Path_384" data-name="Path 384" d="M1501.99,1620.284a6.95,6.95,0,0,1-1.25-1.331c-.368-.489-.7-1-1.022-1.521a34.146,34.146,0,0,1-1.7-3.245,52.06,52.06,0,0,1-2.561-6.857,53.211,53.211,0,0,1-1.6-7.143c-.179-1.207-.323-2.42-.4-3.638s-.11-2.437-.069-3.654a52.827,52.827,0,0,0,.776,7.242c.21,1.2.45,2.385.736,3.564s.588,2.354.935,3.516a61.873,61.873,0,0,0,2.462,6.844c.483,1.112,1,2.21,1.583,3.275.295.529.6,1.055.939,1.557A7.694,7.694,0,0,0,1501.99,1620.284Z" transform="translate(-1493.376 -1592.894)" fill="#699ebf"/>
      </g>
      <g id="Group_162" data-name="Group 162" transform="translate(546.128 563.304)">
        <path id="Path_385" data-name="Path 385" d="M845.882,1612.541a32.026,32.026,0,0,1-.466-7.313c.087-2.448.349-4.883.635-7.309s.612-4.844.847-7.27a49.973,49.973,0,0,0,.249-7.3,38.978,38.978,0,0,1,.061,7.329c-.173,2.441-.475,4.868-.761,7.291s-.571,4.845-.721,7.276A38.876,38.876,0,0,0,845.882,1612.541Z" transform="translate(-845.385 -1583.346)" fill="#699ebf"/>
      </g>
      <g id="Group_163" data-name="Group 163" transform="translate(487.662 487.077)">
        <path id="Path_386" data-name="Path 386" d="M534.208,1192.961a35.617,35.617,0,0,1,5.008-3.923c1.773-1.172,3.629-2.207,5.455-3.272a41.293,41.293,0,0,0,5.27-3.487,21.107,21.107,0,0,0,4.273-4.639q-.421.673-.853,1.344c-.315.427-.644.845-.967,1.27-.354.4-.717.788-1.078,1.18-.39.362-.775.732-1.176,1.084a35.534,35.534,0,0,1-5.269,3.592c-1.837,1.063-3.692,2.078-5.489,3.19A48.362,48.362,0,0,0,534.208,1192.961Z" transform="translate(-534.208 -1177.64)" fill="#699ebf"/>
      </g>
      <g id="Group_164" data-name="Group 164" transform="translate(685.911 584.572)">
        <path id="Path_387" data-name="Path 387" d="M1590.165,1696.563a7.724,7.724,0,0,0-.417.873,2.355,2.355,0,0,0-.177.911.869.869,0,0,0,.434.707,2.5,2.5,0,0,0,.864.294,10.557,10.557,0,0,0,1.909.106c.644-.012,1.291-.042,1.938-.073,1.3-.059,2.595-.121,3.891-.213l3.888-.316c1.3-.1,2.6-.17,3.9-.173s2.61.034,3.911.16a25.842,25.842,0,0,1,7.588,1.826l-.014.037a35.017,35.017,0,0,0-7.613-1.44q-1.931-.17-3.875-.208c-1.295-.02-2.592-.012-3.89.016s-2.595.107-3.889.227-2.582.3-3.88.415c-.649.055-1.3.094-1.956.1a9.486,9.486,0,0,1-1.973-.156,2.557,2.557,0,0,1-.951-.379,1.111,1.111,0,0,1-.5-.916,2.284,2.284,0,0,1,.261-.972,5.888,5.888,0,0,1,.508-.841Z" transform="translate(-1589.362 -1696.542)" fill="#699ebf"/>
      </g>
      <g id="Group_165" data-name="Group 165" transform="translate(637.084 500.825)">
        <path id="Path_388" data-name="Path 388" d="M1333.623,1270.178a2.387,2.387,0,0,1-1.394-.99,2.575,2.575,0,0,1-.211-.388,3.343,3.343,0,0,1-.14-.417l-.229-.826c-.3-1.1-.611-2.2-.9-3.31l-.878-3.316-.217-.83c-.034-.141-.071-.273-.1-.42a2.409,2.409,0,0,1-.058-.46,2.272,2.272,0,0,1,.681-1.669,2.188,2.188,0,0,1,.774-.49c.073-.023.145-.049.219-.069l.224-.047.424-.066,1.7-.262,1.7-.261,1.693-.277c2.258-.366,4.507-.781,6.756-1.2s4.5-.839,6.749-1.236,4.5-.8,6.759-1.177,4.512-.749,6.771-1.11c1.13-.181,2.258-.352,3.393-.524a2.156,2.156,0,0,1,2.441,1.991l-.04,0a2.063,2.063,0,0,0-.813-1.419,2.032,2.032,0,0,0-1.558-.376l-3.37.631c-2.25.411-4.5.824-6.754,1.208-2.252.4-4.509.77-6.766,1.141s-4.515.734-6.776,1.082-4.519.713-6.769,1.12l-1.688.3-1.686.319-1.686.318-.422.079-.194.047c-.064.02-.125.045-.188.066a2,2,0,0,0-.653.438,1.934,1.934,0,0,0-.565,1.425,2.071,2.071,0,0,0,.054.389c.03.132.071.275.106.411l.211.831.835,3.327c.279,1.109.539,2.223.81,3.334l.2.834a2.424,2.424,0,0,0,.294.776,2.369,2.369,0,0,0,1.29,1.024Z" transform="translate(-1329.488 -1250.814)" fill="#699ebf"/>
      </g>
      <g id="Group_166" data-name="Group 166" transform="translate(641.22 502.837)">
        <path id="Path_389" data-name="Path 389" d="M1387.638,1261.521c.26,2.127.483,4.257.7,6.389l.152,1.6.038.4a2.609,2.609,0,0,1,.006.428,2.518,2.518,0,0,1-.2.833,2.476,2.476,0,0,1-.471.718,2.577,2.577,0,0,1-.322.286l-.327.238-1.3.941-2.625,1.852-1.314.925-1.3.938c-1.741,1.248-3.453,2.534-5.163,3.825l-2.565,1.936-1.286.962a2.544,2.544,0,0,1-2.046.462c-.146-.031-.274-.07-.4-.105l-.773-.217-1.546-.434c-1.032-.288-2.057-.594-3.087-.89q-6.172-1.785-12.3-3.732l.011-.038q6.226,1.6,12.4,3.375c1.029.3,2.061.582,3.088.886l1.541.454.77.227a2.758,2.758,0,0,0,.74.152,2.206,2.206,0,0,0,1.394-.422l1.307-.934,2.623-1.857c1.748-1.238,3.493-2.48,5.21-3.76l1.289-.958,1.279-.971,2.562-1.94,1.291-.955.32-.238a2.244,2.244,0,0,0,.275-.249,2.292,2.292,0,0,0,.411-.615,2.174,2.174,0,0,0,.184-.718,2.29,2.29,0,0,0,0-.374l-.032-.4-.13-1.6c-.163-2.136-.316-4.272-.431-6.412Z" transform="translate(-1351.497 -1261.521)" fill="#699ebf"/>
      </g>
      <g id="Group_167" data-name="Group 167" transform="translate(668.744 513.113)">
        <path id="Path_390" data-name="Path 390" d="M1497.991,1359.614c1.531-1.292,3.087-2.552,4.646-3.808l2.351-1.868c.387-.314.8-.614,1.159-.933a6.3,6.3,0,0,0,.959-1.1,6.112,6.112,0,0,0,1.042-2.714,8.71,8.71,0,0,0,.033-1.484l-.056-1.5c-.086-2-.206-4-.338-6s-.262-4-.371-5.995-.226-4-.318-6c-.176-4-.325-8-.395-12.006l.04,0c.322,3.993.563,7.99.779,11.988.1,2,.184,4,.268,6s.156,4,.215,6,.14,4,.249,6l.091,1.5a8.926,8.926,0,0,1,.024,1.515,6.312,6.312,0,0,1-.987,2.875,6.11,6.11,0,0,1-1,1.173c-.388.348-.786.637-1.181.948l-2.378,1.833c-1.594,1.212-3.19,2.42-4.811,3.6Z" transform="translate(-1497.991 -1316.215)" fill="#699ebf"/>
      </g>
      <g id="Group_168" data-name="Group 168" transform="translate(640.845 520.063)">
        <path id="Path_391" data-name="Path 391" d="M1349.543,1353.207c.486,2.308.934,4.623,1.373,6.94l.643,3.478c.217,1.159.407,2.323.611,3.484l.568,3.491.282,1.746.3,1.743c.394,2.325.836,4.641,1.282,6.957l.337,1.736c.119.577.206,1.167.366,1.713a6.059,6.059,0,0,0,4.914,4.256c1.166.175,2.329.369,3.493.553,2.33.365,4.655.758,6.98,1.15l1.743.3a7.8,7.8,0,0,0,.863.114,6.525,6.525,0,0,0,.868-.006,6.257,6.257,0,0,0,3.239-1.207l.025.031a6.245,6.245,0,0,1-3.244,1.376,6.69,6.69,0,0,1-.9.036,7.961,7.961,0,0,1-.893-.088l-1.751-.25c-2.333-.342-4.667-.683-7-1.052-1.165-.184-2.331-.357-3.494-.549a6.477,6.477,0,0,1-3.254-1.537,6.212,6.212,0,0,1-1.9-3.041c-.16-.589-.23-1.172-.33-1.752l-.284-1.746c-.382-2.327-.769-4.653-1.2-6.971l-.323-1.739-.339-1.736-.674-3.472c-.209-1.16-.433-2.317-.631-3.48l-.6-3.485c-.389-2.326-.77-4.653-1.112-6.987Z" transform="translate(-1349.504 -1353.207)" fill="#699ebf"/>
      </g>
      <g id="Group_169" data-name="Group 169" transform="translate(629.201 462.303)">
        <path id="Path_392" data-name="Path 392" d="M1287.548,1045.785a7.9,7.9,0,0,1,1.316.7,10.309,10.309,0,0,1,1.181.917,11.961,11.961,0,0,1,1.936,2.273,20.474,20.474,0,0,1,1.387,2.631,12.306,12.306,0,0,0,.691,1.3c.065.1.127.21.194.312l.218.3c.073.1.144.2.219.294l.238.278a8.642,8.642,0,0,0,2.222,1.846,8.068,8.068,0,0,0,2.707.939,10.64,10.64,0,0,0,2.891.067,13.1,13.1,0,0,0,2.86-.635l.017.036a10.33,10.33,0,0,1-2.833.909,9.489,9.489,0,0,1-3,.042,7.751,7.751,0,0,1-1.467-.376,7.515,7.515,0,0,1-.7-.3,7.031,7.031,0,0,1-.666-.361,7.739,7.739,0,0,1-2.2-2.031,15.757,15.757,0,0,1-1.507-2.56,16.934,16.934,0,0,0-1.543-2.5,18.423,18.423,0,0,0-1.875-2.236,12.084,12.084,0,0,0-2.3-1.8Z" transform="translate(-1287.53 -1045.785)" fill="#699ebf"/>
      </g>
      <g id="Group_170" data-name="Group 170" transform="translate(620.904 462.138)">
        <path id="Path_393" data-name="Path 393" d="M1243.37,1066.085a58.394,58.394,0,0,1,1.117-5.818c.458-1.923,1-3.825,1.6-5.708s1.289-3.739,2.047-5.565c.194-.455.381-.912.58-1.364l.621-1.346.158-.335.079-.168c.032-.056.06-.115.1-.169a1.553,1.553,0,0,1,1.288-.709,1.546,1.546,0,0,1,.717.183,1.5,1.5,0,0,0-1.392.1,1.451,1.451,0,0,0-.485.507c-.03.05-.052.105-.078.157l-.069.172-.137.343-.559,1.368-.532,1.378c-.7,1.842-1.362,3.695-1.956,5.572s-1.162,3.762-1.681,5.662S1243.786,1064.155,1243.37,1066.085Z" transform="translate(-1243.37 -1044.904)" fill="#699ebf"/>
      </g>
      <g id="Group_171" data-name="Group 171" transform="translate(657.667 518.479)">
        <circle id="Ellipse_14" data-name="Ellipse 14" cx="1.991" cy="1.991" r="1.991" fill="#fff"/>
      </g>
      <g id="Group_172" data-name="Group 172" transform="translate(622.907 480.25)" opacity="0.8" style="mix-blend-mode: screen;isolation: isolate">
        <circle id="Ellipse_15" data-name="Ellipse 15" cx="1.991" cy="1.991" r="1.991" transform="translate(0 0)" fill="#fff"/>
      </g>
      <g id="Group_173" data-name="Group 173" transform="translate(624.898 511.797)" opacity="0.8" style="mix-blend-mode: screen;isolation: isolate">
        <circle id="Ellipse_16" data-name="Ellipse 16" cx="1.991" cy="1.991" r="1.991" fill="#fff"/>
      </g>
      <g id="Group_174" data-name="Group 174" transform="translate(549.375 508.555)">
        <circle id="Ellipse_17" data-name="Ellipse 17" cx="1.991" cy="1.991" r="1.991" fill="#fff"/>
      </g>
      <g id="Group_175" data-name="Group 175" transform="translate(525.041 483.318)">
        <circle id="Ellipse_18" data-name="Ellipse 18" cx="1.991" cy="1.991" r="1.991" transform="translate(0 0)" fill="#fff"/>
      </g>
      <g id="Group_176" data-name="Group 176" transform="translate(628.943 551.285)" opacity="0.8" style="mix-blend-mode: screen;isolation: isolate">
        <circle id="Ellipse_19" data-name="Ellipse 19" cx="1.991" cy="1.991" r="1.991" transform="translate(0 0)" fill="#fff"/>
      </g>
      <g id="Group_177" data-name="Group 177" transform="translate(630.933 586.277)" opacity="0.8" style="mix-blend-mode: screen;isolation: isolate">
        <circle id="Ellipse_20" data-name="Ellipse 20" cx="1.991" cy="1.991" r="1.991" transform="translate(0 0)" fill="#fff"/>
      </g>
      <g id="Group_178" data-name="Group 178" transform="translate(586.853 480.653)" opacity="0.8" style="mix-blend-mode: screen;isolation: isolate">
        <path id="Path_394" data-name="Path 394" d="M1066.348,1144.447h-3.712a.5.5,0,1,1,0-.995h3.712a.5.5,0,0,1,0,.995Z" transform="translate(-1062.138 -1143.452)" fill="#fff"/>
      </g>
      <g id="Group_179" data-name="Group 179" transform="translate(584.997 512.797)" opacity="0.8" style="mix-blend-mode: screen;isolation: isolate">
        <path id="Path_395" data-name="Path 395" d="M1056.469,1315.525h-3.712a.5.5,0,1,1,0-1h3.712a.5.5,0,1,1,0,1Z" transform="translate(-1052.259 -1314.53)" fill="#fff"/>
      </g>
      <g id="Group_180" data-name="Group 180" transform="translate(579.59 550.787)" opacity="0.8" style="mix-blend-mode: screen;isolation: isolate">
        <path id="Path_396" data-name="Path 396" d="M1027.692,1517.726h-3.712a.5.5,0,0,1,0-.995h3.712a.5.5,0,1,1,0,.995Z" transform="translate(-1023.482 -1516.731)" fill="#fff"/>
      </g>
      <g id="Group_181" data-name="Group 181" transform="translate(572.868 588.801)" opacity="0.8" style="mix-blend-mode: screen;isolation: isolate">
        <path id="Path_397" data-name="Path 397" d="M991.916,1720.049H988.2a.5.5,0,1,1,0-.995h3.712a.5.5,0,1,1,0,.995Z" transform="translate(-987.706 -1719.054)" fill="#fff"/>
      </g>
      <g id="Group_182" data-name="Group 182" transform="translate(518.348 462.495)">
        <path id="Path_398" data-name="Path 398" d="M697.527,1048.622a5.523,5.523,0,0,1,1.175-.923,6.87,6.87,0,0,1,1.367-.63,5.506,5.506,0,0,1,1.491-.262,3.848,3.848,0,0,1,1.48.251,8.2,8.2,0,0,0-1.455.058c-.119.013-.236.045-.353.062l-.176.031-.174.045c-.115.031-.233.051-.348.087l-.343.106a13.509,13.509,0,0,0-1.345.525C698.4,1048.174,697.967,1048.39,697.527,1048.622Z" transform="translate(-697.527 -1046.806)" fill="#699ebf"/>
      </g>
      <g id="Group_183" data-name="Group 183" transform="translate(518.171 467.198)">
        <path id="Path_399" data-name="Path 399" d="M696.588,1080.373a16.591,16.591,0,0,0,1.409-2.038,7.583,7.583,0,0,0,.891-2.248,3.93,3.93,0,0,0-.2-2.335,4.324,4.324,0,0,0-.625-1.031,7.845,7.845,0,0,0-.864-.887,5.3,5.3,0,0,1,1.009.755,3.947,3.947,0,0,1,.762,1.031,3.648,3.648,0,0,1,.374,1.245,4.394,4.394,0,0,1-.06,1.3,6.605,6.605,0,0,1-1.018,2.334A9.107,9.107,0,0,1,696.588,1080.373Z" transform="translate(-696.588 -1071.835)" fill="#699ebf"/>
      </g>
      <g id="Group_184" data-name="Group 184" transform="translate(501.345 480.973)">
        <path id="Path_400" data-name="Path 400" d="M607.032,1153.854q1.139-1.048,2.252-2.11c.741-.711,1.481-1.421,2.2-2.15s1.444-1.457,2.153-2.2l2.122-2.241a29.21,29.21,0,0,1-1.892,2.449c-.329.4-.682.775-1.027,1.159s-.71.749-1.075,1.114c-.732.728-1.489,1.431-2.276,2.1A25.844,25.844,0,0,1,607.032,1153.854Z" transform="translate(-607.032 -1145.155)" fill="#699ebf"/>
      </g>
      <g id="Group_185" data-name="Group 185" transform="translate(581.237 446.177)">
        <path id="Path_401" data-name="Path 401" d="M1032.247,959.958a17.176,17.176,0,0,0,1.945,2.318c.346.368.724.7,1.088,1.051.383.329.752.672,1.15.982a35.288,35.288,0,0,0,4.974,3.424,37.367,37.367,0,0,0,11.244,4.256,33.78,33.78,0,0,0,12,.25,36.36,36.36,0,0,0,5.854-1.476,43.121,43.121,0,0,0,5.563-2.389l-1.337.718c-.224.117-.445.241-.672.353l-.69.318-.69.318c-.231.1-.457.22-.695.307l-1.414.559a36.391,36.391,0,0,1-5.869,1.595,33.4,33.4,0,0,1-12.13-.163A36.82,36.82,0,0,1,1041.251,968a35.221,35.221,0,0,1-4.946-3.538c-.39-.324-.752-.68-1.127-1.022-.357-.36-.726-.708-1.062-1.088A15.778,15.778,0,0,1,1032.247,959.958Z" transform="translate(-1032.247 -959.958)" fill="#1b1a2e"/>
      </g>
      <g id="Group_186" data-name="Group 186" transform="translate(579.765 533.816)">
        <path id="Path_402" data-name="Path 402" d="M1066.248,1426.407q-.35,4.891-1.018,9.755c-.116.81-.226,1.62-.364,2.426s-.25,1.617-.406,2.42-.292,1.61-.465,2.41-.341,1.6-.524,2.4l-.6,2.381-.664,2.363-.734,2.342-.794,2.322a61.125,61.125,0,0,1-4,8.954,39.252,39.252,0,0,1-5.749,7.955,32.727,32.727,0,0,1-7.7,6.1l-1.083.588-.542.294c-.178.1-.371.177-.555.266l-1.119.517-.561.255-.575.219-1.151.438c-.193.07-.381.153-.578.212l-.588.183c-.785.237-1.559.513-2.361.69a48.537,48.537,0,0,1-9.7,1.429l0-.04a53.637,53.637,0,0,0,9.624-1.69,38.863,38.863,0,0,0,8.989-3.717c.089-.05.179-.1.266-.148l.257-.163.515-.326,1.029-.652.985-.716.493-.357c.165-.118.332-.235.485-.368a35.009,35.009,0,0,0,3.6-3.274,41.645,41.645,0,0,0,5.831-7.8,50.788,50.788,0,0,0,4.059-8.893l.768-2.325.677-2.352.607-2.371.546-2.386a190.31,190.31,0,0,0,3.059-19.34Z" transform="translate(-1024.415 -1426.403)" fill="#1b1a2e"/>
      </g>
      <g id="Group_187" data-name="Group 187" transform="translate(596.207 489.673)">
        <path id="Path_403" data-name="Path 403" d="M1111.925,1191.457c.777,1.209,1.493,2.458,2.182,3.721s1.353,2.539,1.981,3.834q1.892,3.88,3.468,7.905c1.063,2.676,1.994,5.4,2.831,8.158s1.573,5.541,2.194,8.354c.6,2.818,1.1,5.656,1.468,8.513.1.713.163,1.431.245,2.146l.119,1.073.086,1.076c.055.718.118,1.435.165,2.154l.089,2.158a84.482,84.482,0,0,1-1.136,17.2c.366-2.851.715-5.706.813-8.578.1-1.433.089-2.87.121-4.3.006-.718-.022-1.435-.032-2.153l-.021-1.076c0-.359-.035-.717-.05-1.075l-.116-2.15-.175-2.145-.09-1.072-.123-1.069c-.085-.712-.156-1.427-.253-2.137-.383-2.844-.894-5.669-1.5-8.475a115.19,115.19,0,0,0-4.921-16.487q-1.526-4.027-3.359-7.931C1114.7,1196.492,1113.394,1193.929,1111.925,1191.457Z" transform="translate(-1111.925 -1191.457)" fill="#1b1a2e"/>
      </g>
      <g id="Group_188" data-name="Group 188" transform="translate(527.961 368.427)">
        <path id="Path_404" data-name="Path 404" d="M748.691,643.953s.173,9.078,7.719,14.255a2.126,2.126,0,0,1,.747,2.571l-.6,1.44s9.621,3.9,15.991-1.885c0,0,5.469-25.692,22.594-35.446,9.6-5.471,15.163-9.9,18.338-13.01a14.41,14.41,0,0,0,4.205-8.738,20.442,20.442,0,0,1,1.851-6.815,3.952,3.952,0,0,0-3.135-5.762c-.084-.006-.169-.012-.255-.015a7.752,7.752,0,0,1-4.365-1.521,1.85,1.85,0,0,0-2.918,1.183,7.918,7.918,0,0,0,1.858,6.242,13.02,13.02,0,0,0-.828,4.443,22.838,22.838,0,0,1-6.017-9.961c-.78-3.089-1.095-12.7-1.095-12.7l.628-8.854,2.135-6.97s3.391-3.453,2.2-7.912a7.358,7.358,0,0,0,.449-3.919,2.24,2.24,0,0,0-3.613-1.346l-4.736,3.811-2.6,3.449s3.437-5.117,2.263-8.982a1.926,1.926,0,0,0-3.5-.423l-3.656,6.225a4.493,4.493,0,0,0-.813-1.243,1.923,1.923,0,0,0-3.318.987,30.12,30.12,0,0,1-2.2,7.969l-2.262,6.5a28.075,28.075,0,0,0-1.2,4.806,42.06,42.06,0,0,1-2.563,9.809,28.872,28.872,0,0,0-1.712,4.557c-1.294,4.672-3.363,13.631-3.009,22.143a19.062,19.062,0,0,1-5.136,7.369,23.093,23.093,0,0,0-4.827,6.283C762.366,628.076,756.42,638,748.691,643.953Z" transform="translate(-748.691 -546.144)" fill="#ffc89f"/>
      </g>
      <g id="Group_189" data-name="Group 189" transform="translate(578.389 376.781)">
        <path id="Path_405" data-name="Path 405" d="M1025.733,590.615a7.953,7.953,0,0,1-.916,1.988,10.355,10.355,0,0,1-1.359,1.729,10.207,10.207,0,0,1-1.692,1.409,9.962,9.962,0,0,1-.946.562c-.323.174-.662.316-.99.474l.052-.053a34.63,34.63,0,0,0-1.7,4.3c-.116.365-.235.736-.33,1.1a8.846,8.846,0,0,0-.2,1.116,9.117,9.117,0,0,0-.052,1.131l.019,1.157c.03,1.544,0,3.089-.069,4.633-.035.772-.083,1.543-.151,2.313s-.147,1.539-.263,2.3l-.04,0c.053-1.543.074-3.082.086-4.623s.015-3.081.04-4.622l.008-1.156a7.86,7.86,0,0,1,.094-1.177,7.521,7.521,0,0,1,.268-1.147c.122-.376.265-.731.4-1.094.568-1.439,1.15-2.865,1.7-4.311l.011-.03.04-.023c.313-.178.635-.339.939-.529s.608-.38.891-.6l.433-.315.415-.338c.143-.107.273-.229.405-.349s.27-.234.391-.366a12.061,12.061,0,0,0,1.4-1.627,9.963,9.963,0,0,0,1.083-1.863Z" transform="translate(-1017.092 -590.603)" fill="#ff9a6c"/>
      </g>
      <g id="Group_190" data-name="Group 190" transform="translate(582.031 376.781)">
        <path id="Path_406" data-name="Path 406" d="M1036.473,614.347c0-1.031.034-2.059.084-3.086s.111-2.054.207-3.077l.164-1.534a12.193,12.193,0,0,1,.27-1.531c.117-.505.284-.994.423-1.488s.274-.991.412-1.487.263-.995.405-1.489c.071-.247.136-.494.215-.746s.171-.5.271-.737a10.362,10.362,0,0,1,.715-1.4c.136-.226.286-.44.421-.648s.261-.43.382-.651a9.33,9.33,0,0,0,1.023-2.827,8.12,8.12,0,0,0-.031-3.03l.038-.01a7.186,7.186,0,0,1,.2.75c.025.127.054.254.075.383l.045.388a7.361,7.361,0,0,1-.019,1.566,8.589,8.589,0,0,1-.96,2.982c-.123.232-.259.456-.4.678l-.427.64a9.995,9.995,0,0,0-.722,1.327,13.733,13.733,0,0,0-.528,1.427c-.159.489-.333.974-.5,1.46s-.335.972-.491,1.462a15.18,15.18,0,0,0-.426,1.477,8.409,8.409,0,0,0-.175,1.518l-.054,1.542c-.05,1.027-.135,2.052-.23,3.076s-.208,2.047-.352,3.067Z" transform="translate(-1036.473 -590.607)" fill="#ff9a6c"/>
      </g>
      <g id="Group_191" data-name="Group 191" transform="translate(583.145 413.218)">
        <path id="Path_407" data-name="Path 407" d="M1049.782,795.831a20.673,20.673,0,0,1-2.5-2.342,25.035,25.035,0,0,1-2.137-2.691,20.122,20.122,0,0,1-1.694-2.994,14.72,14.72,0,0,1-1.044-3.267c.213.532.358,1.081.609,1.593.115.259.211.525.34.778l.375.761c.059.128.128.252.2.374l.205.371c.135.248.27.5.424.733l.442.723.472.7c.637.934,1.323,1.835,2.042,2.711.363.435.729.869,1.109,1.292S1049.388,795.419,1049.782,795.831Z" transform="translate(-1042.405 -784.538)" fill="#ff9a6c"/>
      </g>
      <g id="Group_192" data-name="Group 192" transform="translate(589.064 418.736)">
        <path id="Path_408" data-name="Path 408" d="M1074.833,813.9c-.123.761-.28,1.487-.412,2.222l-.2,1.1c-.07.369-.125.74-.214,1.119a4.951,4.951,0,0,1-.1-1.149,6.778,6.778,0,0,1,.121-1.145,7.058,7.058,0,0,1,.3-1.111A4.793,4.793,0,0,1,1074.833,813.9Z" transform="translate(-1073.907 -813.903)" fill="#ff9a6c"/>
      </g>
      <g id="Group_193" data-name="Group 193" transform="translate(589.991 418.736)">
        <path id="Path_409" data-name="Path 409" d="M1078.837,813.9a13.087,13.087,0,0,0,1.562.89,8.246,8.246,0,0,0,.814.339c.278.107.567.181.867.286a2.585,2.585,0,0,1-.943.015,3.178,3.178,0,0,1-.909-.281,3.379,3.379,0,0,1-.794-.519A2.515,2.515,0,0,1,1078.837,813.9Z" transform="translate(-1078.837 -813.903)" fill="#ff9a6c"/>
      </g>
      <g id="Group_194" data-name="Group 194" transform="translate(587.876 410.744)">
        <path id="Path_410" data-name="Path 410" d="M1072.441,794.774a15.167,15.167,0,0,0,2.764-4.122,15.387,15.387,0,0,0,.839-2.331,17.676,17.676,0,0,0,.468-2.435,23.7,23.7,0,0,1,1.184-4.892q.214-.592.468-1.169c.081-.194.175-.382.264-.572s.168-.377.235-.571a3.955,3.955,0,0,0,.145-.6l.042-.3,0-.307,0-.153-.015-.153-.031-.3c-.02-.1-.044-.2-.066-.3l-.033-.149c-.013-.049-.033-.1-.049-.145l-.1-.287c-.041-.093-.089-.183-.133-.274l-.067-.136c-.024-.044-.054-.086-.081-.128l-.165-.255c-.062-.08-.129-.156-.192-.234l-.1-.116c-.035-.036-.073-.069-.109-.1l-.217-.209-.24-.181-.12-.09c-.042-.027-.087-.05-.13-.075l-.26-.149c-.09-.042-.184-.077-.276-.115a1.531,1.531,0,0,0-.282-.1l-.289-.077a2.525,2.525,0,0,0-.3-.047c-.1-.011-.2-.031-.3-.036l-.31-.017a8.148,8.148,0,0,1-2.509-.508,7.461,7.461,0,0,1-1.161-.557c-.186-.108-.366-.226-.542-.349-.087-.063-.177-.129-.251-.173a1.438,1.438,0,0,0-.243-.132,1.607,1.607,0,0,0-1.086-.071,1.7,1.7,0,0,0-.9.629,2.09,2.09,0,0,0-.355,1.089,6.525,6.525,0,0,0-.028,1.221,7.722,7.722,0,0,0,.578,2.387,11.715,11.715,0,0,0,1.208,2.177l-.032.024a10.434,10.434,0,0,1-1.361-2.12,7.639,7.639,0,0,1-.7-2.441,6.846,6.846,0,0,1-.007-1.284,4.026,4.026,0,0,1,.1-.649,2.5,2.5,0,0,1,.114-.325,2.148,2.148,0,0,1,.173-.3,2.007,2.007,0,0,1,.48-.5,2.189,2.189,0,0,1,.62-.3,2.024,2.024,0,0,1,1.368.072,1.671,1.671,0,0,1,.307.165c.1.065.182.124.264.183.167.117.336.229.512.331a8.043,8.043,0,0,0,1.095.536,7.756,7.756,0,0,0,2.381.522l.316.022c.107.007.216.03.324.044a2.8,2.8,0,0,1,.323.057l.315.093a1.766,1.766,0,0,1,.306.117c.1.045.2.087.3.135l.28.17c.046.029.094.056.139.086l.128.1.255.2.229.232c.038.039.076.077.112.118l.1.129c.065.087.132.172.195.26l.164.279c.027.047.056.092.08.14l.066.148c.043.1.089.2.128.3l.1.308a4.2,4.2,0,0,1-.075,2.521c-.072.2-.165.393-.251.585s-.187.372-.27.563c-.175.378-.318.77-.458,1.162a17.5,17.5,0,0,0-.628,2.417c-.158.818-.27,1.643-.349,2.471a13.972,13.972,0,0,1-1.358,4.86,13.214,13.214,0,0,1-3.015,4.019Z" transform="translate(-1067.581 -771.37)" fill="#ff9a6c"/>
      </g>
      <g id="Group_195" data-name="Group 195" transform="translate(581.951 434.162)">
        <path id="Path_411" data-name="Path 411" d="M1036.049,904.421q1.367-1.04,2.744-2.054c.915-.682,1.828-1.364,2.73-2.06s1.8-1.4,2.688-2.111,1.764-1.445,2.637-2.186a30.555,30.555,0,0,1-2.435,2.422c-.852.766-1.741,1.49-2.648,2.19s-1.839,1.365-2.793,2S1037.045,903.857,1036.049,904.421Z" transform="translate(-1036.049 -896.01)" fill="#ff9a6c"/>
      </g>
      <g id="Group_196" data-name="Group 196" transform="translate(572.477 423.163)">
        <path id="Path_412" data-name="Path 412" d="M985.623,847.7a19.676,19.676,0,0,1,1.625-3.971,13.723,13.723,0,0,1,2.62-3.429,11.164,11.164,0,0,1,1.728-1.316,10.366,10.366,0,0,1,4.063-1.427,12.673,12.673,0,0,1,2.146-.076,13.272,13.272,0,0,0-4.139.866,11.177,11.177,0,0,0-3.527,2.245,15.255,15.255,0,0,0-2.623,3.292A28.928,28.928,0,0,0,985.623,847.7Z" transform="translate(-985.623 -837.465)" fill="#ff9a6c"/>
      </g>
      <g id="Group_197" data-name="Group 197" transform="translate(567.14 443.961)">
        <path id="Path_413" data-name="Path 413" d="M962.626,951.385a6.218,6.218,0,0,1-1.713,0,5.034,5.034,0,0,1-1.661-.52,3.972,3.972,0,0,1-1.332-1.136,4.04,4.04,0,0,1-.7-1.568,6.935,6.935,0,0,0,.943,1.37,4.693,4.693,0,0,0,1.28.983,6.583,6.583,0,0,0,1.533.567C961.508,951.216,962.062,951.3,962.626,951.385Z" transform="translate(-957.216 -948.163)" fill="#ff9a6c"/>
      </g>
      <g id="Group_198" data-name="Group 198" transform="translate(567.122 407.592)">
        <path id="Path_414" data-name="Path 414" d="M960.434,780.4a29.252,29.252,0,0,0,.142-6.507,26.113,26.113,0,0,0-.424-3.238,31.257,31.257,0,0,0-.847-3.163c-.331-1.042-.668-2.082-.971-3.135s-.595-2.112-.807-3.193a17.867,17.867,0,0,1-.176-6.565l.04,0a24.049,24.049,0,0,0,.552,6.477c.22,1.063.474,2.122.752,3.177s.562,2.111.82,3.175.516,2.128.763,3.194.488,2.139.628,3.232a17.679,17.679,0,0,1-.432,6.549Z" transform="translate(-957.124 -754.595)" fill="#ff9a6c"/>
      </g>
      <g id="Group_199" data-name="Group 199" transform="translate(572.604 377.646)">
        <path id="Path_415" data-name="Path 415" d="M990.9,595.226a5,5,0,0,1-.3.713,7.277,7.277,0,0,1-.381.676c-.137.22-.293.429-.428.637a7.211,7.211,0,0,0-.372.652,6.489,6.489,0,0,0-.51,1.4c-.057.245-.1.482-.133.738s-.086.509-.137.762q-.165.757-.4,1.5c-.156.491-.332.975-.522,1.453s-.408.947-.625,1.406a5.771,5.771,0,0,0-.422,1.45,6.54,6.54,0,0,0-.049,1.5c.039.511.076,1.022.1,1.533.058,1.023.109,2.047.125,3.072a40.155,40.155,0,0,1-.316,6.141l-.04,0c.043-2.047-.015-4.087-.069-6.129l-.074-3.064-.044-1.533a6.068,6.068,0,0,1,.15-1.556,6.73,6.73,0,0,1,.513-1.466,12.071,12.071,0,0,0,.627-1.4,15.488,15.488,0,0,0,.713-2.962c.042-.25.075-.5.112-.753a6.287,6.287,0,0,1,.141-.771,5.975,5.975,0,0,1,.58-1.461,5.9,5.9,0,0,1,.425-.659c.156-.214.322-.4.473-.605a8.667,8.667,0,0,0,.82-1.282Z" transform="translate(-986.3 -595.212)" fill="#ff9a6c"/>
      </g>
      <g id="Group_200" data-name="Group 200" transform="translate(568.362 375.594)">
        <path id="Path_416" data-name="Path 416" d="M963.722,610.223l.123-4.4c.017-.731.026-1.463.035-2.193s.016-1.462-.031-2.189l0-.027.008-.019c.237-.554.444-1.124.628-1.7s.345-1.159.481-1.748.243-1.184.329-1.78.142-1.194.158-1.79v-.026l.011-.032c.294-.8.558-1.627.79-2.454.119-.413.233-.828.336-1.245s.207-.833.294-1.253a17.628,17.628,0,0,0,.369-2.539,7.908,7.908,0,0,0-.014-1.279,4.358,4.358,0,0,0-.28-1.248l.036-.017a5.441,5.441,0,0,1,.533,2.552,14.27,14.27,0,0,1-.251,2.609c-.079.429-.171.856-.272,1.28s-.221.843-.346,1.26c-.258.832-.539,1.653-.866,2.465l.012-.057a14.577,14.577,0,0,1-.249,1.82q-.19.9-.436,1.774c-.332,1.17-.69,2.326-1.081,3.481l.006-.046c.1.733.147,1.47.173,2.206s0,1.473-.031,2.208-.087,1.468-.155,2.2-.157,1.462-.27,2.189Z" transform="translate(-963.722 -584.286)" fill="#ff9a6c"/>
      </g>
      <g id="Group_201" data-name="Group 201" transform="translate(567.729 401.542)">
        <path id="Path_417" data-name="Path 417" d="M973.712,724.154a4.262,4.262,0,0,0-1.431-.934,6.677,6.677,0,0,0-1.647-.437c-.282-.045-.568-.072-.856-.1s-.578-.032-.869-.027a7.587,7.587,0,0,0-1.73.235,10.258,10.258,0,0,0-1.641.594c-.541.219-1.084.45-1.651.635a6.914,6.914,0,0,1-1.763.335,5.2,5.2,0,0,1-1.773-.211l.007-.039a8.281,8.281,0,0,0,1.732-.083,11.643,11.643,0,0,0,1.67-.406c.552-.167,1.1-.362,1.662-.547a13.411,13.411,0,0,1,1.727-.414c.579-.111,1.159-.206,1.746-.285a7.1,7.1,0,0,1,1.786-.037,5.249,5.249,0,0,1,1.723.523,3.306,3.306,0,0,1,1.34,1.177Z" transform="translate(-960.352 -722.391)" fill="#ff9a6c"/>
      </g>
      <g id="Group_202" data-name="Group 202" transform="translate(601.826 376.534)">
        <path id="Path_418" data-name="Path 418" d="M1141.939,590.985a7.42,7.42,0,0,0,6.046,8.563l9.02,1.554a4.051,4.051,0,0,0,4.675-3.3l.863-5.01-20.313-3.5Z" transform="translate(-1141.831 -589.292)"/>
        <path id="Path_419" data-name="Path 419" d="M1291.154,624.6l9.02,1.554a7.421,7.421,0,0,0,8.564-6.046l.292-1.693-20.313-3.5-.863,5.01A4.051,4.051,0,0,0,1291.154,624.6Z" transform="translate(-1260.37 -610.103)"/>
      </g>
    </g>
  </g>
</svg>
