<svg xmlns="http://www.w3.org/2000/svg" xmlns:xlink="http://www.w3.org/1999/xlink" width="385" height="258" viewBox="0 0 385 258">
  <defs>
    <linearGradient id="linear-gradient" x1="0.357" y1="-0.142" x2="0.659" y2="1.223" gradientUnits="objectBoundingBox">
      <stop offset="0" stop-color="#dae3fe"/>
      <stop offset="1" stop-color="#e9effd"/>
    </linearGradient>
    <linearGradient id="linear-gradient-2" x1="0.503" y1="-0.381" x2="0.5" y2="0.992" gradientUnits="objectBoundingBox">
      <stop offset="0" stop-color="#ff928e"/>
      <stop offset="1" stop-color="#feb3b1"/>
    </linearGradient>
    <linearGradient id="linear-gradient-3" x1="0.463" y1="-0.187" x2="0.535" y2="0.881" xlink:href="#linear-gradient-2"/>
    <linearGradient id="linear-gradient-4" x1="0.229" y1="-2.269" x2="0.605" y2="1.814" xlink:href="#linear-gradient-2"/>
    <linearGradient id="linear-gradient-5" x1="-10.003" y1="-2.763" x2="-9.627" y2="1.32" xlink:href="#linear-gradient-2"/>
    <linearGradient id="linear-gradient-6" x1="0.5" y1="-9.345" x2="0.5" y2="-4.204" gradientUnits="objectBoundingBox">
      <stop offset="0" stop-color="#09005d"/>
      <stop offset="1" stop-color="#1a0f91"/>
    </linearGradient>
    <linearGradient id="linear-gradient-7" x1="1.282" y1="-9.437" x2="0.94" y2="-5" xlink:href="#linear-gradient-6"/>
    <linearGradient id="linear-gradient-8" x1="0.226" y1="-8.153" x2="0.367" y2="-3.516" xlink:href="#linear-gradient-6"/>
    <linearGradient id="linear-gradient-9" x1="-7.024" y1="-15.215" x2="-6.882" y2="-10.578" xlink:href="#linear-gradient-6"/>
    <linearGradient id="linear-gradient-10" x1="0.014" y1="0.579" x2="1.007" y2="0.379" gradientUnits="objectBoundingBox">
      <stop offset="0" stop-color="#e1473d"/>
      <stop offset="1" stop-color="#e9605a"/>
    </linearGradient>
    <linearGradient id="linear-gradient-11" x1="0" y1="0.5" x2="1" y2="0.5" xlink:href="#linear-gradient"/>
    <linearGradient id="linear-gradient-12" x1="0" y1="0.5" x2="1" y2="0.5" xlink:href="#linear-gradient"/>
    <linearGradient id="linear-gradient-16" x1="-36.376" y1="1.122" x2="-37.903" y2="2.609" gradientUnits="objectBoundingBox">
      <stop offset="0" stop-color="#53d8ff"/>
      <stop offset="1" stop-color="#3840f7"/>
    </linearGradient>
    <linearGradient id="linear-gradient-17" x1="0" y1="0.5" x2="1" y2="0.5" xlink:href="#linear-gradient"/>
    <linearGradient id="linear-gradient-18" x1="-36.355" y1="1.123" x2="-37.883" y2="2.61" xlink:href="#linear-gradient-16"/>
    <linearGradient id="linear-gradient-19" x1="0" y1="0.501" x2="1" y2="0.501" xlink:href="#linear-gradient"/>
    <linearGradient id="linear-gradient-20" x1="-36.335" y1="1.123" x2="-37.863" y2="2.609" xlink:href="#linear-gradient-16"/>
    <linearGradient id="linear-gradient-22" x1="0" y1="0.5" x2="1" y2="0.5" xlink:href="#linear-gradient"/>
    <linearGradient id="linear-gradient-23" x1="0" y1="0.5" x2="1" y2="0.5" xlink:href="#linear-gradient"/>
    <linearGradient id="linear-gradient-24" x1="0" y1="0.5" x2="1" y2="0.5" xlink:href="#linear-gradient"/>
    <linearGradient id="linear-gradient-25" x1="-10.739" y1="1.382" x2="-12.266" y2="2.869" xlink:href="#linear-gradient-16"/>
    <linearGradient id="linear-gradient-26" x1="-10.719" y1="1.383" x2="-12.247" y2="2.87" xlink:href="#linear-gradient-16"/>
    <linearGradient id="linear-gradient-27" x1="-10.698" y1="1.383" x2="-12.226" y2="2.87" xlink:href="#linear-gradient-16"/>
    <linearGradient id="linear-gradient-28" x1="-50.293" y1="0.302" x2="-49.621" y2="1.263" gradientUnits="objectBoundingBox">
      <stop offset="0" stop-color="#a22b25"/>
      <stop offset="1" stop-color="#c0423c"/>
    </linearGradient>
    <linearGradient id="linear-gradient-29" x1="-150.939" y1="0.497" x2="-149.938" y2="0.497" gradientUnits="objectBoundingBox">
      <stop offset="0" stop-color="#a737d5"/>
      <stop offset="1" stop-color="#ef497a"/>
    </linearGradient>
    <linearGradient id="linear-gradient-30" x1="-114.382" y1="1.602" x2="-113.347" y2="-1.187" xlink:href="#linear-gradient-28"/>
    <linearGradient id="linear-gradient-31" x1="-98.924" y1="0.5" x2="-97.92" y2="0.5" xlink:href="#linear-gradient-29"/>
    <linearGradient id="linear-gradient-32" x1="-49.03" y1="1.698" x2="-48.567" y2="-1.193" xlink:href="#linear-gradient-28"/>
    <linearGradient id="linear-gradient-33" x1="1.914" y1="-0.194" x2="-3.837" y2="2.739" gradientUnits="objectBoundingBox">
      <stop offset="0" stop-color="#fe7062"/>
      <stop offset="1" stop-color="#ff928e"/>
    </linearGradient>
    <linearGradient id="linear-gradient-34" x1="-150.126" y1="1.857" x2="-149.871" y2="0.808" xlink:href="#linear-gradient-28"/>
    <linearGradient id="linear-gradient-35" x1="0.395" y1="0.87" x2="1.173" y2="-0.497" xlink:href="#linear-gradient-28"/>
    <linearGradient id="linear-gradient-36" x1="-99.335" y1="1.328" x2="-97.874" y2="-1.033" xlink:href="#linear-gradient-28"/>
    <linearGradient id="linear-gradient-37" x1="-94.86" y1="-0.335" x2="-94.157" y2="0.994" xlink:href="#linear-gradient-6"/>
    <linearGradient id="linear-gradient-38" x1="-360.15" y1="3.263" x2="-354.834" y2="-4.354" xlink:href="#linear-gradient-28"/>
    <linearGradient id="linear-gradient-39" x1="-152.864" y1="1.605" x2="-150.863" y2="4.278" xlink:href="#linear-gradient-28"/>
    <linearGradient id="linear-gradient-40" x1="-319.745" y1="0.501" x2="-318.743" y2="0.501" xlink:href="#linear-gradient-28"/>
    <linearGradient id="linear-gradient-41" x1="1.333" y1="0.095" x2="-3.013" y2="3.862" xlink:href="#linear-gradient-33"/>
    <linearGradient id="linear-gradient-42" x1="-179.809" y1="0.5" x2="-178.809" y2="0.5" xlink:href="#linear-gradient-2"/>
    <linearGradient id="linear-gradient-43" x1="-216.7" y1="0.5" x2="-215.701" y2="0.5" xlink:href="#linear-gradient-2"/>
    <linearGradient id="linear-gradient-44" x1="0.756" y1="0.306" x2="-1.049" y2="1.688" xlink:href="#linear-gradient-33"/>
    <linearGradient id="linear-gradient-45" x1="0.252" y1="0.855" x2="-2.715" y2="4.149" xlink:href="#linear-gradient-33"/>
    <linearGradient id="linear-gradient-46" x1="-0.062" y1="0.89" x2="0.868" y2="0.417" xlink:href="#linear-gradient-2"/>
    <linearGradient id="linear-gradient-47" x1="0.299" y1="-0.652" x2="0.658" y2="1.429" xlink:href="#linear-gradient-2"/>
    <linearGradient id="linear-gradient-48" x1="-196.469" y1="-71.598" x2="-196.129" y2="-72.592" xlink:href="#linear-gradient-2"/>
    <linearGradient id="linear-gradient-49" x1="-643.579" y1="-348.863" x2="-642.47" y2="-353.666" xlink:href="#linear-gradient-2"/>
  </defs>
  <g id="Group_451" data-name="Group 451" transform="translate(-22 -270)">
    <g id="Background" transform="translate(22 270.356)">
      <rect id="Rectangle_7" data-name="Rectangle 7" width="385" height="258" transform="translate(0 -0.356)" fill="#fff"/>
    </g>
    <path id="Path_136" data-name="Path 136" d="M473.18,149.263c-8.878-17.669-28.373-30.951-47.351-26.877-11.361,2.441-22.653,10.628-33.547,6.519-7.851-2.964-12.277-11.365-18.883-16.628-10.159-8.115-24.578-8.02-36.958-4.384s-23.713,10.32-35.944,14.452a92.677,92.677,0,0,1-64.47-2.118c-8.939-3.688-17.306-8.776-26.406-12.02s-19.425-4.507-28.2-.448-15.083,14.665-12.034,24.038c.608,1.865,1.554,3.709,1.436,5.674-.2,3.152-3.169,5.459-6.173,6.16s-6.134.239-9.217.323c-13.817.359-26.167,13.281-26.232,27.453-.054,11.751,7.015,22.078,13.054,32.062s11.478,21.968,7.876,33.124c-2.135,6.615-7.148,11.79-10.424,17.893-8.508,15.821-3.96,36.766,7.925,50.111s29.669,19.874,47.228,21.43,35.166-1.364,52.571-4.249,35.021-5.75,52.571-4.1l-.943-.525a279.5,279.5,0,0,0,105.173,6.113c7.332-.974,15.75-3.069,18.849-9.946,2.617-5.81.267-12.62.8-18.995.777-9.187,7.5-16.712,14.835-22.053s15.652-9.324,22.258-15.576c12.925-12.243,17.31-31.192,19.237-49.122C482.332,187.815,482.058,166.929,473.18,149.263Z" transform="translate(-86.93 181.935)" fill="url(#linear-gradient)"/>
    <path id="Path_137" data-name="Path 137" d="M451.063,985.8c11.786-6.141,15.82-27.228,9.12-34.081-4.527-4.631-11.018.241-17.281-4.559-8-6.129-2.113-17.672-8.4-32.642-5.351-12.743-18.182-24.793-25.682-22.32-7.849,2.589-11.983,21.8-5.284,33.362,4.359,7.518,11.034,7.888,12.48,14.88,1.68,8.115-6.437,11.811-6.48,19.682C409.463,974.253,435.471,993.922,451.063,985.8Z" transform="translate(-315.8 -482.478)" fill="#bdd0fb"/>
    <path id="Path_138" data-name="Path 138" d="M573.757,1144.826a.474.474,0,0,0,.208-.048.48.48,0,0,0,.224-.642c-15.626-32.2-20.2-69.546-20.252-69.918a.48.48,0,1,0-.953.113c.045.375,4.646,37.885,20.341,70.225A.479.479,0,0,0,573.757,1144.826Z" transform="translate(-444.854 -636.113)" fill="#91b3fa"/>
    <path id="Path_139" data-name="Path 139" d="M430.907,951.5a.229.229,0,0,0,.182-.37c-4.932-6.331-10.4-15.842-8.431-25.2a16.371,16.371,0,0,1,4.507-8.51.229.229,0,0,0-.3-.346,16.563,16.563,0,0,0-4.653,8.763c-1.106,5.26-.527,13.967,8.518,25.576A.229.229,0,0,0,430.907,951.5Z" transform="translate(-334.06 -503.72)" fill="#f0f0f0"/>
    <path id="Path_140" data-name="Path 140" d="M733.209,1306.317a.231.231,0,0,0,.19-.1c7.579-11.062,10.163-19.609,7.682-25.4-2.207-5.153-7.778-6.112-7.834-6.12a.229.229,0,0,0-.073.452c.053.009,5.383.932,7.487,5.854,2.412,5.641-.155,14.037-7.64,24.958a.23.23,0,0,0,.188.359Z" transform="translate(-596.884 -805.808)" fill="#f0f0f0"/>
    <path id="Path_141" data-name="Path 141" d="M269.58,868.06H256.247a4.628,4.628,0,0,0-4.009,2.322L245.57,881.93a4.631,4.631,0,0,0,0,4.629l6.667,11.548a4.631,4.631,0,0,0,4.009,2.314H269.58a4.634,4.634,0,0,0,4.011-2.314l6.667-11.548a4.631,4.631,0,0,0,0-4.629l-6.667-11.548A4.631,4.631,0,0,0,269.58,868.06Z" transform="translate(-184.694 -462.368)" fill="#7d97f4"/>
    <path id="Path_142" data-name="Path 142" d="M268.3,910.251a2.421,2.421,0,0,1-2.09-1.206L259.542,897.5a2.424,2.424,0,0,1,0-2.413l6.667-11.548a2.421,2.421,0,0,1,2.09-1.206h13.333a2.421,2.421,0,0,1,2.092,1.206l6.667,11.548a2.424,2.424,0,0,1,0,2.413l-6.667,11.548a2.421,2.421,0,0,1-2.092,1.206Z" transform="translate(-196.747 -474.421)" fill="#91b3fa"/>
    <path id="Path_143" data-name="Path 143" d="M460.14,985.16H446.807a4.628,4.628,0,0,0-4.009,2.314l-6.667,11.548a4.631,4.631,0,0,0,0,4.629L442.8,1015.2a4.631,4.631,0,0,0,4.009,2.314H460.14a4.631,4.631,0,0,0,4.009-2.314l6.667-11.548a4.631,4.631,0,0,0,0-4.629l-6.667-11.548a4.628,4.628,0,0,0-4.009-2.314Z" transform="translate(-345.641 -561.271)" fill="#7d97f4"/>
    <path id="Path_144" data-name="Path 144" d="M458.832,1027.324a2.418,2.418,0,0,1-2.09-1.206l-6.667-11.551a2.417,2.417,0,0,1,0-2.414l6.667-11.548a2.418,2.418,0,0,1,2.09-1.206h13.337a2.418,2.418,0,0,1,2.09,1.206l6.667,11.548a2.417,2.417,0,0,1,0,2.414l-6.667,11.548a2.418,2.418,0,0,1-2.09,1.206Z" transform="translate(-357.67 -573.298)" fill="#91b3fa"/>
    <path id="Path_145" data-name="Path 145" d="M475.994,754.92H462.66a4.628,4.628,0,0,0-4.01,2.316l-6.666,11.547a4.623,4.623,0,0,0,0,4.629l6.667,11.548a4.63,4.63,0,0,0,4.009,2.314h13.333A4.631,4.631,0,0,0,480,784.961l6.667-11.548a4.631,4.631,0,0,0,0-4.629L480,757.235A4.629,4.629,0,0,0,475.994,754.92Z" transform="translate(-359.03 -366.811)" fill="#7d97f4"/>
    <path id="Path_146" data-name="Path 146" d="M474.706,797.153a2.418,2.418,0,0,1-2.09-1.206L465.948,784.4a2.42,2.42,0,0,1,0-2.413l6.667-11.54a2.423,2.423,0,0,1,2.092-1.206H488.04a2.418,2.418,0,0,1,2.09,1.206l6.667,11.548a2.417,2.417,0,0,1,0,2.413l-6.667,11.548a2.418,2.418,0,0,1-2.09,1.206Z" transform="translate(-371.076 -378.905)" fill="#91b3fa"/>
    <path id="Path_147" data-name="Path 147" d="M1590.167,767.107c-3.2,17.094-26.353,115.714-133.007,108.47,0,0-3.318-69.235,130.83-110.18A1.641,1.641,0,0,1,1590.167,767.107Z" transform="translate(-1208.518 -375.593)" fill="#91b3fa"/>
    <path id="Path_148" data-name="Path 148" d="M1609.789,882.742c-1.646,2.572-3.4,5.055-5.19,7.515-.892,1.234-1.814,2.444-2.729,3.66s-1.851,2.415-2.808,3.6q-5.683,7.148-11.879,13.857a227.879,227.879,0,0,1-26.751,24.815c-2.375,1.908-4.85,3.685-7.3,5.5-2.511,1.722-4.988,3.5-7.576,5.108-2.538,1.688-5.187,3.2-7.8,4.765-1.33.741-2.675,1.462-4.011,2.2-.671.359-1.332.741-2.02,1.088l-2.05,1.016-2.048,1.015c-.684.339-1.361.687-2.064.985l-4.179,1.865c-.35.155-.695.311-1.047.466l-1.065.42-2.128.839c-1.42.556-2.83,1.142-4.283,1.608l-4.331,1.481c-1.454.466-2.929.858-4.393,1.29l-2.2.636c-.738.19-1.484.354-2.225.533l-4.459,1.051a.622.622,0,0,1-.283-1.2h0l.031-.008,4.421-1.019c.735-.173,1.475-.333,2.208-.516l2.176-.622c1.451-.421,2.915-.81,4.351-1.257l4.3-1.448c1.444-.454,2.844-1.03,4.256-1.574l2.117-.822,1.058-.412c.35-.141.693-.3,1.041-.452l4.157-1.826c.7-.294,1.375-.636,2.054-.968l2.041-1,2.04-1c.679-.334,1.337-.712,2.006-1.066,1.332-.721,2.67-1.431,4-2.162,2.608-1.545,5.248-3.033,7.781-4.7,2.581-1.59,5.055-3.344,7.563-5.046,2.444-1.792,4.918-3.548,7.291-5.439a227.2,227.2,0,0,0,26.777-24.6q6.216-6.657,11.916-13.762c.96-1.175,1.879-2.384,2.819-3.574.917-1.207,1.843-2.41,2.737-3.635,1.8-2.444,3.563-4.92,5.206-7.459h0a.262.262,0,0,1,.44.283Z" transform="translate(-1240.113 -474.444)" fill="#bdd0fb"/>
    <path id="Path_149" data-name="Path 149" d="M1539.716,245.9c7.935,20.358,48.521,140.483-74.8,193.718,0,0-50.227-73.126,71.231-194.333A2.247,2.247,0,0,1,1539.716,245.9Z" transform="translate(-1206.379 64.156)" fill="#bdd0fb"/>
    <path id="Path_150" data-name="Path 150" d="M1640.071,455.876c-1.01,6.817-2.263,13.585-3.625,20.333s-2.875,13.466-4.522,20.149c-3.3,13.365-7.127,26.611-11.671,39.617a286.6,286.6,0,0,1-16.183,38.011,183.989,183.989,0,0,1-10.531,17.807,128.138,128.138,0,0,1-12.846,16.249.622.622,0,0,1-.9-.844h0a127.1,127.1,0,0,0,12.8-16.041,183.18,183.18,0,0,0,10.542-17.657,287.485,287.485,0,0,0,16.291-37.812c4.6-12.948,8.469-26.159,11.82-39.494q2.508-10,4.6-20.1c1.389-6.732,2.67-13.494,3.706-20.283h0a.262.262,0,1,1,.517.078Z" transform="translate(-1311.996 -113.994)" fill="#bdd0fb"/>
    <path id="Path_151" data-name="Path 151" d="M826.246,284.791a26.1,26.1,0,0,0-4.647-41.447c-3.806-2.247-8.46-3.787-10.567-7.674-1.7-3.136-1.229-6.948-.777-10.485,2.244-17.26,3.032-35.36-3.434-51.519-9.608-24.006-36-40.117-61.738-37.749-25.728-2.368-52.12,13.742-61.729,37.749-6.466,16.162-5.678,34.258-3.434,51.519.466,3.537.932,7.349-.777,10.485-2.1,3.885-6.758,5.427-10.567,7.674a26.1,26.1,0,0,0-4.646,41.447c1.911,1.8,4.2,3.461,5.03,5.95,1.17,3.473-.872,7.1-1.964,10.6-3.669,11.758,4.087,24.647,14.682,30.925,9.929,5.887,21.738,7.346,33.279,8.407,5.027,1.529,10.152,2.985,15.4,2.9,5.559-.1,11.377-2.219,14.572-6.769.055-.078.1-.155.155-.236.051.078.1.155.155.236,3.2,4.55,9.013,6.673,14.572,6.769,5.245.09,10.37-1.366,15.4-2.9,11.542-1.061,23.351-2.521,33.279-8.407,10.6-6.281,18.351-19.17,14.682-30.925-1.088-3.5-3.134-7.122-1.964-10.6C822.054,288.251,824.336,286.595,826.246,284.791Z" transform="translate(-531.661 156.193)" fill="#052159"/>
    <path id="Path_152" data-name="Path 152" d="M848.953,1041.421c-15.1.432-34.942,7.77-44-4.314s-5.608-49.178-5.608-49.178-11.122-1.158-16.894-.932c-5.772-.23-16.9.932-16.9.932s3.451,37.1-5.607,49.178-28.9,4.746-44,4.314c-11.947-.342-16.134,22.037-14.4,27.661a3.439,3.439,0,0,0,3.291,2.427H862.527a3.441,3.441,0,0,0,3.291-2.423C867.553,1063.459,860.9,1041.079,848.953,1041.421Z" transform="translate(-570.017 -562.796)" fill="url(#linear-gradient-2)"/>
    <path id="Path_153" data-name="Path 153" d="M848.953,1337.334c-7.82.224-16.912,2.3-25.121,2.569-7.5,6.19-21.742,15.278-39.811,14.252a77.029,77.029,0,0,1-40.364-14.238c-8.847.173-19.06-2.34-27.713-2.587-11.947-.342-16.134,22.037-14.4,27.662a3.439,3.439,0,0,0,3.291,2.432H862.527a3.44,3.44,0,0,0,3.291-2.423C867.553,1359.371,860.9,1336.992,848.953,1337.334Z" transform="translate(-570.017 -858.709)" fill="#16558c"/>
    <path id="Path_154" data-name="Path 154" d="M979.271,332.884a9.9,9.9,0,0,0-1.417,4.9c-.253,11.565-1.029,59.137,3.023,68.487,5.029,11.6,17.955,24.269,34.226,26.594s36.17-20.019,38.5-30.752c1.228-5.668,1.088-51.643,1.03-63.881a9.919,9.919,0,0,0-1.9-5.793c-4.578-6.3-17.318-20.9-36.229-19.361C1003.635,314.124,990.089,314.961,979.271,332.884Z" transform="translate(-803.51 6.464)" fill="url(#linear-gradient-3)"/>
    <path id="Path_155" data-name="Path 155" d="M1456.82,627.873s0-20.917,11.621-9.3-11.621,27.89-11.621,27.89Z" transform="translate(-1208.237 -248.687)" fill="url(#linear-gradient-4)"/>
    <path id="Path_156" data-name="Path 156" d="M912.156,627.873s0-20.917-11.621-9.3,11.621,27.89,11.621,27.89Z" transform="translate(-735.652 -248.687)" fill="url(#linear-gradient-5)"/>
    <path id="Path_157" data-name="Path 157" d="M962.339,340.156c.028.718,9.946-6.886,27.076-10.058,20.886-3.868,28.171-15.33,32.875-15.33,2.322,0,5.8,1.439,5.416,11.511s10.443,21.944,18.959,10.434-7.355-41.371-43.713-40.652S961.178,310.656,962.339,340.156Z" transform="translate(-790.481 20.752)" fill="#052159"/>
    <path id="Path_158" data-name="Path 158" d="M998.745,650.2c1.91-.828,3.354-2.741,5.33-3.563a10.171,10.171,0,0,1,7.162-.205c4.068,1.324,8.316,4.606,12.681,2.522.155-.075.118-.388-.054-.381-5.621.264-9.8-4.521-15.256-4.906-2.061-.146-4.507-.182-6.412.777-1.7.859-5.5,3.56-5.5,3.56S998.324,650.384,998.745,650.2Z" transform="translate(-819.621 -272.781)" fill="url(#linear-gradient-6)"/>
    <path id="Path_159" data-name="Path 159" d="M1303.793,650.2c-1.91-.828-3.352-2.741-5.329-3.563a10.175,10.175,0,0,0-7.164-.205c-4.067,1.324-8.314,4.606-12.681,2.522-.156-.075-.117-.388.056-.381,5.621.264,9.8-4.521,15.256-4.906,2.061-.146,4.507-.182,6.41.777,1.7.856,5.5,3.556,5.5,3.556S1304.216,650.384,1303.793,650.2Z" transform="translate(-1057.647 -272.781)" fill="url(#linear-gradient-7)"/>
    <path id="Path_160" data-name="Path 160" d="M1276.69,558.811h0a1.5,1.5,0,0,0,1.967,1.427c4.7-1.563,16.869-4.718,26.064.716,0,0-5.139-11.82-27.07-3.545A1.5,1.5,0,0,0,1276.69,558.811Z" transform="translate(-1056.1 -197.51)" fill="url(#linear-gradient-8)"/>
    <path id="Path_161" data-name="Path 161" d="M1022.783,558.811h0a1.5,1.5,0,0,1-1.969,1.427c-4.7-1.563-16.867-4.718-26.064.716,0,0,5.141-11.82,27.071-3.545A1.5,1.5,0,0,1,1022.783,558.811Z" transform="translate(-817.974 -197.51)" fill="url(#linear-gradient-9)"/>
    <path id="Path_162" data-name="Path 162" d="M1149.863,881.7s-7.108-3.295-12-2.887-6.441,1.647-6.441,1.647-1.554-1.243-6.441-1.647S1113,881.7,1113,881.7a19.734,19.734,0,0,0,36.863,0Z" transform="translate(-917.848 -471.419)" fill="url(#linear-gradient-10)"/>
    <path id="Path_163" data-name="Path 163" d="M1170.381,906.569a24.174,24.174,0,0,1-27.6,0A93.085,93.085,0,0,1,1170.381,906.569Z" transform="translate(-943 -494.024)" fill="#fff"/>
    <path id="Path_164" data-name="Path 164" d="M848.132,458.51a6.937,6.937,0,0,1-1.45-.155.311.311,0,1,1,.127-.6c3.148.668,7.509-1.383,9.065-5.857,1.148-3.3.688-7.431-1.295-11.627a55.411,55.411,0,0,0-4.118-6.886c-.758-1.139-1.542-2.319-2.269-3.506a37.168,37.168,0,0,1-5.831-16.987,23.212,23.212,0,0,1,5.4-16.917c4.378-4.884,10.822-7.148,16.55-8.715,4.157-1.139,8.44-2.068,12.58-2.965,5.153-1.117,10.482-2.272,15.6-3.842,11.009-3.375,18.989-8.149,24.4-14.6a.311.311,0,0,1,.466.4c-5.477,6.544-13.557,11.377-24.684,14.8-5.142,1.577-10.483,2.735-15.649,3.856-4.134.9-8.407,1.821-12.55,2.953-5.64,1.545-11.982,3.767-16.253,8.532a22.574,22.574,0,0,0-5.245,16.473,36.558,36.558,0,0,0,5.742,16.7c.72,1.178,1.5,2.351,2.256,3.486a55.887,55.887,0,0,1,4.162,6.964c2.053,4.351,2.521,8.637,1.319,12.093C855.305,455.414,851.935,458.51,848.132,458.51Z" transform="translate(-689.224 -38.147)" fill="#7d97f4"/>
    <path id="Path_165" data-name="Path 165" d="M860.209,340.915h-.017a.155.155,0,0,1-.137-.171,12.708,12.708,0,0,1,5.7-8.749,28.463,28.463,0,0,1,9.887-3.894,143.015,143.015,0,0,1,16.6-2.4c1.4-.146,2.785-.292,4.176-.448,6.715-.754,13.831-1.8,20.4-4.351,5.026-1.952,11.933-5.7,16.3-12.474a.155.155,0,1,1,.26.168c-4.412,6.838-11.378,10.625-16.448,12.588-6.6,2.564-13.745,3.616-20.482,4.371-1.4.155-2.783.3-4.177.448a143.2,143.2,0,0,0-16.564,2.395,28.034,28.034,0,0,0-9.778,3.849,12.434,12.434,0,0,0-5.574,8.535A.155.155,0,0,1,860.209,340.915Z" transform="translate(-704.21 10.356)" fill="#7d97f4"/>
    <path id="Path_166" data-name="Path 166" d="M1575.429,741.1a.311.311,0,0,1-.1-.6c2.106-.685,3.173-3.108,3.142-5.144a14.123,14.123,0,0,0-2.112-6.286l-.342-.622a19.918,19.918,0,0,1-2.4-5.722c-1.17-6.146,3.549-11.361,5.632-13.319a61.517,61.517,0,0,1,5.467-4.4,54.272,54.272,0,0,0,5.992-4.915c4.075-4.056,5.823-8.9,4.679-12.965-1.088-3.859-4.325-6.294-7.753-8.872a44.883,44.883,0,0,1-4.623-3.81c-4.112-4.076-6.594-10.213-6.807-16.836-.179-5.553,1.088-11.422,3.865-17.946a.311.311,0,1,1,.567.241c-2.743,6.44-3.991,12.224-3.815,17.685.208,6.468,2.622,12.452,6.625,16.418a44.345,44.345,0,0,0,4.559,3.756c3.358,2.525,6.838,5.138,7.975,9.2,1.206,4.28-.6,9.352-4.838,13.568a54.99,54.99,0,0,1-6.061,4.973,61.782,61.782,0,0,0-5.413,4.351c-2.009,1.887-6.561,6.908-5.448,12.754a19.537,19.537,0,0,0,2.331,5.54l.343.622a14.664,14.664,0,0,1,2.187,6.57c.036,2.264-1.178,4.962-3.574,5.74A.329.329,0,0,1,1575.429,741.1Z" transform="translate(-1306.732 -269.271)" fill="#7d97f4"/>
    <path id="Path_167" data-name="Path 167" d="M952.255,371.668a2,2,0,0,1-2-2V357.269A6.27,6.27,0,0,1,956.514,351h8.578a2,2,0,0,1,0,4.009h-8.578a2.258,2.258,0,0,0-2.255,2.255v12.4A2.006,2.006,0,0,1,952.255,371.668Z" transform="translate(-780.389 -25.66)" fill="url(#linear-gradient-11)"/>
    <path id="Path_168" data-name="Path 168" d="M1417.612,371.694a2.006,2.006,0,0,1-2-2V357.294a2.258,2.258,0,0,0-2.255-2.255h-8.578a2,2,0,0,1,0-4.009h8.578a6.271,6.271,0,0,1,6.264,6.264v12.4A2,2,0,0,1,1417.612,371.694Z" transform="translate(-1162.587 -25.686)" fill="url(#linear-gradient-12)"/>
    <path id="Path_169" data-name="Path 169" d="M965.092,1002.844h-8.578a6.271,6.271,0,0,1-6.264-6.264V984.185a2,2,0,1,1,4.009,0v12.395a2.258,2.258,0,0,0,2.255,2.255h8.578a2,2,0,0,1,0,4.009Z" transform="translate(-780.389 -558.754)" fill="url(#linear-gradient-12)"/>
    <path id="Path_170" data-name="Path 170" d="M1413.353,1002.844h-8.578a2,2,0,0,1,0-4.009h8.578a2.258,2.258,0,0,0,2.255-2.255V984.185a2,2,0,1,1,4.009,0V996.58A6.271,6.271,0,0,1,1413.353,1002.844Z" transform="translate(-1162.587 -558.754)" fill="url(#linear-gradient-12)"/>
    <path id="Path_171" data-name="Path 171" d="M1062.276,495.692h-70.63a2.109,2.109,0,0,1-2.106-2.106v-102.4a2.109,2.109,0,0,1,2.106-2.106h70.63a2.107,2.107,0,0,1,2.106,2.106v102.4A2.107,2.107,0,0,1,1062.276,495.692ZM991.646,389.7a1.49,1.49,0,0,0-1.489,1.489v102.4a1.49,1.49,0,0,0,1.489,1.489h70.63a1.49,1.49,0,0,0,1.489-1.489v-102.4a1.49,1.49,0,0,0-1.489-1.489Z" transform="translate(-813.573 -57.823)" fill="url(#linear-gradient-12)"/>
    <circle id="Ellipse_7" data-name="Ellipse 7" cx="2.468" cy="2.468" r="2.468" transform="translate(233.649 409.7) rotate(-45)" fill="#91b3fa"/>
    <path id="Path_172" data-name="Path 172" d="M1381.514,790.232a.311.311,0,0,1-.18-.56l26.216-18.814a.311.311,0,0,1,.18-.057h88.52a.311.311,0,0,1,0,.622h-88.424l-26.137,18.757A.312.312,0,0,1,1381.514,790.232Z" transform="translate(-1144.377 -380.223)" fill="#91b3fa"/>
    <circle id="Ellipse_8" data-name="Ellipse 8" cx="2.468" cy="2.468" r="2.468" transform="matrix(0.974, -0.228, 0.228, 0.974, 177.418, 378.564)" fill="#91b3fa"/>
    <path id="Path_173" data-name="Path 173" d="M392.685,601.656a.31.31,0,0,1-.179-.057l-26.142-18.757H277.941a.311.311,0,0,1,0-.622h88.523a.311.311,0,0,1,.18.057l26.216,18.815a.311.311,0,0,1-.18.559Z" transform="translate(-212.296 -220.948)" fill="#91b3fa"/>
    <path id="Path_174" data-name="Path 174" d="M1943.467,452.859h-55.827a.311.311,0,0,1-.311-.311V418a.311.311,0,0,1,.311-.311h55.827a.311.311,0,0,1,.311.311v34.547A.311.311,0,0,1,1943.467,452.859Zm-55.519-.622h55.21V418.31h-55.21Z" transform="translate(-1571.845 -81.987)" fill="#fff"/>
    <path id="Path_175" data-name="Path 175" d="M1963.393,496.838h-.244a20.878,20.878,0,0,1-19.439-13.365,1.088,1.088,0,0,1,.55-1.377c.3-.138,7.425-3.41,12.538-2.979a14.424,14.424,0,0,0,12.7,0c5.111-.43,12.238,2.841,12.538,2.979a1.088,1.088,0,0,1,.55,1.377A20.889,20.889,0,0,1,1963.393,496.838Zm-.244-2.16h.016a18.783,18.783,0,0,0,17.006-11.034c-2.051-.845-6.967-2.671-10.49-2.375-4.376.37-5.863,1.42-5.879,1.431a1.007,1.007,0,0,1-1.326-.014h0s-1.49-1.049-5.859-1.417c-3.528-.3-8.44,1.529-10.491,2.375a18.746,18.746,0,0,0,17.006,11.034Z" transform="translate(-1619.401 -133.836)" fill="#fff"/>
    <path id="Path_176" data-name="Path 176" d="M2007.991,513.78a24.181,24.181,0,0,1-27.6,0A92.942,92.942,0,0,1,2007.991,513.78Z" transform="translate(-1650.443 -162.274)" fill="#fff"/>
    <path id="Path_177" data-name="Path 177" d="M1852.973,801.375a1.566,1.566,0,1,1-1.554-1.576A1.566,1.566,0,0,1,1852.973,801.375Z" transform="translate(-1540.181 -404.716)" fill="url(#linear-gradient-16)"/>
    <path id="Path_178" data-name="Path 178" d="M1853.2,801.654a1.512,1.512,0,1,1-.435-1.074A1.514,1.514,0,0,1,1853.2,801.654Z" transform="translate(-1540.46 -404.995)" fill="url(#linear-gradient-17)"/>
    <path id="Path_179" data-name="Path 179" d="M1852.973,862.436a1.566,1.566,0,1,1-1.554-1.576A1.566,1.566,0,0,1,1852.973,862.436Z" transform="translate(-1540.181 -456.287)" fill="url(#linear-gradient-18)"/>
    <path id="Path_180" data-name="Path 180" d="M1853.2,862.714a1.512,1.512,0,1,1-.435-1.074A1.514,1.514,0,0,1,1853.2,862.714Z" transform="translate(-1540.46 -456.566)" fill="url(#linear-gradient-19)"/>
    <circle id="Ellipse_9" data-name="Ellipse 9" cx="1.566" cy="1.566" r="1.566" transform="matrix(0.535, -0.845, 0.845, 0.535, 309.048, 416.096)" fill="url(#linear-gradient-20)"/>
    <path id="Path_181" data-name="Path 181" d="M1853.2,923.813a1.512,1.512,0,1,1-.436-1.073A1.514,1.514,0,0,1,1853.2,923.813Z" transform="translate(-1540.46 -508.171)" fill="url(#linear-gradient-17)"/>
    <path id="Path_182" data-name="Path 182" d="M1885.487,801.841v.267a1.2,1.2,0,0,0,1.021,1.3l41.937.064a1.22,1.22,0,0,0,1.03-1.347h0a1.225,1.225,0,0,0-1.005-1.343l-41.944-.331C1885.943,800.433,1885.466,801.07,1885.487,801.841Z" transform="translate(-1570.288 -405.263)" fill="url(#linear-gradient-22)"/>
    <path id="Path_183" data-name="Path 183" d="M1885.487,862.622v.266a1.2,1.2,0,0,0,1.021,1.3l41.937.064a1.22,1.22,0,0,0,1.03-1.347h0a1.225,1.225,0,0,0-1.005-1.343l-41.944-.331C1885.943,861.213,1885.466,861.85,1885.487,862.622Z" transform="translate(-1570.288 -456.598)" fill="url(#linear-gradient-23)"/>
    <path id="Path_184" data-name="Path 184" d="M1885.487,923.4v.266a1.2,1.2,0,0,0,1.021,1.3l41.937.064a1.22,1.22,0,0,0,1.03-1.347h0a1.226,1.226,0,0,0-1.005-1.343L1886.532,922C1885.943,921.987,1885.466,922.621,1885.487,923.4Z" transform="translate(-1570.288 -507.925)" fill="url(#linear-gradient-24)"/>
    <path id="Path_185" data-name="Path 185" d="M537.91,622.826a1.566,1.566,0,1,0,1.554-1.576A1.566,1.566,0,0,0,537.91,622.826Z" transform="translate(-432.127 -253.913)" fill="url(#linear-gradient-25)"/>
    <path id="Path_186" data-name="Path 186" d="M538.24,623.1a1.515,1.515,0,1,0,1.5-1.524A1.515,1.515,0,0,0,538.24,623.1Z" transform="translate(-432.406 -254.192)" fill="#91b3fa"/>
    <path id="Path_187" data-name="Path 187" d="M537.91,683.9a1.566,1.566,0,1,0,1.554-1.577A1.566,1.566,0,0,0,537.91,683.9Z" transform="translate(-432.127 -305.492)" fill="url(#linear-gradient-26)"/>
    <path id="Path_188" data-name="Path 188" d="M538.24,684.183a1.515,1.515,0,1,0,1.5-1.523A1.515,1.515,0,0,0,538.24,684.183Z" transform="translate(-432.406 -305.78)" fill="#91b3fa"/>
    <path id="Path_189" data-name="Path 189" d="M537.91,744.977a1.566,1.566,0,1,0,1.554-1.577A1.566,1.566,0,0,0,537.91,744.977Z" transform="translate(-432.127 -357.08)" fill="url(#linear-gradient-27)"/>
    <path id="Path_190" data-name="Path 190" d="M538.24,745.263a1.515,1.515,0,1,0,1.5-1.523A1.515,1.515,0,0,0,538.24,745.263Z" transform="translate(-432.406 -357.368)" fill="#91b3fa"/>
    <path id="Path_191" data-name="Path 191" d="M283.338,623.291v.267a1.2,1.2,0,0,1-1.021,1.3l-41.937.064a1.22,1.22,0,0,1-1.03-1.347h0a1.225,1.225,0,0,1,1.005-1.343L282.3,621.9C282.881,621.883,283.358,622.52,283.338,623.291Z" transform="translate(-179.964 -254.46)" fill="#91b3fa"/>
    <path id="Path_192" data-name="Path 192" d="M283.338,684.071v.267a1.2,1.2,0,0,1-1.021,1.3l-41.937.064a1.22,1.22,0,0,1-1.03-1.347h0a1.225,1.225,0,0,1,1.005-1.343l41.944-.331C282.881,682.663,283.358,683.3,283.338,684.071Z" transform="translate(-179.964 -305.795)" fill="#91b3fa"/>
    <path id="Path_193" data-name="Path 193" d="M283.338,744.852v.266a1.2,1.2,0,0,1-1.021,1.3l-41.937.064a1.22,1.22,0,0,1-1.03-1.347h0a1.226,1.226,0,0,1,1.005-1.343l41.944-.331C282.881,743.443,283.358,744.08,283.338,744.852Z" transform="translate(-179.964 -357.13)" fill="#91b3fa"/>
    <path id="Path_194" data-name="Path 194" d="M402.787,364.274H346.961a.311.311,0,0,1-.311-.311V329.421a.311.311,0,0,1,.311-.311h55.827a.311.311,0,0,1,.311.311v34.544A.311.311,0,0,1,402.787,364.274Zm-55.519-.622h55.21V329.73h-55.21Z" transform="translate(-270.59 -7.172)" fill="#fff"/>
    <path id="Path_195" data-name="Path 195" d="M406.528,398.289c-11.27,0-20.187-10.274-20.56-10.71a1.077,1.077,0,0,1,0-1.4c.373-.437,9.29-10.71,20.56-10.71s20.185,10.269,20.564,10.706a1.088,1.088,0,0,1,0,1.4C426.713,388.016,417.8,398.289,406.528,398.289Zm-18.272-11.411a37.568,37.568,0,0,0,4.988,4.322c3.12,2.249,7.958,4.931,13.284,4.931s10.162-2.682,13.282-4.931a37.558,37.558,0,0,0,4.988-4.322,37.422,37.422,0,0,0-4.988-4.323c-3.12-2.249-7.958-4.931-13.282-4.931s-10.163,2.682-13.284,4.931a37.529,37.529,0,0,0-4.988,4.323Z" transform="translate(-303.58 -46.328)" fill="#fff"/>
    <path id="Path_196" data-name="Path 196" d="M469.366,407.828a9.254,9.254,0,1,1,9.253-9.253A9.255,9.255,0,0,1,469.366,407.828Zm0-16.347a7.094,7.094,0,1,0,7.094,7.094A7.094,7.094,0,0,0,469.366,391.482Z" transform="translate(-366.418 -58.025)" fill="#fff"/>
    <circle id="Ellipse_10" data-name="Ellipse 10" cx="4.472" cy="4.472" r="4.472" transform="translate(98.475 336.076)" fill="#fff"/>
    <path id="Path_197" data-name="Path 197" d="M357.875,1058.59s-2.777,3.7-6.05,4.713c-1.554.482-4.328,1.748-4.7,4.794a3.5,3.5,0,0,1-2.922,3.071c-3.9.6-9.91,2.623-10.878,9.394-.735,5.169,1.9,7.128,4.662,7.807a3.914,3.914,0,0,1,2.97,4.524c-.393,1.966.194,4.241,3.6,6.037,7.636,4.03,15.26-9.543,15.26-9.543l1.563-23.7Z" transform="translate(-259.227 -623.29)" fill="#052159"/>
    <path id="Path_198" data-name="Path 198" d="M538.294,1028.84s-4.507,12.277-12.174,16.11c0,0,2.553,4.167,3.885,4.42,0,0,8.2-10.49,9.032-19.085Z" transform="translate(-422.17 -598.163)" fill="url(#linear-gradient-28)"/>
    <path id="Path_199" data-name="Path 199" d="M384.325,1500.14,384.1,1502a.768.768,0,0,1-.674.673,11.856,11.856,0,0,1-2.486.039.66.66,0,0,1-.553-.854,6.868,6.868,0,0,1,1.243-2.432h2.065a.636.636,0,0,1,.633.71Z" transform="translate(-299.055 -995.622)" fill="url(#linear-gradient-29)"/>
    <path id="Path_200" data-name="Path 200" d="M488.363,1363.64l.348,2.05s-1.167,11.823-1.375,16.552a3.705,3.705,0,0,0,.549,2.106l2.033,3.3-5.158-3.044-.1-.622.844-1.161-1.1-13.243a4.058,4.058,0,0,1,.466-2.247l1.068-2Z" transform="translate(-386.918 -880.934)" fill="url(#linear-gradient-30)"/>
    <path id="Path_201" data-name="Path 201" d="M489.517,1494.607h-1.646a.993.993,0,0,1-.788-.385c-.513-.667-1.576-1.967-2.084-2-.684-.045-.6,2.387-.6,2.387h-.384l-.486-3.023a1.792,1.792,0,0,1,.94-1.865h0a2.526,2.526,0,0,0,1,1.669c.849.511,3.452,2.343,3.452,2.343a2.36,2.36,0,0,1,.67.019.435.435,0,0,1-.081.856Z" transform="translate(-386.182 -987.421)" fill="url(#linear-gradient-31)"/>
    <path id="Path_202" data-name="Path 202" d="M397.34,1365.272s-6.838,12.971-7.925,15.932a28.569,28.569,0,0,0-1.483,5.666c-.022.367-.477.716-1.73.716a1.2,1.2,0,0,1-1.119-.51.729.729,0,0,1-.028-.707c.4-.8,1.65-3.36,2.115-4.519.556-1.386,1.75-7.663,2.4-9.846a11.593,11.593,0,0,1,4.247-6.732S395.778,1363.355,397.34,1365.272Z" transform="translate(-302.961 -881.593)" fill="url(#linear-gradient-32)"/>
    <path id="Path_203" data-name="Path 203" d="M477.624,1148.148c1.764-7.473-2.7-11.7-2.7-11.7,2.819-2.707,7.957-3.938,7.957-3.938s4.9,3.584,4.32,6.389c-.342,1.644-3.445,9.848-3.445,9.848A6.823,6.823,0,0,1,477.624,1148.148Z" transform="translate(-378.926 -685.722)" fill="url(#linear-gradient-33)"/>
    <path id="Path_204" data-name="Path 204" d="M444.635,1236.882c.718-2.163,3.91-3.7,3.91-3.7a6.823,6.823,0,0,0,6.128.6,12.289,12.289,0,0,1,.2,4.748c-.444,2.288-3.232,16.984-3.232,16.984-4.393.89-11.149-.9-11.149-.9C443.287,1249.64,443.917,1239.037,444.635,1236.882Z" transform="translate(-349.847 -770.748)" fill="#16558c"/>
    <path id="Path_205" data-name="Path 205" d="M497.584,1097.37l-1.434,6.441c-.137.567.379.466.953.365.94-.177,2.151-.541,2.556-1.273a.729.729,0,0,0,.073-.242l.622-4.466a.8.8,0,0,0-.466-.844l-1.189-.527a.8.8,0,0,0-1.114.546Z" transform="translate(-396.838 -655.521)" fill="url(#linear-gradient-34)"/>
    <path id="Path_206" data-name="Path 206" d="M448.54,1157.85s-10.009,7.161-1.281,14.686a2.255,2.255,0,0,0,.982.567,10.985,10.985,0,0,1,1.8,1.224.339.339,0,0,0,.5-.09h0a.466.466,0,0,0,.026-.444l-1.243-2.62a.957.957,0,0,0-1.243-.054h0a.466.466,0,0,1-.715-.155c-.674-1.374-1.949-5.416,3.263-9.983a.564.564,0,0,0,.124-.687A4.944,4.944,0,0,0,448.54,1157.85Z" transform="translate(-352.546 -707.125)" fill="url(#linear-gradient-35)"/>
    <path id="Path_207" data-name="Path 207" d="M499.883,1060.709a6.358,6.358,0,0,1,2.853,3.172c1.155,2.454.294,3.587-.791,3.742a5.07,5.07,0,0,1-4.417-1.453C495.814,1064.584,497.676,1059.859,499.883,1060.709Z" transform="translate(-397.455 -624.993)" fill="url(#linear-gradient-36)"/>
    <path id="Path_208" data-name="Path 208" d="M488.557,1053s-1.282-3.591,1.9-3.633l.749.524s1.167-1.991-.749-2.942-4.162-.165-4.973,2.418-.956,4.313.4,5.548,1.916-.166,1.916-.166-.738-1.155-.438-1.773.995.128.995.128Z" transform="translate(-387.331 -613.125)" fill="url(#linear-gradient-37)"/>
    <path id="Path_209" data-name="Path 209" d="M496.691,1083.551s-.648-1.849-1.512-1.113.7,1.709,1.315,2.02Z" transform="translate(-395.822 -643.285)" fill="url(#linear-gradient-38)"/>
    <path id="Path_210" data-name="Path 210" d="M600.025,1004.418c.068.219-.726.552-1.2-.342-.015-.427-.277-2.261-.02-2.611a33.472,33.472,0,0,1,4-4.185.629.629,0,0,1,.079.873l-1.282,1.335a6.167,6.167,0,0,1,.748,1.478,1.8,1.8,0,0,1-.179,1.323c-.225.4-.531.932-.822,1.344A1.768,1.768,0,0,1,600.025,1004.418Z" transform="translate(-483.469 -571.507)" fill="url(#linear-gradient-39)"/>
    <path id="Path_211" data-name="Path 211" d="M604.334,1019.187l-.311-.054a12.74,12.74,0,0,1,.631-2.432.533.533,0,0,0,.112-.371.216.216,0,0,0-.082-.11l-1.052.892-.353.948-.289-.109.381-1.023,1.277-1.088.092.047a.582.582,0,0,1,.323.354.777.777,0,0,1-.146.622A12.962,12.962,0,0,0,604.334,1019.187Z" transform="translate(-487.094 -587.183)" fill="url(#linear-gradient-40)"/>
    <path id="Path_212" data-name="Path 212" d="M350.906,1112.638a3.628,3.628,0,0,1-3.263-2.354,5,5,0,0,1,.917-4.7,9.316,9.316,0,0,1,4.054-2.8c1-.39,2.044-.684,3.057-.968.555-.155,1.128-.311,1.686-.491a6.34,6.34,0,0,0,3.574-2.216,7.154,7.154,0,0,0,.861-2.53c.04-.2.081-.395.126-.589a4.355,4.355,0,0,1,1.612-2.82,4.92,4.92,0,0,1,1.526-.542c.171-.04.345-.082.514-.127a2.382,2.382,0,0,0,1.683-1.161.039.039,0,1,1,.07.031,2.471,2.471,0,0,1-1.733,1.2c-.171.047-.347.089-.516.129a4.849,4.849,0,0,0-1.5.533,4.273,4.273,0,0,0-1.577,2.772c-.043.194-.084.392-.126.587a7.172,7.172,0,0,1-.872,2.556,6.392,6.392,0,0,1-3.619,2.247c-.559.176-1.134.336-1.689.493-1.01.283-2.056.576-3.049.965a9.172,9.172,0,0,0-4.022,2.766,4.932,4.932,0,0,0-.906,4.626,3.426,3.426,0,0,0,3.885,2.213.04.04,0,0,1,.03,0,.039.039,0,0,1,.018.024.037.037,0,0,1-.028.047A2.7,2.7,0,0,1,350.906,1112.638Z" transform="translate(-271.217 -650.925)" fill="#fff" opacity="0.71"/>
    <path id="Path_213" data-name="Path 213" d="M359.957,1125.794h0a1.842,1.842,0,0,1-1.409-1.4,2.783,2.783,0,0,1,.354-2.008c.777-1.36,2.371-2.256,4.751-2.668.432-.075.876-.137,1.307-.2a12.3,12.3,0,0,0,4.107-1.064,6.143,6.143,0,0,0,2.9-3.4,12.278,12.278,0,0,0,.466-2.224c.064-.435.129-.886.221-1.323a4.431,4.431,0,0,1,1.815-3.051.039.039,0,0,1,.04.065,4.367,4.367,0,0,0-1.781,3c-.092.435-.155.884-.219,1.319a12.335,12.335,0,0,1-.466,2.236,6.216,6.216,0,0,1-2.937,3.441,12.359,12.359,0,0,1-4.132,1.074c-.43.059-.875.121-1.305.2-2.354.407-3.935,1.291-4.7,2.631a2.7,2.7,0,0,0-.345,1.95,1.757,1.757,0,0,0,1.346,1.341.039.039,0,0,1,.031.045.038.038,0,0,1-.017.025A.038.038,0,0,1,359.957,1125.794Z" transform="translate(-280.591 -665.41)" fill="#fff" opacity="0.71"/>
    <path id="Path_214" data-name="Path 214" d="M1835.367,1140s-7.75,8.636-2.777,8.636h4.319Z" transform="translate(-1524.205 -692.048)" fill="url(#linear-gradient-41)"/>
    <path id="Path_215" data-name="Path 215" d="M1836.054,1492.8s.263,1.49.392,2.964a1.013,1.013,0,0,1-.971,1.1c-1.963.082-6.161.241-7.667.174a.331.331,0,0,1-.292-.452h0a.744.744,0,0,1,.379-.4l6.936-3.187Z" transform="translate(-1521.306 -990.023)" fill="#052159"/>
    <path id="Path_216" data-name="Path 216" d="M1871.736,1485.675l-.211,1.782a2.215,2.215,0,0,1-2.045-.072l.5-1.986Z" transform="translate(-1556.769 -983.772)" fill="url(#linear-gradient-42)"/>
    <path id="Path_217" data-name="Path 217" d="M1872.39,1271.7c.09.466.49,23.211-1.943,33.411a.348.348,0,0,0,.2.4,6.026,6.026,0,0,0,1.98.4.594.594,0,0,0,.59-.427c.7-2.365,4.027-14.214,4.46-25.534.486-12.648,0-.43,0-.43l-.284-7.818Z" transform="translate(-1557.578 -803.282)" fill="#052159"/>
    <path id="Path_218" data-name="Path 218" d="M1918.809,1497.8a10.751,10.751,0,0,1,.824,2.749.622.622,0,0,1-.544.743c-.65.064-1.647.146-2.446.14a.621.621,0,0,1-.612-.688,5.211,5.211,0,0,1,1.217-2.858Z" transform="translate(-1596.083 -994.246)" fill="#052159"/>
    <path id="Path_219" data-name="Path 219" d="M1925.709,1482.494l-.494,2.693a1.743,1.743,0,0,1-1.455.1l.236-2.9Z" transform="translate(-1602.614 -981.23)" fill="url(#linear-gradient-43)"/>
    <path id="Path_220" data-name="Path 220" d="M1891.518,1269.357c1.989,12-.431,29.661-1.243,33.118a.539.539,0,0,1-.435.409,3.606,3.606,0,0,1-1.554-.062.492.492,0,0,1-.354-.454c-.11-2.8.087-19.951-1.765-26.729a1.544,1.544,0,0,0-.594-.85l-3.6-2.556-.277-4.132Z" transform="translate(-1567.09 -800.241)" fill="#052159"/>
    <path id="Path_221" data-name="Path 221" d="M1857.365,1135.529c5.86-1.851,13.13,0,13.13,0,1.776,10.365.311,22.32.311,22.32-4.614,1.209-9.817-.74-9.817-.74C1860.221,1152.766,1855.612,1136.078,1857.365,1135.529Z" transform="translate(-1546.203 -687.578)" fill="url(#linear-gradient-44)"/>
    <path id="Path_222" data-name="Path 222" d="M1929.3,1145.7l2.284-5.77s5.567,3.782,6.482,8.577a13.175,13.175,0,0,0-4.839,1.3C1932.817,1147.54,1929.3,1145.7,1929.3,1145.7Z" transform="translate(-1607.293 -691.989)" fill="url(#linear-gradient-45)"/>
    <path id="Path_223" data-name="Path 223" d="M1893.507,1197.743s6.25,3.532,8.359.516a2.364,2.364,0,0,0,.433-1.842,13.175,13.175,0,0,1,4.839-1.3,6.613,6.613,0,0,1-.719,4.538c-3.694,6.757-13.739-.373-13.739-.373Z" transform="translate(-1576.364 -738.603)" fill="url(#linear-gradient-46)"/>
    <path id="Path_224" data-name="Path 224" d="M1817.978,1170.639l-3.411-11.91a.347.347,0,0,0-.294-.25c-.621-.073-2.409-.275-4.477-.449a50.511,50.511,0,0,0-7.11-.236.346.346,0,0,0-.284.5c.982,1.989,5.024,10.076,7.049,12.726a.353.353,0,0,0,.281.138l7.913-.075a.35.35,0,0,0,.333-.444Z" transform="translate(-1500.084 -707.031)" fill="#052159"/>
    <path id="Path_225" data-name="Path 225" d="M1833.343,1150.749l-2.474-.412a.177.177,0,0,0-.2.23l.245.743a.177.177,0,0,0,.145.12l2.379.319a.179.179,0,0,0,.2-.216l-.156-.648A.177.177,0,0,0,1833.343,1150.749Z" transform="translate(-1523.984 -700.777)" fill="#052159"/>
    <path id="Path_226" data-name="Path 226" d="M1828.927,1156.828l-.2-1.061a.246.246,0,0,0-.216-.2l-4.995-.507a.244.244,0,0,0-.263.3l.311,1.323a.247.247,0,0,0,.227.188l4.88.246a.246.246,0,0,0,.26-.292Z" transform="translate(-1517.718 -704.769)" fill="#052159"/>
    <path id="Path_227" data-name="Path 227" d="M1874.615,1200.2a8.671,8.671,0,0,0,.284-2.642c-.191-.688-.564-1.583-1.8-1.386a18.207,18.207,0,0,0-2.7.719.709.709,0,0,0,1.015.612l-.584.451s.084.724.878.337l-.542.6a.638.638,0,0,0,.932.213C1872.689,1198.719,1872.956,1200.432,1874.615,1200.2Z" transform="translate(-1557.546 -739.465)" fill="#052159"/>
    <path id="Path_228" data-name="Path 228" d="M1807.32,1177.938a8.674,8.674,0,0,1-2.368-1.217,1.524,1.524,0,0,1-.169-2.266,18.123,18.123,0,0,1,2.083-1.865.709.709,0,0,1-.047,1.184l.7-.239s.559.466-.2.918l.8-.126a.632.632,0,0,1-.331.892C1807.141,1175.5,1808.427,1176.677,1807.32,1177.938Z" transform="translate(-1501.752 -719.574)" fill="#052159"/>
    <path id="Path_229" data-name="Path 229" d="M1883.157,1106.22l1.9,5.484a.2.2,0,0,1-.09.238,4.455,4.455,0,0,1-4.623-.311.933.933,0,0,1-.427-.665l-.622-4.746Z" transform="translate(-1565.055 -663.518)" fill="url(#linear-gradient-47)"/>
    <path id="Path_230" data-name="Path 230" d="M1867.626,1073.55s-2.082,3.919-1.815,5.5,2.847,1.469,5.1.183l1.574-4.232Z" transform="translate(-1553.65 -635.925)" fill="url(#linear-gradient-48)"/>
    <path id="Path_231" data-name="Path 231" d="M1874.974,1061.668a.163.163,0,0,1-.07-.238,4.221,4.221,0,0,0,.58-1.229s.375-.239-.953-.558-3.307-.81-3.729-1.939c-.406-1.1.659-3.871,2.359-1.664a.155.155,0,0,0,.256,0,1.658,1.658,0,0,1,2.02-.659,1.53,1.53,0,0,1,1.047,1.476.155.155,0,0,0,.19.165,1.863,1.863,0,0,1,2.176,1.013,1.5,1.5,0,0,1-.107,1.8.155.155,0,0,0,.068.267.974.974,0,0,1,.684,1.106c-.056,1.024-1.2.932-1.528.887a.166.166,0,0,0-.145.05,5.489,5.489,0,0,1-2.9,1.782.163.163,0,0,1-.171-.216l.59-1.709a.156.156,0,0,0-.087-.2Z" transform="translate(-1557.812 -620.434)" fill="#052159"/>
    <path id="Path_232" data-name="Path 232" d="M1894.1,1095.6s1.483-1.016,1.59-.155-1.335,1.243-2.05.922Z" transform="translate(-1577.175 -654.128)" fill="url(#linear-gradient-49)"/>
  </g>
</svg>
