<svg xmlns="http://www.w3.org/2000/svg" xmlns:xlink="http://www.w3.org/1999/xlink" width="292.809" height="257.106" viewBox="0 0 292.809 257.106">
  <defs>
    <linearGradient id="linear-gradient" x1="0.357" y1="-0.142" x2="0.659" y2="1.223" gradientUnits="objectBoundingBox">
      <stop offset="0" stop-color="#dae3fe"/>
      <stop offset="1" stop-color="#e9effd"/>
    </linearGradient>
  </defs>
  <g id="Group_438" data-name="Group 438" transform="translate(-67.595 -101.382)">
    <path id="Path_890" data-name="Path 890" d="M415.248,141.843c-7.383-14.693-23.595-25.739-39.376-22.35-9.448,2.03-18.838,8.838-27.9,5.421-6.529-2.464-10.209-9.451-15.7-13.828-8.448-6.748-20.439-6.67-30.733-3.646s-19.719,8.582-29.891,12.018a77.069,77.069,0,0,1-53.612-1.761c-7.433-3.067-14.391-7.3-21.959-10s-16.154-3.748-23.454-.372-12.543,12.2-10.008,19.989c.505,1.551,1.292,3.085,1.194,4.718-.165,2.621-2.635,4.54-5.133,5.123s-5.1.2-7.665.269c-11.49.3-21.76,11.044-21.814,22.83-.045,9.772,5.833,18.36,10.855,26.663s9.545,18.268,6.549,27.545c-1.776,5.5-5.945,9.8-8.669,14.879-7.075,13.157-3.293,30.574,6.591,41.671S169.2,287.544,183.8,288.838s29.243-1.135,43.717-3.533,29.123-4.781,43.717-3.41l-.784-.437a232.427,232.427,0,0,0,87.46,5.084c6.1-.81,13.1-2.552,15.674-8.271,2.176-4.832.222-10.495.669-15.8.646-7.64,6.238-13.9,12.336-18.339s13.016-7.754,18.51-12.953c10.748-10.181,14.395-25.939,16-40.849C422.858,173.9,422.631,156.534,415.248,141.843Z" transform="translate(-61.603 69.29)" fill="url(#linear-gradient)"/>
    <g id="Group_431" data-name="Group 431" transform="translate(-80.792 -38.336)">
      <path id="Path_883" data-name="Path 883" d="M379.414,383.3H194.452V226.834l92.467-58.719,92.495,58.719Z" transform="translate(8.412 13.526)" fill="#16558c"/>
      <path id="Path_884" data-name="Path 884" d="M379.414,383.3H194.452V226.834l92.467-58.719,92.495,58.719Z" transform="translate(7.859 13.526)" opacity="0.2"/>
      <g id="Group_420" data-name="Group 420" transform="translate(212.742 181.641)">
        <rect id="Rectangle_58" data-name="Rectangle 58" width="164.1" height="210.653" transform="translate(0.05 0)" fill="#ebebeb"/>
        <path id="Path_885" data-name="Path 885" d="M262.447,280.635,224.876,242.6l12.622-12.47,21.948,22.213,45.6-71.482L320,190.405Z" transform="translate(-190.826 -150.599)" fill="#ffc727"/>
      </g>
      <path id="Path_886" data-name="Path 886" d="M379.414,234.417v117.3H194.452v-117.3c7.944,4.5,15.748,9.221,23.609,13.833,7.833,4.693,15.665,9.388,23.443,14.165q13,7.917,25.972,16.055c.083-.056.193-.112.278-.167-.084.055-.139.139-.221.195q9.706,6.041,19.415,12.137c6.444-4.054,12.915-8.138,19.387-12.137-.083-.056-.139-.14-.223-.195a1.367,1.367,0,0,0,.279.139q12.957-8.083,25.97-16.055,11.666-7.124,23.416-14.137C363.665,243.638,371.47,238.917,379.414,234.417Z" transform="translate(8.412 45.108)" fill="#16558c"/>
      <g id="Group_421" data-name="Group 421" transform="translate(202.864 279.525)" opacity="0.2">
        <path id="Path_887" data-name="Path 887" d="M379.414,234.417c-7.472,5.25-15.082,10.277-22.61,15.444q-11.376,7.582-22.833,15.11Q322.015,272.8,310,280.5c-.25.167-.471.334-.722.5q-10.623,6.792-21.3,13.582l-1.056.639-1.027-.639q-10.667-6.792-21.277-13.61c-.25-.139-.5-.306-.75-.472q-12.04-7.709-24-15.555c-7.61-4.972-15.221-10.027-22.8-15.082-7.528-5.167-15.138-10.194-22.61-15.444,7.944,4.5,15.748,9.221,23.609,13.833,7.833,4.693,15.665,9.388,23.443,14.165q13,7.917,25.972,16.055c.028,0,.028,0,.056.028q9.706,6.041,19.415,12.137c6.444-4.054,12.915-8.138,19.387-12.137.028-.056.028-.056.056-.056q12.957-8.083,25.97-16.055,11.666-7.124,23.416-14.137C363.665,243.638,371.47,238.917,379.414,234.417Z" transform="translate(-194.452 -234.417)"/>
        <path id="Path_888" data-name="Path 888" d="M267.61,264.144c-.084.055-.139.139-.221.195-.973.833-1.946,1.665-2.917,2.471-4.639,3.917-9.388,7.667-14.222,11.306-5.889,4.5-11.917,8.8-17.971,13.082-6.083,4.194-12.193,8.36-18.444,12.361s-12.555,7.916-19.082,11.5c5.61-4.918,11.443-9.5,17.332-13.972,5.916-4.5,11.944-8.8,17.971-13.083,6.111-4.221,12.221-8.387,18.47-12.388,4.972-3.193,10.027-6.332,15.194-9.277,1.194-.694,2.389-1.361,3.611-2.027C267.415,264.255,267.526,264.2,267.61,264.144Z" transform="translate(-194.309 -220.257)"/>
        <path id="Path_889" data-name="Path 889" d="M342.943,315.058c-6.528-3.583-12.86-7.5-19.083-11.5-6.249-4-12.36-8.167-18.47-12.361-6.056-4.277-12.084-8.582-17.971-13.082-4.805-3.639-9.555-7.361-14.167-11.278-1-.834-1.971-1.667-2.944-2.5-.083-.056-.139-.14-.223-.195a1.364,1.364,0,0,0,.279.139c1.222.694,2.417,1.361,3.61,2.055,5.167,2.945,10.194,6.084,15.194,9.277,6.249,4,12.36,8.167,18.444,12.388,6.055,4.278,12.082,8.583,17.971,13.083C331.5,305.558,337.332,310.141,342.943,315.058Z" transform="translate(-158.426 -220.257)"/>
      </g>
      <g id="Group_430" data-name="Group 430" transform="translate(176.792 139.719)">
        <g id="Group_422" data-name="Group 422" transform="translate(39.394)">
          <line id="Line_2" data-name="Line 2" x1="0.025" y1="24.436" fill="none" stroke="#263238" stroke-miterlimit="10" stroke-width="1"/>
        </g>
        <g id="Group_423" data-name="Group 423" transform="translate(11.739 11.053)">
          <line id="Line_3" data-name="Line 3" x1="17.297" y1="17.261" fill="none" stroke="#263238" stroke-miterlimit="10" stroke-width="1"/>
        </g>
        <g id="Group_424" data-name="Group 424" transform="translate(0 38.399)">
          <line id="Line_4" data-name="Line 4" x1="24.436" y2="0.025" fill="none" stroke="#263238" stroke-miterlimit="10" stroke-width="1"/>
        </g>
        <g id="Group_425" data-name="Group 425" transform="translate(11.053 48.782)">
          <line id="Line_5" data-name="Line 5" x1="17.261" y2="17.297" fill="none" stroke="#263238" stroke-miterlimit="10" stroke-width="1"/>
        </g>
        <g id="Group_426" data-name="Group 426" transform="translate(196.581)">
          <line id="Line_6" data-name="Line 6" y1="24.436" x2="0.025" fill="none" stroke="#263238" stroke-miterlimit="10" stroke-width="1"/>
        </g>
        <g id="Group_427" data-name="Group 427" transform="translate(206.964 11.053)">
          <line id="Line_7" data-name="Line 7" y1="17.261" x2="17.297" fill="none" stroke="#263238" stroke-miterlimit="10" stroke-width="1"/>
        </g>
        <g id="Group_428" data-name="Group 428" transform="translate(211.564 38.399)">
          <line id="Line_8" data-name="Line 8" x2="24.436" y2="0.025" fill="none" stroke="#263238" stroke-miterlimit="10" stroke-width="1"/>
        </g>
        <g id="Group_429" data-name="Group 429" transform="translate(207.685 48.782)">
          <line id="Line_9" data-name="Line 9" x2="17.261" y2="17.297" fill="none" stroke="#263238" stroke-miterlimit="10" stroke-width="1"/>
        </g>
      </g>
    </g>
  </g>
</svg>
